<svg width="49" height="49" viewBox="0 0 49 49" fill="none" xmlns="http://www.w3.org/2000/svg">
<g id="twitter">
<g id="Group 3">
<path id="Vector" d="M24.7575 22.7096H36.8007C36.9336 23.4366 37 24.1311 37 24.793C37 27.1476 36.4961 29.2499 35.4884 31.0999C34.4806 32.95 33.0437 34.3958 31.1777 35.4375C29.3117 36.4792 27.1716 37 24.7575 37C23.0188 37 21.3632 36.6718 19.7907 36.0153C18.2182 35.3588 16.8616 34.4718 15.7209 33.3542C14.5803 32.2365 13.675 30.9073 13.005 29.3665C12.335 27.8257 12 26.2036 12 24.5C12 22.7964 12.335 21.1743 13.005 19.6335C13.675 18.0927 14.5803 16.7635 15.7209 15.6458C16.8616 14.5282 18.2182 13.6412 19.7907 12.9847C21.3632 12.3282 23.0188 12 24.7575 12C28.0797 12 30.9313 13.0905 33.3123 15.2715L29.8405 18.543C28.4784 17.2517 26.7841 16.6061 24.7575 16.6061C23.3289 16.6061 22.0083 16.9588 20.7957 17.6641C19.5831 18.3694 18.6224 19.3269 17.9136 20.5368C17.2049 21.7466 16.8505 23.0677 16.8505 24.5C16.8505 25.9323 17.2049 27.2534 17.9136 28.4632C18.6224 29.6731 19.5831 30.6306 20.7957 31.3359C22.0083 32.0412 23.3289 32.3939 24.7575 32.3939C25.7209 32.3939 26.6069 32.2637 27.4153 32.0033C28.2237 31.7428 28.8881 31.4173 29.4086 31.0267C29.9291 30.6361 30.3832 30.1912 30.7708 29.6921C31.1584 29.1929 31.4435 28.7209 31.6262 28.276C31.809 27.8312 31.9336 27.408 32 27.0065H24.7575V22.7096Z" fill="#767676"/>
</g>
</g>
</svg>
