<svg width="12" height="16" viewBox="0 0 12 16" fill="none" xmlns="http://www.w3.org/2000/svg">
<path d="M11.3334 5.16539L7.3334 1.43956C6.96672 1.09109 6.49202 0.898438 6.00006 0.898438C5.50811 0.898438 5.03341 1.09109 4.66673 1.43956L0.66673 5.16539C0.454976 5.36661 0.285997 5.61345 0.171044 5.88948C0.0560924 6.16551 -0.00219504 6.46439 6.31961e-05 6.76622V12.9571C6.31961e-05 13.5206 0.210777 14.0611 0.58585 14.4597C0.960923 14.8582 1.46963 15.0821 2.00006 15.0821H10.0001C10.5305 15.0821 11.0392 14.8582 11.4143 14.4597C11.7894 14.0611 12.0001 13.5206 12.0001 12.9571V6.75914C12.0014 6.4585 11.9426 6.16098 11.8277 5.88625C11.7128 5.61151 11.5443 5.36582 11.3334 5.16539ZM7.3334 13.6654H4.66673V10.1237C4.66673 9.93586 4.73697 9.75569 4.86199 9.62286C4.98702 9.49002 5.15659 9.41539 5.3334 9.41539H6.66673C6.84354 9.41539 7.01311 9.49002 7.13813 9.62286C7.26316 9.75569 7.3334 9.93586 7.3334 10.1237V13.6654ZM10.6667 12.9571C10.6667 13.1449 10.5965 13.3251 10.4715 13.4579C10.3464 13.5908 10.1769 13.6654 10.0001 13.6654H8.66673V10.1237C8.66673 9.56014 8.45602 9.01964 8.08094 8.62112C7.70587 8.22261 7.19716 7.99872 6.66673 7.99872H5.3334C4.80296 7.99872 4.29426 8.22261 3.91918 8.62112C3.54411 9.01964 3.3334 9.56014 3.3334 10.1237V13.6654H2.00006C1.82325 13.6654 1.65368 13.5908 1.52866 13.4579C1.40363 13.3251 1.3334 13.1449 1.3334 12.9571V6.75914C1.33352 6.65857 1.35379 6.55917 1.39287 6.46757C1.43196 6.37597 1.48895 6.29427 1.56006 6.22789L5.56006 2.50914C5.68172 2.39558 5.83812 2.33295 6.00006 2.33295C6.162 2.33295 6.3184 2.39558 6.44006 2.50914L10.4401 6.22789C10.5112 6.29427 10.5682 6.37597 10.6073 6.46757C10.6463 6.55917 10.6666 6.65857 10.6667 6.75914V12.9571Z" fill="white"/>
</svg>
