<svg width="500" height="500" viewBox="0 0 500 500" fill="none" xmlns="http://www.w3.org/2000/svg">
<path d="M449.903 398.492H416.781V398.742H449.903V398.492Z" fill="#EBEBEB"/>
<path d="M331.216 401.211H322.523V401.461H331.216V401.211Z" fill="#EBEBEB"/>
<path d="M415.778 389.211H396.586V389.461H415.778V389.211Z" fill="#EBEBEB"/>
<path d="M95.6539 390.891H52.4609V391.141H95.6539V390.891Z" fill="#EBEBEB"/>
<path d="M110.888 390.891H104.555V391.141H110.888V390.891Z" fill="#EBEBEB"/>
<path d="M225.145 395.109H131.469V395.359H225.145V395.109Z" fill="#EBEBEB"/>
<path d="M500 382.398H0V382.648H500V382.398Z" fill="#EBEBEB"/>
<path d="M350.073 376.602H445.25V249.957H350.073V376.602Z" fill="#F5F5F5"/>
<path d="M331.914 376.602H350.07V249.957H331.914V376.602Z" fill="#E6E6E6"/>
<path d="M356.245 290.109H438.578V259.354H356.245V290.109Z" fill="#FAFAFA"/>
<path d="M408.154 259.352L407.794 263.452C407.675 264.804 406.543 265.842 405.185 265.842H389.649C388.292 265.842 387.159 264.805 387.04 263.452L386.68 259.352H408.154Z" fill="#EBEBEB"/>
<path d="M356.245 324.219H438.578V293.464H356.245V324.219Z" fill="#FAFAFA"/>
<path d="M408.154 293.469L407.794 297.569C407.675 298.921 406.543 299.959 405.185 299.959H389.649C388.292 299.959 387.159 298.921 387.04 297.569L386.68 293.469H408.154Z" fill="#EBEBEB"/>
<path d="M356.245 358.336H438.578V327.581H356.245V358.336Z" fill="#FAFAFA"/>
<path d="M408.154 327.578L407.794 331.678C407.675 333.03 406.543 334.068 405.185 334.068H389.649C388.292 334.068 387.159 333.03 387.04 331.678L386.68 327.578H408.154Z" fill="#EBEBEB"/>
<path d="M356.25 382.919H437.583L438.583 376.586H356.25V382.919Z" fill="#E6E6E6"/>
<path d="M339.25 382.919H356.25V376.586H338.25L339.25 382.919Z" fill="#E0E0E0"/>
<path d="M394.481 250.091H426.981L423.375 208.875H390.875L394.481 250.091Z" fill="#FAFAFA"/>
<path d="M394.478 250.091H392.926L389.32 208.875H390.872L394.478 250.091Z" fill="#EBEBEB"/>
<path d="M397.425 245.89H423.298L420.428 213.078H394.555L397.425 245.89Z" fill="#F0F0F0"/>
<path d="M399.32 243.191H420.933L418.535 215.781H396.922L399.32 243.191Z" fill="#E6E6E6"/>
<path d="M385.345 250.089L387.577 224.578H355.224L352.992 250.089H385.345Z" fill="#F0F0F0"/>
<path d="M385.344 250.089L387.576 224.578H389.318L387.086 250.089H385.344Z" fill="#E0E0E0"/>
<path d="M382.272 247.489L384.049 227.18H358.293L356.516 247.489H382.272Z" fill="#EBEBEB"/>
<path d="M380.297 245.817L381.781 228.852H360.266L358.781 245.817H380.297Z" fill="#F5F5F5"/>
<path d="M310.643 365.769C310.643 372.529 309.582 376.902 307.795 379.707C306.451 381.818 304.039 383.004 301.536 383.004H291.748C289.246 383.004 286.834 381.817 285.489 379.707C283.702 376.901 282.641 372.529 282.641 365.769C282.641 355.964 286.916 348.114 288.312 341.846C288.815 339.589 287.141 332.672 287.141 332.672H306.141C306.141 332.672 304.467 339.59 304.97 341.846C306.368 348.114 310.643 355.964 310.643 365.769Z" fill="#EBEBEB"/>
<path d="M342.996 326.088C342.996 317.575 329.65 321.109 326.286 307.902C325.011 302.897 335.866 291.57 335.866 291.57H302.021C302.021 291.57 312.876 302.897 311.601 307.902C308.237 321.109 294.891 317.575 294.891 326.088C294.891 335.464 313.718 354.991 314.625 376.97C314.706 378.935 311.084 383.007 311.084 383.007H326.802C326.802 383.007 323.18 378.935 323.261 376.97C324.169 354.991 342.996 335.464 342.996 326.088Z" fill="#F5F5F5"/>
<path d="M332.767 348.213C334.734 344.075 330.667 330.008 330.667 330.008H345.334C345.334 330.008 341.266 344.076 343.233 348.213C344.622 351.134 347.781 352.999 347.781 356.455V377.227C347.781 382.606 343.38 383.008 338 383.008C332.62 383.008 328.219 382.607 328.219 377.227V356.455C328.219 352.999 331.378 351.134 332.767 348.213Z" fill="#F0F0F0"/>
<path d="M165.15 225.535C156.724 221.886 151.916 214.186 154.435 208.37C156.953 202.554 165.859 200.791 174.285 204.439C182.713 208.088 187.52 215.789 185.002 221.605C182.483 227.421 173.578 229.184 165.15 225.535ZM171.858 210.044C167.909 208.334 163.737 209.161 162.557 211.886C161.377 214.611 163.629 218.219 167.578 219.929C171.527 221.639 175.7 220.813 176.88 218.088C178.06 215.363 175.806 211.754 171.858 210.044Z" fill="#E6E6E6"/>
<path d="M175.066 210.368L171.062 208.634L195.26 152.699C195.739 151.593 197.023 151.084 198.129 151.563C199.234 152.042 199.743 153.325 199.264 154.431L175.066 210.368Z" fill="#E6E6E6"/>
<path d="M201.113 159.838L193.43 156.481L195.163 152.477L202.847 155.834L201.113 159.838Z" fill="#E6E6E6"/>
<path d="M197.33 164.316L191.828 161.926L193.562 157.922L199.063 160.312L197.33 164.316Z" fill="#E6E6E6"/>
<path d="M191.343 165.574L189.609 169.578L195.779 172.25L197.513 168.246L191.343 165.574Z" fill="#E6E6E6"/>
<path d="M176.621 204.399L174.421 203.447C173.325 202.972 172.821 201.699 173.296 200.603L173.311 200.569C173.786 199.473 175.059 198.969 176.155 199.444L178.355 200.396C179.451 200.871 179.955 202.144 179.48 203.24L179.465 203.274C178.99 204.369 177.717 204.873 176.621 204.399Z" fill="#E6E6E6"/>
<path d="M348.461 185.161C355.137 189.609 356.86 198.796 352.299 205.641C347.739 212.485 338.596 214.435 331.92 209.987C325.243 205.538 323.521 196.35 328.081 189.506C332.642 182.661 341.784 180.713 348.461 185.161ZM336.316 203.39C339.445 205.474 343.728 204.561 345.865 201.354C348.002 198.147 347.195 193.842 344.066 191.758C340.937 189.673 336.653 190.586 334.516 193.793C332.38 197 333.187 201.306 336.316 203.39Z" fill="#E6E6E6"/>
<path d="M334.704 201.617L338.843 204.375L309.229 249.695C308.468 250.838 306.923 251.148 305.78 250.386C304.637 249.625 304.328 248.081 305.089 246.939L334.704 201.617Z" fill="#E6E6E6"/>
<path d="M305.273 237.059L313.983 242.909L309.635 249.435L300.908 243.574C299.655 242.733 299.319 241.036 300.155 239.78L301.465 237.815C302.307 236.552 304.014 236.214 305.273 237.059Z" fill="#E6E6E6"/>
<path d="M227.529 98.5603L222.932 110.468C222.518 111.541 221.312 112.075 220.239 111.661C219.166 111.247 218.632 110.041 219.046 108.967L223.643 97.0593C225.128 93.2143 223.208 88.8753 219.362 87.3903L215.102 85.7453C211.257 84.2603 206.919 86.1833 205.435 90.0293L203.558 94.8913L199.672 93.3913L201.549 88.5293C203.861 82.5393 210.616 79.5483 216.603 81.8593L220.863 83.5043C226.849 85.8163 229.841 92.5703 227.529 98.5603Z" fill="#F0F0F0"/>
<path d="M226.805 100.435C226.499 100.04 226.083 99.7179 225.584 99.5249L202.383 90.5679C201.866 90.3679 201.322 90.3269 200.817 90.4289C199.89 90.6109 199.069 91.2519 198.704 92.1969L189.747 115.398C189.18 116.866 189.908 118.51 191.377 119.077L214.578 128.034C216.046 128.601 217.69 127.873 218.257 126.404L227.214 103.203C227.586 102.241 227.401 101.198 226.805 100.435ZM209.189 118.363L201.831 115.522L205.721 108.731C205.231 107.746 205.141 106.564 205.569 105.454C206.381 103.352 208.743 102.3 210.846 103.112C212.948 103.924 213.997 106.292 213.186 108.394C212.758 109.504 211.897 110.318 210.866 110.717L209.189 118.363Z" fill="#E6E6E6"/>
<path d="M69.1523 369.461H254.281V269.829H69.1523V369.461Z" fill="#E6E6E6"/>
<path d="M239.443 382.383H251.078V373.592H239.443V382.383Z" fill="#E6E6E6"/>
<path d="M55.0212 382.383H66.6562L66.6563 262.411H55.0212L55.0212 382.383Z" fill="#E6E6E6"/>
<path d="M66.5156 262.414V382.386H72.7206V375.663H251.075V382.386H257.281V262.414H254.178H251.075H72.7216H69.6186H66.5156ZM72.7216 273.274H158.796V314.943H72.7216V273.274ZM251.075 364.804H165.001V273.274H251.075V364.804ZM72.7216 364.804V321.148H158.796V364.804H72.7216Z" fill="#F0F0F0"/>
<path d="M165.002 364.805H245.258V277.757H165.002V364.805Z" fill="#F5F5F5"/>
<path d="M168.641 318.674C168.641 320.733 170.31 322.403 172.37 322.403C174.429 322.403 176.099 320.734 176.099 318.674C176.099 316.614 174.43 314.945 172.37 314.945C170.311 314.946 168.641 316.615 168.641 318.674Z" fill="#FAFAFA"/>
<path d="M172.371 322.404C173.875 322.404 175.163 321.509 175.752 320.227C175.97 320.701 176.099 321.223 176.099 321.778C176.099 323.837 174.43 325.507 172.37 325.507C170.311 325.507 168.641 323.838 168.641 321.778C168.641 321.223 168.771 320.7 168.988 320.227C169.579 321.509 170.867 322.404 172.371 322.404Z" fill="#E0E0E0"/>
<path d="M214.132 364.806H194.985L185.836 277.758H204.983L214.132 364.806Z" fill="#FAFAFA"/>
<path d="M190.085 364.806H186.274L177.125 277.758H180.936L190.085 364.806Z" fill="#FAFAFA"/>
<path d="M139.4 314.906H146.984V277.674H139.4V314.906Z" fill="#FAFAFA"/>
<path d="M107.955 314.906H115.539V277.674H107.955V314.906Z" fill="#F5F5F5"/>
<path d="M131.814 314.898H139.398V280.282H131.814V314.898Z" fill="#F5F5F5"/>
<path d="M115.541 314.898H123.125V280.282H115.541V314.898Z" fill="#FAFAFA"/>
<path d="M123.122 314.906H128.023V277.674H123.122V314.906Z" fill="#EBEBEB"/>
<path d="M128.021 314.898H131.812V280.282H128.021V314.898Z" fill="#FAFAFA"/>
<path d="M100.369 314.906H107.953V277.674H100.369V314.906Z" fill="#EBEBEB"/>
<path d="M92.7832 314.898H100.367V280.282H92.7832V314.898Z" fill="#E6E6E6"/>
<path d="M76.5098 314.898H84.0938V280.282H76.5098V314.898Z" fill="#E6E6E6"/>
<path d="M84.0912 314.906H88.9922V277.674H84.0912V314.906Z" fill="#FAFAFA"/>
<path d="M88.9893 314.898H92.7812V280.282H88.9893V314.898Z" fill="#EBEBEB"/>
<path d="M72.7158 314.898H76.5078V278.547H72.7158V314.898Z" fill="#EBEBEB"/>
<path d="M80.3027 327.57H72.7188V364.802H80.3027V327.57Z" fill="#EBEBEB"/>
<path d="M111.748 327.57H104.164V364.802H111.748V327.57Z" fill="#FAFAFA"/>
<path d="M87.8809 330.188H80.2969V364.803H87.8809V330.188Z" fill="#FAFAFA"/>
<path d="M104.162 330.188H96.5781V364.803H104.162V330.188Z" fill="#EBEBEB"/>
<path d="M96.5807 327.57H91.6797V364.802H96.5807V327.57Z" fill="#FAFAFA"/>
<path d="M91.6748 330.188H87.8828V364.803H91.6748V330.188Z" fill="#F5F5F5"/>
<path d="M119.326 327.57H111.742V364.802H119.326V327.57Z" fill="#EBEBEB"/>
<path d="M126.912 330.188H119.328V364.803H126.912V330.188Z" fill="#F5F5F5"/>
<path d="M143.193 330.188H135.609V364.803H143.193V330.188Z" fill="#E6E6E6"/>
<path d="M135.612 327.57H130.711V364.802H135.612V327.57Z" fill="#FAFAFA"/>
<path d="M151.885 327.57H146.984V364.802H151.885V327.57Z" fill="#FAFAFA"/>
<path d="M130.706 330.188H126.914V364.803H130.706V330.188Z" fill="#EBEBEB"/>
<path d="M146.987 328.453H143.195V364.804H146.987V328.453Z" fill="#EBEBEB"/>
<path d="M81.1815 198.289C81.1815 198.289 79.9085 198.875 79.3265 200.059C78.7445 201.243 80.5495 203.429 80.5495 203.429C80.5495 203.429 82.0645 204.484 83.5705 203.8C85.0765 203.116 85.0765 203.116 85.0765 203.116C85.0765 203.116 82.5015 198.648 81.2515 198.603L81.1815 198.289Z" fill="#E6E6E6"/>
<path d="M87.6327 198.256C87.8167 200.375 86.5027 203.049 84.6107 203.213C82.7187 203.377 80.9647 200.97 80.7807 198.85C80.5967 196.731 82.1247 196.524 84.0167 196.36C85.9077 196.196 87.4487 196.137 87.6327 198.256Z" fill="#E6E6E6"/>
<path d="M82.0897 197.633C82.0897 197.633 83.5357 198.785 86.5147 198.112C86.5147 198.112 81.8157 201.247 82.0897 197.633Z" fill="#E6E6E6"/>
<path d="M83.3672 197.208C83.3672 197.208 85.0352 196.918 85.0592 197.614C85.0592 197.614 86.4742 197.535 86.2782 196.943C86.0832 196.351 83.3672 197.208 83.3672 197.208Z" fill="#E6E6E6"/>
<g opacity="0.2">
<path d="M82.0897 197.633C82.0897 197.633 83.5357 198.785 86.5147 198.112C86.5147 198.112 81.8157 201.247 82.0897 197.633Z" fill="#FAFAFA"/>
</g>
<g opacity="0.2">
<path d="M83.3672 197.208C83.3672 197.208 85.0352 196.918 85.0592 197.614C85.0592 197.614 86.4742 197.535 86.2782 196.943C86.0832 196.351 83.3672 197.208 83.3672 197.208Z" fill="#FAFAFA"/>
</g>
<path d="M81.4297 203.883C82.0317 204.859 83.2597 205.361 84.3977 205.225C85.5367 205.089 86.5617 204.378 87.2187 203.438C87.8757 202.498 88.1887 201.349 88.2617 200.205C88.2807 199.909 88.3037 199.168 87.9137 199.053C87.5557 198.948 87.3347 199.449 87.1687 199.682C86.6917 200.354 86.1857 200.983 85.5787 201.544C84.9897 202.087 84.3387 202.563 83.6417 202.957C83.4457 203.067 81.5357 204.055 81.4297 203.883Z" fill="#E6E6E6"/>
<path d="M89.5482 199.653C89.9062 200.512 89.7762 201.557 89.2172 202.301C88.8502 202.79 88.3302 203.139 87.8062 203.455C87.4422 203.675 86.9732 203.883 86.6162 203.652C86.2312 203.403 86.2662 202.837 86.3542 202.387C86.4902 201.694 86.6452 201.004 86.8192 200.319C86.9622 199.757 87.0482 198.817 87.3772 198.34C87.6872 197.891 88.1262 198.157 88.5942 198.483C89.0112 198.774 89.3522 199.181 89.5482 199.653Z" fill="#E6E6E6"/>
<g opacity="0.2">
<path d="M81.9107 202.707C81.1797 202.676 80.4887 202.181 80.2227 201.5C80.0267 200.996 80.0297 199.717 80.6827 199.555C80.9717 200.69 81.2217 201.722 81.9107 202.707Z" fill="#FAFAFA"/>
</g>
<g opacity="0.2">
<path d="M86.8438 202.655C87.5337 202.458 88.1077 201.894 88.3177 201.208C88.4337 200.829 88.2867 198.892 87.7117 199.706C87.5237 199.972 87.5587 200.822 87.4607 201.166C87.3137 201.683 87.1068 202.185 86.8438 202.655Z" fill="#FAFAFA"/>
</g>
<g opacity="0.2">
<path d="M84.2014 203.852C84.7354 204.306 85.5884 204.328 86.1444 203.902C86.0714 204.277 84.8914 204.59 84.5254 204.697C83.5724 204.977 83.0734 204.558 82.1484 204.172C82.1484 204.172 83.6134 204.395 84.2014 203.852Z" fill="#FAFAFA"/>
</g>
<path d="M82.5469 242.806L82.6369 213.954L84.1169 205.18L84.6789 205.275L83.2059 214.009L83.1019 243.354L82.5469 242.806Z" fill="#E0E0E0"/>
<path d="M83.1469 213.806L82.6949 214.153C82.2419 213.563 81.8339 212.793 81.3619 211.901C80.6319 210.523 79.8039 208.96 78.5469 207.578L78.9689 207.195C80.2739 208.631 81.1199 210.227 81.8659 211.635C82.3249 212.504 82.7229 213.254 83.1469 213.806Z" fill="#E0E0E0"/>
<path d="M83.5009 209.938C84.2689 209.736 84.9569 209.247 85.3999 208.588C85.9029 207.84 86.0779 206.925 86.2419 206.039C85.2459 206.337 84.1759 205.853 83.1439 205.972C82.3209 206.067 81.5539 206.568 81.1379 207.285C80.5989 208.213 80.3799 209.266 80.8559 209.691C81.2479 210.04 82.4739 210.208 83.5009 209.938Z" fill="#E6E6E6"/>
<path d="M79.6651 207.942C78.7451 208.525 77.5621 208.673 76.5271 208.335C75.4921 207.998 75.1901 206.442 74.7891 205.429C75.7281 205.236 78.1131 205.371 78.6531 205.425C79.1931 205.479 79.7411 205.723 80.0321 206.181C80.3221 206.639 80.2691 207.327 79.8291 207.644C79.7991 207.626 79.6651 207.942 79.6651 207.942Z" fill="#E6E6E6"/>
<path d="M74.9313 209.63C75.5643 208.864 77.1243 208.309 78.1013 208.487C79.0783 208.665 79.9123 209.338 80.2623 210.137C80.0043 210.757 79.3123 211.108 78.6423 211.156C77.9723 211.204 77.3113 211.006 76.6683 210.81C76.0263 210.614 75.3653 210.415 74.6953 210.463L74.9313 209.63Z" fill="#E6E6E6"/>
<path d="M94.1743 204.672C94.1743 204.672 95.2183 205.607 95.4263 206.909C95.6343 208.212 93.2663 209.771 93.2663 209.771C93.2663 209.771 91.5073 210.334 90.2693 209.238C89.0313 208.141 89.0312 208.141 89.0312 208.141C89.0312 208.141 92.8063 204.627 94.0133 204.952L94.1743 204.672Z" fill="#E6E6E6"/>
<path d="M88.0251 202.743C87.2261 204.715 87.6961 207.656 89.4571 208.369C91.2171 209.082 93.6021 207.297 94.4001 205.325C95.1991 203.354 93.7991 202.707 92.0391 201.994C90.2791 201.281 88.8241 200.771 88.0251 202.743Z" fill="#E6E6E6"/>
<path d="M93.5038 203.773C93.5038 203.773 91.7828 204.449 89.1328 202.93C89.1328 202.93 92.7018 207.307 93.5038 203.773Z" fill="#E6E6E6"/>
<path d="M92.4078 202.997C92.4078 202.997 90.8998 202.229 90.6708 202.887C90.6708 202.887 89.3418 202.396 89.7028 201.887C90.0648 201.38 92.4078 202.997 92.4078 202.997Z" fill="#E6E6E6"/>
<g opacity="0.2">
<path d="M93.5038 203.773C93.5038 203.773 91.7828 204.449 89.1328 202.93C89.1328 202.93 92.7018 207.307 93.5038 203.773Z" fill="#FAFAFA"/>
</g>
<g opacity="0.2">
<path d="M92.4078 202.997C92.4078 202.997 90.8998 202.229 90.6708 202.887C90.6708 202.887 89.3418 202.396 89.7028 201.887C90.0648 201.38 92.4078 202.997 92.4078 202.997Z" fill="#FAFAFA"/>
</g>
<path d="M92.2909 209.945C91.4289 210.701 90.1079 210.82 89.0589 210.355C88.0109 209.89 87.2399 208.909 86.8879 207.817C86.5359 206.726 86.5749 205.535 86.8419 204.42C86.9109 204.131 87.1069 203.416 87.5139 203.422C87.8879 203.427 87.9509 203.97 88.0409 204.242C88.2999 205.025 88.5979 205.774 89.0139 206.489C89.4169 207.181 89.8999 207.827 90.4499 208.409C90.6049 208.573 92.1389 210.079 92.2909 209.945Z" fill="#E6E6E6"/>
<path d="M85.7786 203.51C85.1836 204.226 85.0016 205.263 85.3166 206.139C85.5236 206.714 85.9186 207.201 86.3256 207.657C86.6096 207.974 86.9966 208.311 87.4056 208.195C87.8476 208.07 87.9806 207.519 88.0276 207.063C88.1016 206.36 88.1566 205.656 88.1916 204.95C88.2206 204.371 88.4146 203.447 88.2396 202.895C88.0756 202.375 87.5776 202.5 87.0346 202.674C86.5496 202.828 86.1046 203.117 85.7786 203.51Z" fill="#E6E6E6"/>
<g opacity="0.2">
<path d="M92.1797 208.675C92.8877 208.86 93.6927 208.591 94.1477 208.017C94.4837 207.593 94.8557 206.37 94.2797 206.023C93.6687 207.023 93.1267 207.936 92.1797 208.675Z" fill="#FAFAFA"/>
</g>
<g opacity="0.2">
<path d="M87.4762 207.182C86.8742 206.791 86.4912 206.083 86.4922 205.365C86.4922 204.969 87.2032 203.16 87.5132 204.107C87.6142 204.416 87.3312 205.219 87.3232 205.576C87.3122 206.115 87.3632 206.656 87.4762 207.182Z" fill="#FAFAFA"/>
</g>
<g opacity="0.2">
<path d="M89.6544 209.101C89.0114 209.378 88.1894 209.148 87.7824 208.578C87.7414 208.957 88.7774 209.604 89.0964 209.814C89.9254 210.362 90.5244 210.108 91.5224 210.011C91.5224 210.011 90.0574 209.793 89.6544 209.101Z" fill="#FAFAFA"/>
</g>
<path d="M81.7266 238.496L82.0856 237.314L82.5706 235.722L83.1316 233.864L87.6176 219.093L88.1786 214.854L88.6766 211.093L88.7796 210.312L89.0586 210.348L89.0626 210.352L89.3456 210.388L89.3376 210.456L89.2376 211.192L88.7086 215.212L88.2746 218.488L88.1786 219.208L88.1436 219.324L83.1286 235.822L82.5626 237.673L82.3036 238.533L81.9456 239.707L81.7266 238.496Z" fill="#E0E0E0"/>
<path d="M87.7344 218.926L88.0644 219.391C88.6704 218.96 89.2874 218.344 90.0004 217.631C91.1034 216.528 92.3544 215.279 93.9624 214.326L93.6724 213.836C92.0024 214.824 90.7254 216.101 89.5984 217.228C88.9024 217.922 88.3024 218.523 87.7344 218.926Z" fill="#E0E0E0"/>
<path d="M88.5371 215.118C87.8631 214.699 87.3491 214.029 87.1181 213.27C86.8571 212.407 86.9591 211.481 87.0631 210.586C87.9281 211.163 89.0921 211.016 90.0441 211.433C90.8031 211.765 91.3881 212.47 91.5751 213.277C91.8171 214.323 91.7171 215.393 91.1371 215.66C90.6611 215.878 89.4391 215.678 88.5371 215.118Z" fill="#E6E6E6"/>
<path d="M92.7925 214.341C93.5015 215.168 94.5875 215.658 95.6765 215.64C96.7655 215.622 97.5115 214.223 98.1925 213.373C97.3515 212.913 95.0325 212.34 94.5005 212.233C93.9685 212.126 93.3725 212.198 92.9605 212.55C92.5485 212.903 92.3975 213.576 92.7245 214.008C92.7565 213.999 92.7925 214.341 92.7925 214.341Z" fill="#E6E6E6"/>
<path d="M96.8143 217.35C96.4343 216.432 95.1073 215.442 94.1203 215.325C93.1343 215.208 92.1393 215.606 91.5703 216.267C91.6353 216.936 92.1933 217.474 92.8193 217.717C93.4453 217.96 94.1353 217.965 94.8073 217.966C95.4793 217.967 96.1683 217.972 96.7953 218.214L96.8143 217.35Z" fill="#E6E6E6"/>
<path d="M73.9223 203.516C73.9223 203.516 72.7753 204.322 72.4153 205.591C72.0553 206.86 74.2243 208.687 74.2243 208.687C74.2243 208.687 75.9043 209.453 77.2623 208.509C78.6203 207.565 78.6203 207.565 78.6203 207.565C78.6203 207.565 75.2843 203.632 74.0473 203.813L73.9223 203.516Z" fill="#E6E6E6"/>
<path d="M80.2557 202.322C80.8167 204.374 80.0047 207.24 78.1727 207.741C76.3407 208.242 74.1827 206.189 73.6217 204.137C73.0597 202.085 74.5257 201.608 76.3577 201.106C78.1897 200.604 79.6937 200.27 80.2557 202.322Z" fill="#E6E6E6"/>
<path d="M74.6875 202.707C74.6875 202.707 76.3175 203.58 79.1275 202.383C79.1275 202.383 75.0675 206.311 74.6875 202.707Z" fill="#E6E6E6"/>
<path d="M75.8672 202.064C75.8672 202.064 77.4552 201.479 77.6042 202.159C77.6042 202.159 78.9822 201.827 78.6832 201.28C78.3842 200.734 75.8672 202.064 75.8672 202.064Z" fill="#E6E6E6"/>
<g opacity="0.2">
<path d="M74.6875 202.707C74.6875 202.707 76.3175 203.58 79.1275 202.383C79.1275 202.383 75.0675 206.311 74.6875 202.707Z" fill="#FAFAFA"/>
</g>
<g opacity="0.2">
<path d="M75.8672 202.064C75.8672 202.064 77.4552 201.479 77.6042 202.159C77.6042 202.159 78.9822 201.827 78.6832 201.28C78.3842 200.734 75.8672 202.064 75.8672 202.064Z" fill="#FAFAFA"/>
</g>
<path d="M75.1719 208.973C75.9399 209.825 77.2369 210.098 78.3329 209.76C79.4289 209.422 80.3089 208.538 80.7869 207.495C81.2639 206.452 81.3659 205.266 81.2319 204.127C81.1969 203.832 81.0869 203.099 80.6819 203.057C80.3109 203.018 80.1839 203.55 80.0619 203.81C79.7129 204.557 79.3289 205.266 78.8319 205.927C78.3499 206.567 77.7949 207.152 77.1799 207.665C77.0079 207.808 75.3079 209.123 75.1719 208.973Z" fill="#E6E6E6"/>
<path d="M82.3945 203.35C82.9015 204.131 82.9605 205.182 82.5445 206.015C82.2715 206.562 81.8225 206.999 81.3635 207.403C81.0445 207.684 80.6205 207.974 80.2275 207.811C79.8035 207.635 79.7365 207.072 79.7425 206.613C79.7515 205.907 79.7805 205.2 79.8285 204.495C79.8675 203.917 79.7835 202.976 80.0215 202.448C80.2455 201.951 80.7255 202.134 81.2445 202.37C81.7085 202.582 82.1165 202.921 82.3945 203.35Z" fill="#E6E6E6"/>
<g opacity="0.2">
<path d="M75.4369 207.732C74.7119 207.833 73.9439 207.47 73.5599 206.848C73.2759 206.387 73.0499 205.129 73.6629 204.852C74.1509 205.917 74.5819 206.887 75.4369 207.732Z" fill="#FAFAFA"/>
</g>
<g opacity="0.2">
<path d="M80.2812 206.793C80.9252 206.475 81.3883 205.818 81.4713 205.104C81.5173 204.71 81.0242 202.831 80.6042 203.735C80.4672 204.031 80.6543 204.861 80.6203 205.217C80.5693 205.753 80.4552 206.283 80.2812 206.793Z" fill="#FAFAFA"/>
</g>
<g opacity="0.2">
<path d="M77.8927 208.441C78.4987 208.791 79.3427 208.66 79.8127 208.141C79.8087 208.522 78.7037 209.043 78.3627 209.214C77.4757 209.661 76.9097 209.338 75.9297 209.124C75.9297 209.124 77.4117 209.081 77.8927 208.441Z" fill="#FAFAFA"/>
</g>
<path d="M83.2629 247.062L78.1689 218.663L78.0469 209.766L78.6169 209.758L78.7379 218.615L83.9079 247.501L83.2629 247.062Z" fill="#E0E0E0"/>
<path d="M78.645 218.425L78.262 218.848C77.71 218.349 77.171 217.665 76.546 216.872C75.58 215.647 74.485 214.259 73 213.125L73.346 212.672C74.888 213.85 76.007 215.268 76.994 216.519C77.603 217.291 78.129 217.958 78.645 218.425Z" fill="#E0E0E0"/>
<path d="M78.2923 214.555C79.0113 214.218 79.6003 213.613 79.9183 212.886C80.2793 212.06 80.2863 211.129 80.2883 210.227C79.3623 210.699 78.2223 210.415 77.2283 210.717C76.4353 210.958 75.7713 211.589 75.4913 212.369C75.1283 213.379 75.1013 214.454 75.6463 214.787C76.0933 215.061 77.3303 215.006 78.2923 214.555Z" fill="#E6E6E6"/>
<path d="M74.1631 213.286C73.3621 214.024 72.2251 214.382 71.1461 214.237C70.0671 214.091 69.4901 212.615 68.9141 211.69C69.8031 211.332 72.1741 211.036 72.7151 210.992C73.2561 210.948 73.8391 211.089 74.2071 211.488C74.5751 211.887 74.6461 212.573 74.2701 212.964C74.2391 212.95 74.1631 213.286 74.1631 213.286Z" fill="#E6E6E6"/>
<path d="M69.8096 215.796C70.2946 214.929 71.7296 214.102 72.7226 214.102C73.7156 214.101 74.6566 214.613 75.1446 215.337C75.0016 215.993 74.3836 216.462 73.7336 216.63C73.0826 216.798 72.3976 216.722 71.7306 216.644C71.0636 216.566 70.3776 216.49 69.7266 216.657L69.8096 215.796Z" fill="#E6E6E6"/>
<path d="M85.3564 229.633H79.3774C78.9294 229.624 78.5294 229.912 78.3954 230.34C77.9044 231.891 76.8594 235.97 76.8594 242.395C76.8594 249.454 78.7004 258.824 79.2794 261.592C79.3764 262.058 79.7854 262.393 80.2614 262.397H84.4244C84.9004 262.393 85.3094 262.058 85.4064 261.592C85.9854 258.824 87.8264 249.453 87.8264 242.395C87.8264 235.97 86.7804 231.891 86.2904 230.34C86.1594 229.93 85.7854 229.647 85.3564 229.633Z" fill="#F0F0F0"/>
<path d="M249.998 427.013C357.08 427.013 443.887 421.944 443.887 415.69C443.887 409.437 357.08 404.367 249.998 404.367C142.916 404.367 56.1094 409.437 56.1094 415.69C56.1094 421.944 142.916 427.013 249.998 427.013Z" fill="#F5F5F5"/>
<path d="M120.785 376.77C120.445 376.748 120.18 376.46 120.188 376.116C120.928 346.726 122.444 298.514 122.523 298.25C122.624 297.912 122.98 297.728 123.317 297.82C123.654 297.921 123.848 298.276 123.749 298.614C123.73 298.679 122.199 347.058 121.466 376.149C121.458 376.501 121.164 376.78 120.811 376.772C120.802 376.771 120.794 376.77 120.785 376.77Z" fill="#263238"/>
<path d="M116.837 278.632C117.083 280.896 119.793 288.743 122.057 288.497C124.32 288.251 125.28 280.004 125.034 277.74C124.788 275.477 122.753 273.841 120.49 274.087C118.226 274.334 116.591 276.369 116.837 278.632Z" fill="#407BFF"/>
<path d="M127.821 303.386C127.575 301.122 124.865 293.275 122.601 293.521C120.337 293.767 119.377 302.014 119.623 304.278C119.869 306.541 121.904 308.177 124.167 307.931C126.432 307.685 128.068 305.651 127.821 303.386Z" fill="#407BFF"/>
<path d="M109.951 296.5C112.215 296.254 120.062 293.544 119.816 291.28C119.57 289.017 111.323 288.057 109.06 288.303C106.796 288.549 105.161 290.584 105.407 292.847C105.653 295.111 107.687 296.746 109.951 296.5Z" fill="#407BFF"/>
<path d="M134.707 285.517C132.443 285.763 124.596 288.473 124.842 290.737C125.089 293.001 133.335 293.961 135.599 293.714C137.863 293.468 139.498 291.433 139.252 289.17C139.006 286.907 136.97 285.271 134.707 285.517Z" fill="#407BFF"/>
<path d="M109.688 286.141C111.463 287.568 118.928 291.201 120.355 289.426C121.782 287.651 116.629 281.141 114.855 279.714C113.08 278.288 110.485 278.57 109.058 280.345C107.632 282.119 107.914 284.714 109.688 286.141Z" fill="#407BFF"/>
<path d="M134.968 295.88C133.193 294.453 125.728 290.821 124.301 292.596C122.875 294.37 128.027 300.88 129.802 302.307C131.577 303.733 134.172 303.451 135.598 301.677C137.026 299.902 136.743 297.306 134.968 295.88Z" fill="#407BFF"/>
<path d="M117.462 303.648C118.888 301.873 122.521 294.408 120.746 292.981C118.971 291.554 112.462 296.707 111.035 298.482C109.608 300.257 109.891 302.852 111.666 304.278C113.44 305.705 116.035 305.423 117.462 303.648Z" fill="#407BFF"/>
<path d="M127.2 278.376C125.774 280.151 122.141 287.616 123.916 289.043C125.691 290.469 132.201 285.317 133.627 283.542C135.054 281.767 134.771 279.172 132.996 277.746C131.222 276.319 128.626 276.602 127.2 278.376Z" fill="#407BFF"/>
<g opacity="0.6">
<path d="M116.837 278.632C117.083 280.896 119.793 288.743 122.057 288.497C124.32 288.251 125.28 280.004 125.034 277.74C124.788 275.477 122.753 273.841 120.49 274.087C118.226 274.334 116.591 276.369 116.837 278.632Z" fill="white"/>
<path d="M127.821 303.386C127.575 301.122 124.865 293.275 122.601 293.521C120.337 293.767 119.377 302.014 119.623 304.278C119.869 306.541 121.904 308.177 124.167 307.931C126.432 307.685 128.068 305.651 127.821 303.386Z" fill="white"/>
<path d="M109.951 296.5C112.215 296.254 120.062 293.544 119.816 291.28C119.57 289.017 111.323 288.057 109.06 288.303C106.796 288.549 105.161 290.584 105.407 292.847C105.653 295.111 107.687 296.746 109.951 296.5Z" fill="white"/>
<path d="M134.707 285.517C132.443 285.763 124.596 288.473 124.842 290.737C125.089 293.001 133.335 293.961 135.599 293.714C137.863 293.468 139.498 291.433 139.252 289.17C139.006 286.907 136.97 285.271 134.707 285.517Z" fill="white"/>
<path d="M109.688 286.141C111.463 287.568 118.928 291.201 120.355 289.426C121.782 287.651 116.629 281.141 114.855 279.714C113.08 278.288 110.485 278.57 109.058 280.345C107.632 282.119 107.914 284.714 109.688 286.141Z" fill="white"/>
<path d="M134.968 295.88C133.193 294.453 125.728 290.821 124.301 292.596C122.875 294.37 128.027 300.88 129.802 302.307C131.577 303.733 134.172 303.451 135.598 301.677C137.026 299.902 136.743 297.306 134.968 295.88Z" fill="white"/>
<path d="M117.462 303.648C118.888 301.873 122.521 294.408 120.746 292.981C118.971 291.554 112.462 296.707 111.035 298.482C109.608 300.257 109.891 302.852 111.666 304.278C113.44 305.705 116.035 305.423 117.462 303.648Z" fill="white"/>
<path d="M127.2 278.376C125.774 280.151 122.141 287.616 123.916 289.043C125.691 290.469 132.201 285.317 133.627 283.542C135.054 281.767 134.771 279.172 132.996 277.746C131.222 276.319 128.626 276.602 127.2 278.376Z" fill="white"/>
</g>
<path d="M117.474 291.536C117.765 294.217 120.175 296.154 122.856 295.862C125.537 295.571 127.474 293.161 127.182 290.48C126.89 287.799 124.48 285.862 121.8 286.154C119.119 286.446 117.183 288.855 117.474 291.536Z" fill="#407BFF"/>
<path d="M117.951 355.242C112.317 355.366 102.677 350.161 98.8845 345.081C95.0355 339.926 105.829 343.1 104.71 339.047C103.59 334.994 90.3025 338.031 87.8315 332.228C85.3605 326.425 94.9585 327.733 94.5685 324.764C94.1795 321.795 84.2415 322.428 81.0325 316.261C77.8235 310.094 86.5765 313.528 85.1965 310.973C83.8165 308.417 72.8265 297.676 77.4065 295.417C81.9855 293.158 92.2915 304.348 95.7365 305.591C99.1815 306.833 99.9635 299.08 104.452 302.774C108.941 306.469 105.637 322.68 110.915 324.802C114.846 326.383 113.154 318.969 117.68 320.828C125.604 324.082 120.239 355.192 117.951 355.242Z" fill="#407BFF"/>
<g opacity="0.2">
<path d="M117.951 355.242C112.317 355.366 102.677 350.161 98.8845 345.081C95.0355 339.926 105.829 343.1 104.71 339.047C103.59 334.994 90.3025 338.031 87.8315 332.228C85.3605 326.425 94.9585 327.733 94.5685 324.764C94.1795 321.795 84.2415 322.428 81.0325 316.261C77.8235 310.094 86.5765 313.528 85.1965 310.973C83.8165 308.417 72.8265 297.676 77.4065 295.417C81.9855 293.158 92.2915 304.348 95.7365 305.591C99.1815 306.833 99.9635 299.08 104.452 302.774C108.941 306.469 105.637 322.68 110.915 324.802C114.846 326.383 113.154 318.969 117.68 320.828C125.604 324.082 120.239 355.192 117.951 355.242Z" fill="white"/>
</g>
<path d="M126.047 348.093C126.141 348.251 125.298 349.05 128.08 349.165C134.931 349.447 147.044 348.985 151.593 342.756C158.088 333.863 143.108 334.679 144.565 329.775C146.022 324.871 162.114 328.876 165.255 321.875C168.396 314.874 156.692 316.241 157.234 312.639C157.777 309.037 170.057 313.704 174.104 306.278C178.151 298.852 167.424 302.825 169.162 299.748C170.9 296.672 184.518 283.863 179.001 281.008C173.484 278.153 160.687 291.524 156.467 292.955C152.247 294.385 151.271 281.271 145.724 285.66C140.177 290.049 143.817 309.845 137.348 312.303C132.529 314.134 135.158 307.039 129.212 307.311C121.134 307.682 118.478 335.44 126.047 348.093Z" fill="#407BFF"/>
<g opacity="0.3">
<path d="M126.047 348.093C126.141 348.251 125.298 349.05 128.08 349.165C134.931 349.447 147.044 348.985 151.593 342.756C158.088 333.863 143.108 334.679 144.565 329.775C146.022 324.871 162.114 328.876 165.255 321.875C168.396 314.874 156.692 316.241 157.234 312.639C157.777 309.037 170.057 313.704 174.104 306.278C178.151 298.852 167.424 302.825 169.162 299.748C170.9 296.672 184.518 283.863 179.001 281.008C173.484 278.153 160.687 291.524 156.467 292.955C152.247 294.385 151.271 281.271 145.724 285.66C140.177 290.049 143.817 309.845 137.348 312.303C132.529 314.134 135.158 307.039 129.212 307.311C121.134 307.682 118.478 335.44 126.047 348.093Z" fill="white"/>
</g>
<path d="M120.913 372.331C120.901 372.33 120.889 372.329 120.876 372.328C120.632 372.299 120.458 372.077 120.488 371.832C126.111 325.816 152.618 307.112 152.884 306.929C153.087 306.791 153.364 306.841 153.503 307.044C153.642 307.246 153.591 307.524 153.388 307.663C153.124 307.844 126.943 326.346 121.372 371.94C121.344 372.172 121.143 372.34 120.913 372.331Z" fill="#263238"/>
<path d="M146.85 313.33C146.669 313.323 146.503 313.204 146.444 313.023C146.368 312.789 146.496 312.538 146.73 312.462C146.895 312.408 150.842 311.16 157.309 312.533C157.55 312.584 157.704 312.821 157.653 313.061C157.602 313.302 157.365 313.457 157.125 313.405C150.91 312.087 147.044 313.298 147.006 313.31C146.954 313.325 146.901 313.332 146.85 313.33Z" fill="#263238"/>
<path d="M141.952 318.915C141.716 318.905 141.528 318.713 141.525 318.474C141.388 304.557 149.444 293.684 149.526 293.576C149.673 293.38 149.953 293.34 150.15 293.488C150.347 293.636 150.386 293.915 150.239 294.112C150.159 294.218 142.283 304.861 142.417 318.466C142.419 318.712 142.222 318.913 141.976 318.916C141.968 318.916 141.96 318.915 141.952 318.915Z" fill="#263238"/>
<path d="M134.06 330.693C133.948 330.688 133.837 330.642 133.754 330.553C133.585 330.375 133.593 330.093 133.772 329.923C133.832 329.867 139.796 324.353 147.606 327.151C147.837 327.234 147.959 327.489 147.876 327.721C147.793 327.952 147.537 328.074 147.305 327.99C140.004 325.371 134.439 330.518 134.384 330.571C134.294 330.657 134.176 330.697 134.06 330.693Z" fill="#263238"/>
<path d="M129.935 338.911C129.769 338.904 129.613 338.804 129.544 338.641C129.419 338.349 126.498 331.352 128.108 321.383C128.148 321.141 128.367 320.971 128.619 321.015C128.862 321.054 129.027 321.282 128.988 321.525C127.422 331.225 130.334 338.222 130.364 338.291C130.46 338.517 130.355 338.779 130.129 338.875C130.065 338.902 129.999 338.913 129.935 338.911Z" fill="#263238"/>
<path d="M121.094 388.775C120.863 388.766 120.675 388.578 120.668 388.344L120.09 376.156C118.385 335.631 90.5874 308.068 90.3064 307.795C90.1304 307.623 90.1264 307.341 90.2984 307.165C90.4714 306.989 90.7524 306.986 90.9284 307.157C91.2114 307.433 119.259 335.231 120.98 376.124L121.558 388.317C121.566 388.563 121.373 388.768 121.127 388.777C121.116 388.776 121.105 388.775 121.094 388.775Z" fill="#263238"/>
<path d="M101.773 323.017C101.749 323.016 101.724 323.013 101.7 323.008C101.661 323 101.613 322.981 101.57 322.958L101.426 322.9C97.7866 321.388 93.7206 320.604 89.9786 320.686C89.7286 320.698 89.5286 320.497 89.5236 320.25C89.5176 320.004 89.7126 319.801 89.9586 319.795C93.8226 319.712 98.0166 320.519 101.768 322.077L101.916 322.138C101.943 322.148 101.968 322.16 101.992 322.174C102.167 322.263 102.268 322.461 102.226 322.662C102.181 322.88 101.986 323.026 101.773 323.017Z" fill="#263238"/>
<path d="M105.7 328.234C105.693 328.234 105.685 328.233 105.678 328.232C105.433 328.211 105.252 327.993 105.274 327.749C106.35 315.788 100.156 305.947 100.093 305.849C99.9614 305.642 100.021 305.366 100.228 305.234C100.437 305.102 100.711 305.162 100.843 305.369C100.907 305.469 107.266 315.556 106.161 327.829C106.14 328.067 105.936 328.244 105.7 328.234Z" fill="#263238"/>
<path d="M109.757 335.163C109.649 335.159 109.541 335.114 109.459 335.032C109.414 334.986 104.9 330.531 98.2944 332.291C98.0554 332.356 97.8124 332.212 97.7494 331.975C97.6864 331.737 97.8274 331.493 98.0654 331.43C105.186 329.53 109.897 334.206 110.093 334.406C110.266 334.581 110.264 334.862 110.089 335.036C109.997 335.125 109.877 335.168 109.757 335.163Z" fill="#263238"/>
<path d="M114.911 346.579C114.847 346.576 114.783 346.56 114.723 346.529C114.505 346.415 114.421 346.146 114.535 345.928C114.566 345.868 117.625 339.889 116.928 331.263C116.908 331.018 117.09 330.803 117.336 330.784C117.583 330.754 117.796 330.946 117.816 331.192C118.536 340.088 115.456 346.09 115.325 346.342C115.242 346.498 115.078 346.585 114.911 346.579Z" fill="#263238"/>
<path d="M146.156 390.69C146.156 404.904 139.763 416.432 120.402 416.432C101.924 416.432 94.6484 404.904 94.6484 390.69C94.6484 385.329 96.2954 380.342 99.0984 376.219H141.706C144.509 380.342 146.156 385.329 146.156 390.69Z" fill="#407BFF"/>
<path opacity="0.7" d="M146.156 390.69C146.156 404.904 139.763 416.432 120.402 416.432C101.924 416.432 94.6484 404.904 94.6484 390.69C94.6484 385.329 96.2954 380.342 99.0984 376.219H141.706C144.509 380.342 146.156 385.329 146.156 390.69Z" fill="white"/>
<path d="M294.094 403.857L304.054 402.403L301.539 379.102L291.578 380.556L294.094 403.857Z" fill="#E8BFBF"/>
<path d="M311.716 402.758C312.581 402.694 313.399 402.339 314.036 401.75C314.308 401.407 314.394 400.952 314.266 400.534C314.209 400.272 314.02 400.058 313.766 399.97C312.435 399.495 308.792 402.179 308.385 402.482C308.306 402.546 308.272 402.649 308.297 402.747C308.331 402.841 308.42 402.904 308.52 402.905C309.587 402.953 310.657 402.904 311.716 402.758ZM313.117 400.422C313.267 400.385 313.424 400.39 313.571 400.434C313.676 400.467 313.754 400.554 313.777 400.662C313.859 400.938 313.804 401.237 313.629 401.466C313.117 402.104 311.491 402.464 309.223 402.463C310.404 401.559 311.731 400.864 313.147 400.407L313.117 400.422Z" fill="#407BFF"/>
<path d="M308.574 402.916L308.656 402.878C309.761 402.15 311.754 399.613 311.38 398.517C311.265 398.272 311.057 397.958 310.389 397.995C309.906 398.003 309.448 398.217 309.131 398.582C308.052 399.82 308.266 402.548 308.269 402.659C308.266 402.743 308.303 402.823 308.369 402.874C308.427 402.92 308.503 402.935 308.574 402.916ZM310.249 398.496L310.382 398.434C310.822 398.416 310.873 398.579 310.887 398.634C311.122 399.297 309.801 401.246 308.701 402.146C308.599 400.999 308.866 399.849 309.461 398.863C309.674 398.641 309.962 398.506 310.269 398.486L310.249 398.496Z" fill="#407BFF"/>
<path d="M303.034 398.283L294.201 400.388C293.803 400.47 293.532 400.84 293.575 401.244L293.86 414.025C293.983 414.921 294.809 415.547 295.704 415.424C295.766 415.415 295.828 415.403 295.888 415.388C299.714 414.435 301.52 413.785 306.385 412.663C309.366 411.977 318.813 411.265 322.683 409.541C326.552 407.818 325.045 403.896 323.28 404.266C317.604 405.487 310.311 403.057 306.168 399.358C305.606 399.083 303.64 398.126 303.034 398.283Z" fill="#263238"/>
<path opacity="0.2" d="M301.54 379.102L302.836 391.112L292.877 392.577L291.57 380.569L301.54 379.102Z" fill="black"/>
<path d="M306.859 386.172L288.43 389.613C288.43 389.613 279.481 376.837 277.792 367.764C276.034 358.317 277.913 326.155 277.792 325.728C272.579 308.131 258.417 262.527 251.578 245.747C247.791 236.447 245.133 230.186 245.133 230.186L247.048 229.756L262.091 223.594L273.053 225.66C273.053 225.66 306.366 293.022 309.858 318.363C312.464 337.284 306.859 386.172 306.859 386.172Z" fill="#407BFF"/>
<path opacity="0.3" d="M306.859 386.172L288.43 389.613C288.43 389.613 279.481 376.837 277.792 367.764C276.034 358.317 277.913 326.155 277.792 325.728C272.579 308.131 258.417 262.527 251.578 245.747C247.791 236.447 245.133 230.186 245.133 230.186L247.048 229.756L262.091 223.594L273.053 225.66C273.053 225.66 306.366 293.022 309.858 318.363C312.464 337.284 306.859 386.172 306.859 386.172Z" fill="white"/>
<path opacity="0.2" d="M273.453 310.491C268.24 292.894 257.726 266.199 250.886 249.418L246.355 233.428L245.484 230.352L247.07 233.258L264.924 272.804C272.802 287.946 273.573 310.918 273.453 310.491Z" fill="black"/>
<path d="M192.57 398.374L201.447 402.114L210.921 381.787L202.044 378.047L192.57 398.374Z" fill="#E8BFBF"/>
<path d="M207.228 406.378C207.932 406.818 208.764 407.006 209.589 406.911C209.993 406.8 210.316 406.497 210.454 406.102C210.559 405.867 210.533 405.595 210.387 405.384C209.628 404.265 205.298 404.279 204.813 404.282C204.716 404.287 204.631 404.347 204.595 404.437C204.568 404.529 204.601 404.628 204.678 404.685C205.474 405.326 206.328 405.893 207.228 406.378ZM209.63 405.366C209.766 405.422 209.885 405.514 209.974 405.632C210.036 405.717 210.048 405.829 210.004 405.924C209.911 406.184 209.7 406.383 209.435 406.461C208.679 406.664 207.22 406.023 205.47 404.741C206.893 404.711 208.311 404.924 209.662 405.371L209.63 405.366Z" fill="#407BFF"/>
<path d="M204.715 404.721L204.8 404.738C206.065 404.801 209.037 403.968 209.368 402.91C209.418 402.656 209.434 402.295 208.898 401.947C208.52 401.68 208.046 401.586 207.595 401.689C206.062 402.035 204.685 404.263 204.624 404.35C204.574 404.413 204.558 404.496 204.58 404.573C204.598 404.641 204.649 404.695 204.715 404.721ZM208.506 402.255L208.644 402.282C208.994 402.517 208.942 402.671 208.921 402.722C208.727 403.367 206.606 404.125 205.248 404.198C205.818 403.255 206.673 402.518 207.69 402.093C207.98 402.042 208.279 402.101 208.527 402.259L208.506 402.255Z" fill="#407BFF"/>
<path d="M203.059 398.013L195.049 394.646C194.696 394.485 194.277 394.617 194.082 394.953L187.079 404.982C186.668 405.743 186.951 406.693 187.712 407.105C187.765 407.134 187.819 407.159 187.875 407.181C191.368 408.607 193.129 409.126 197.52 411.01C200.21 412.165 207.907 416.955 211.868 417.811C215.829 418.668 216.883 414.787 215.31 414.075C210.237 411.809 205.979 405.811 204.871 400.614C204.592 400.085 203.615 398.235 203.059 398.013Z" fill="#263238"/>
<path opacity="0.2" d="M211.307 382.026L206.171 392.382L197.383 388.438L202.51 378.078L211.307 382.026Z" fill="black"/>
<path d="M213.155 393.314L195.475 383.889C195.475 383.889 192.085 371.302 195.475 363.273C201.999 347.821 218.972 325.102 219.087 324.674C223.616 306.888 231.561 258.182 234.274 240.265C235.781 230.337 236.666 228.195 236.666 228.195L238.531 228.806L265.584 228.86C265.584 228.86 270.688 269.827 251.128 333.257C246.261 349.039 238.108 362.161 224.693 379.912C219.598 386.652 213.155 393.314 213.155 393.314Z" fill="#407BFF"/>
<path opacity="0.3" d="M213.155 393.314L195.475 383.889C195.475 383.889 192.085 371.302 195.475 363.273C201.999 347.821 218.972 325.102 219.087 324.674C223.616 306.888 231.561 258.182 234.274 240.265C235.781 230.337 236.666 228.195 236.666 228.195L238.531 228.806L265.584 228.86C265.584 228.86 270.688 269.827 251.128 333.257C246.261 349.039 238.108 362.161 224.693 379.912C219.598 386.652 213.155 393.314 213.155 393.314Z" fill="white"/>
<path d="M289.547 195.384C289.745 192.346 291.76 188.433 293.498 186.624C294.056 186.046 296.165 185.166 297.36 184.388C303.234 180.534 314.99 175.727 314.99 175.727L318.618 178.89C318.618 178.89 311.457 185.812 307.197 189.131C306.36 189.783 305.39 190.575 304.368 191.412C302.516 192.958 293.793 198.711 292.128 200.153L289.547 195.384Z" fill="#E8BFBF"/>
<path d="M325.334 173.937L318.624 178.895L314.859 176.123C314.859 176.123 316.395 174.166 317.974 172.65C318.667 171.984 319.041 171.067 319.05 170.106C319.063 168.628 319.286 166.913 320.089 165.655C320.109 165.626 320.119 165.596 320.138 165.576C321.593 163.384 324.994 164.043 325.682 166.579L326.651 170.156C327.032 171.568 326.51 173.069 325.334 173.937Z" fill="#E8BFBF"/>
<path d="M291.698 196.721L289.929 198.343C289.378 197.901 288.504 197.193 287.403 196.279C278.783 189.123 257.173 171.765 265.788 166.811C273.172 162.565 281.014 175.559 284.926 179.461C285.722 180.267 287.904 182.783 289.664 185.939C291.501 189.25 292.868 193.261 291.698 196.721Z" fill="#263238"/>
<path d="M289.659 184.391C286.6 186.627 283.988 189.473 282.023 192.712C283.44 197.409 287.009 201.496 291.51 203.448C293.976 197.725 295.125 191.572 294.636 185.359C293.075 185.023 291.219 184.727 289.659 184.391Z" fill="#263238"/>
<path d="M242.203 165.803C239.119 166.794 235.589 166.001 233.61 168.565C231.631 171.129 231.036 174.513 231.039 177.752C231.043 182.257 232.073 186.69 233.098 191.076C234.34 196.395 235.582 201.713 236.824 207.032C237.673 210.668 236.78 227.574 237.686 227.857C237.686 227.857 265.955 227.303 273.043 226.31C273.043 226.31 273.659 208.931 274.228 203.012C274.354 201.699 276.348 196.123 276.582 194.722C277.686 188.12 275.522 183.464 273.236 177.172C273.236 177.172 268.23 167.093 265.786 166.818C261.435 166.327 250.796 163.042 242.203 165.803Z" fill="#263238"/>
<path d="M241.011 174.142C240.911 173.555 235.894 163.42 231.086 170.504C224.393 180.364 223.942 192.744 223.942 192.744C223.942 192.744 219.829 204.782 222.695 207.411C225.561 210.04 228.652 211.732 230.655 210.241C232.657 208.75 233.956 205.771 233.956 205.771C233.956 205.771 242.769 184.457 241.011 174.142Z" fill="#263238"/>
<path d="M240.688 162.046C238.577 163.693 238.855 167.51 241.182 168.833C240.597 170.877 241.281 173.229 242.871 174.641C244.461 176.053 246.877 176.454 248.838 175.631C247.99 177.15 248.946 179.155 250.409 180.095C251.872 181.035 253.68 181.206 255.403 181.437C257.127 181.668 258.948 182.039 260.199 183.247C261.981 180.683 263.762 178.12 265.544 175.556C266.238 174.558 266.957 173.487 267.011 172.273C267.065 171.058 266.141 169.719 264.929 169.808C266.162 168.523 266.187 166.27 264.983 164.958C263.779 163.646 261.532 163.478 260.147 164.596C260.395 163.569 259.793 162.478 258.926 161.874C258.058 161.27 256.978 161.064 255.926 160.961L240.688 162.046Z" fill="#263238"/>
<path d="M243.898 148.992C245.289 154.095 246.977 163.504 243.602 167.223C243.602 167.223 253.15 171.046 259.936 178.718C263.094 175.65 262.766 172.203 261.799 169.682C261.049 167.729 259.438 166.279 257.512 165.461C253.796 163.882 253.764 160.223 254.382 156.716L243.898 148.992Z" fill="#E8BFBF"/>
<path opacity="0.2" d="M245.969 157.68L249.48 158.633C250.984 159.041 252.556 159.134 254.097 158.907C254.083 159.663 253.947 161.269 254.423 162.116C252.407 163.089 248.996 162.421 247.489 160.645C246.865 159.952 246.309 158.549 245.969 157.68Z" fill="black"/>
<path d="M237.079 144.647C240.796 152.491 242.202 155.888 247.924 158.385C256.545 162.159 265.34 155.858 264.037 147.062C262.866 139.151 256.981 127.651 247.831 127.61C241.293 127.546 235.94 132.793 235.876 139.332C235.859 141.172 236.27 142.992 237.079 144.647Z" fill="#E8BFBF"/>
<path d="M241.161 129.664C238.453 128.399 235.087 129.431 232.832 131.415C230.537 133.434 229.14 136.258 227.801 139.005C227.073 140.498 226.338 142.011 226.001 143.638C225.664 145.265 225.761 147.044 226.621 148.466C227.463 149.86 229.031 150.775 230.652 150.87C231.584 150.924 232.675 151.598 232.977 152.482C233.257 153.303 233.124 154.192 232.993 155.045C232.866 155.871 232.745 156.733 233.004 157.526C233.436 158.846 234.848 159.647 236.23 159.781C237.612 159.915 238.985 159.515 240.316 159.119C241.16 158.868 242.009 159.013 242.665 159.601C242.829 159.748 242.963 159.924 243.065 160.118C243.479 160.905 244.678 160.781 245.023 159.961C246.233 157.086 244.472 152.489 241.849 148.981C240.457 147.119 240.533 147.594 239.986 145.334C239.531 143.454 240.22 141.492 241.062 139.75C242.186 137.427 243.63 135.161 243.184 132.388C242.995 131.215 242.237 130.166 241.161 129.664Z" fill="#263238"/>
<path d="M237.31 152.672C238.543 153.984 240.246 154.753 242.046 154.81C244.434 154.862 245.04 152.584 243.887 150.641C242.846 148.889 240.35 146.759 238.188 147.605C236.026 148.452 235.806 151.037 237.31 152.672Z" fill="#E8BFBF"/>
<path d="M252.016 143.254C252.292 143.941 252.838 144.304 253.27 144.127C253.702 143.95 253.808 143.298 253.569 142.632C253.329 141.966 252.749 141.589 252.315 141.759C251.882 141.928 251.758 142.601 252.016 143.254Z" fill="#263238"/>
<path d="M259.339 140.105C259.608 140.794 260.161 141.155 260.586 140.98C261.011 140.805 261.124 140.151 260.885 139.485C260.646 138.819 260.065 138.442 259.638 138.61C259.212 138.777 259.073 139.453 259.339 140.105Z" fill="#263238"/>
<path d="M259.453 138.729L260.843 137.641C260.843 137.641 260.542 139.19 259.453 138.729Z" fill="#263238"/>
<path d="M257.438 141.57C259.137 143.247 260.415 143.554 262.255 144.706C262.202 146.34 260.664 146.715 260.664 146.715L257.438 141.57Z" fill="#ED847E"/>
<path d="M259.889 149.917C260.206 149.798 260.513 149.653 260.807 149.483C260.903 149.432 260.939 149.312 260.888 149.217C260.886 149.214 260.884 149.211 260.883 149.207C260.826 149.112 260.706 149.075 260.605 149.122C259.054 150.023 257.165 150.123 255.528 149.39C255.426 149.336 255.299 149.374 255.244 149.477C255.189 149.579 255.228 149.707 255.331 149.761C256.767 150.421 258.409 150.477 259.889 149.917Z" fill="#263238"/>
<path d="M251.747 137.812C251.737 137.999 251.608 138.159 251.427 138.209C249.509 138.778 248.658 141.212 248.654 141.232C248.578 141.458 248.334 141.58 248.108 141.504C247.882 141.428 247.76 141.184 247.835 140.958C247.909 140.866 248.838 138.074 251.175 137.376C251.403 137.312 251.641 137.441 251.711 137.668C251.735 137.712 251.747 137.762 251.747 137.812Z" fill="#263238"/>
<path d="M260.593 136.632C260.433 136.73 260.229 136.715 260.085 136.595C258.524 135.343 256.039 136.031 256.021 136.039C255.792 136.106 255.552 135.974 255.486 135.745C255.419 135.516 255.551 135.276 255.78 135.21C255.898 135.218 258.721 134.39 260.627 135.914C260.81 136.065 260.839 136.334 260.693 136.521C260.668 136.565 260.634 136.603 260.593 136.632Z" fill="#263238"/>
<path d="M252.148 141.87L253.539 140.789C253.539 140.789 253.224 142.335 252.148 141.87Z" fill="#263238"/>
<path d="M241.757 128.358C239.573 128.533 237.5 129.776 236.315 131.619C235.52 132.856 235.24 134.736 236.416 135.619C236.966 136.032 237.691 136.107 238.377 136.167C241.421 136.434 245.173 134.083 245.173 134.083C244 129.113 254.427 125.267 259.567 132.966C261.077 135.228 260.669 136.871 263.18 137.916C264.362 138.408 265.92 138.272 266.677 139.305C267.933 141.018 265.519 143.919 267.052 145.39C268.101 146.396 270.479 146.012 270.625 147.458C270.694 148.138 270.249 149.122 270.903 149.321C271.265 149.431 271.598 149.1 271.832 148.803C272.397 148.085 272.979 147.334 273.173 146.442C273.367 145.549 273.049 144.474 272.218 144.096C271.579 143.805 269.89 144.13 270.005 144.822C270.143 145.655 269.428 141.567 269.748 140.022C270.027 138.677 271.312 137.511 270.922 136.193C270.507 134.787 268.836 134.226 267.387 134.011C265.937 133.796 264.292 133.62 263.401 132.456C262.406 131.156 262.858 129.299 262.539 127.693C262.132 125.651 260.429 124.06 258.518 123.232C252.721 120.717 243.753 121.074 241.757 128.358Z" fill="#263238"/>
<path d="M258.225 155.036L238.23 165.081C231.656 168.383 228.682 176.148 231.368 182.998L241.011 207.591C243.697 214.44 251.159 218.121 258.228 216.082L279.73 209.881C287.788 207.558 292.101 198.813 289.04 191.006L277.89 162.569C274.829 154.763 265.718 151.272 258.225 155.036ZM254.921 197.272C250.463 199.017 245.431 196.818 243.683 192.361C241.935 187.904 244.134 182.876 248.592 181.131C253.05 179.386 258.08 181.584 259.828 186.041C261.576 190.498 259.379 195.527 254.921 197.272Z" fill="#D6D6D6"/>
<path d="M258.225 155.036L238.23 165.081C231.656 168.383 228.682 176.148 231.368 182.998L241.011 207.591C243.697 214.44 251.159 218.121 258.228 216.082L279.73 209.881C287.788 207.558 292.101 198.813 289.04 191.006L277.89 162.569C274.829 154.763 265.718 151.272 258.225 155.036ZM254.921 197.272C250.463 199.017 245.431 196.818 243.683 192.361C241.935 187.904 244.134 182.876 248.592 181.131C253.05 179.386 258.08 181.584 259.828 186.041C261.576 190.498 259.379 195.527 254.921 197.272Z" fill="#D6D6D6"/>
<path opacity="0.1" d="M289.044 191.012L277.888 162.576C274.831 154.762 265.719 151.272 258.229 155.037L252.42 157.956L248.518 159.912L238.237 165.082C231.661 168.385 228.683 176.15 231.366 183.001L241.009 207.594C243.702 214.445 251.163 218.121 258.23 216.087L279.737 209.885C281.496 209.374 283.079 208.558 284.445 207.506C285.507 206.7 286.431 205.756 287.207 204.705C290.027 200.91 290.912 195.789 289.044 191.012ZM254.916 197.273C250.463 199.023 245.43 196.821 243.681 192.358C241.931 187.905 244.133 182.873 248.596 181.133C253.048 179.383 258.081 181.585 259.831 186.038C261.571 190.501 259.379 195.524 254.916 197.273Z" fill="white"/>
<path d="M258.433 156.911L239.68 166.331C233.515 169.428 230.726 176.711 233.245 183.136L242.289 206.2C244.808 212.624 251.806 216.076 258.437 214.165L278.603 208.349C286.16 206.17 290.206 197.969 287.335 190.647L276.877 163.976C274.006 156.655 265.46 153.38 258.433 156.911ZM243.684 192.365C241.936 187.908 244.135 182.88 248.593 181.135C253.051 179.39 258.081 181.588 259.829 186.045C261.577 190.502 259.38 195.531 254.922 197.276C250.464 199.021 245.432 196.822 243.684 192.365Z" fill="#D6D6D6"/>
<path opacity="0.1" d="M258.433 156.911L239.68 166.331C233.515 169.428 230.726 176.711 233.245 183.136L242.289 206.2C244.808 212.624 251.806 216.076 258.437 214.165L278.603 208.349C286.16 206.17 290.206 197.969 287.335 190.647L276.877 163.976C274.006 156.655 265.46 153.38 258.433 156.911ZM243.684 192.365C241.936 187.908 244.135 182.88 248.593 181.135C253.051 179.39 258.081 181.588 259.829 186.045C261.577 190.502 259.38 195.531 254.922 197.276C250.464 199.021 245.432 196.822 243.684 192.365Z" fill="#D6D6D6"/>
<path d="M351.612 148.016L351.039 149.063L350.721 149.644L349.816 151.297L350.195 155.528C350.211 155.709 350.19 155.888 350.137 156.053C350.016 156.419 349.738 156.724 349.364 156.871L341.46 159.965C341.087 160.111 340.677 160.078 340.339 159.889C340.23 159.829 340.129 159.754 340.039 159.661L335.572 155.118L335.56 155.105L329.206 157.592L330.127 159.94L323.773 162.427L325.289 166.294L320.611 168.125C320.228 168.275 319.805 168.249 319.45 168.064C319.333 168.006 319.225 167.928 319.127 167.837L316.431 165.301L310.077 167.788L311.593 171.655L304.912 174.27L306.435 178.153C306.684 178.787 306.371 179.503 305.737 179.751L287.44 186.914L279.5 166.666L345.685 140.758L346.72 141.289L350.076 143.012C351.905 143.951 352.6 146.214 351.612 148.016Z" fill="#D6D6D6"/>
<g opacity="0.1">
<path d="M351.612 148.016L351.039 149.063L350.721 149.644L349.816 151.297L350.195 155.528C350.211 155.709 350.19 155.888 350.137 156.053C350.016 156.419 349.738 156.724 349.364 156.871L341.46 159.965C341.087 160.111 340.677 160.078 340.339 159.889C340.23 159.829 340.129 159.754 340.039 159.661L335.572 155.118L335.56 155.105L329.206 157.592L330.127 159.94L323.773 162.427L325.289 166.294L320.611 168.125C320.228 168.275 319.805 168.249 319.45 168.064C319.333 168.006 319.225 167.928 319.127 167.837L316.431 165.301L310.077 167.788L311.593 171.655L304.912 174.27L306.435 178.153C306.684 178.787 306.371 179.503 305.737 179.751L287.44 186.914L279.5 166.666L345.685 140.758L346.72 141.289L350.076 143.012C351.905 143.951 352.6 146.214 351.612 148.016Z" fill="white"/>
</g>
<path d="M351.346 145.713L280.585 173.412L278.523 168.215L345.99 141.805L349.346 143.528C350.624 144.184 351.358 144.793 351.346 145.713Z" fill="#D6D6D6"/>
<path opacity="0.1" d="M351.346 145.713L280.585 173.412L278.523 168.215L345.99 141.805L349.346 143.528C350.624 144.184 351.358 144.793 351.346 145.713Z" fill="black"/>
<path d="M349.953 149.612L349.268 151.15C349.257 151.175 349.252 151.203 349.255 151.23L349.638 155.419C349.652 155.572 349.639 155.724 349.603 155.867C349.591 155.916 349.553 155.955 349.506 155.974L340.913 159.356C340.867 159.374 340.814 159.372 340.771 159.345C340.688 159.293 340.609 159.23 340.539 159.158L335.624 154.22C335.579 154.174 335.511 154.16 335.451 154.184L328.475 156.93C328.392 156.963 328.351 157.056 328.384 157.139L329.214 159.244C329.247 159.327 329.206 159.42 329.123 159.453L323.174 161.795C323.091 161.828 323.051 161.921 323.083 162.004L324.516 165.638C324.549 165.721 324.508 165.814 324.425 165.847L320.06 167.565C320.016 167.583 319.965 167.581 319.923 167.557C319.831 167.504 319.745 167.44 319.666 167.366L316.475 164.425C316.429 164.383 316.364 164.371 316.307 164.394L309.377 167.122C309.294 167.155 309.253 167.248 309.286 167.331L310.754 171.055C310.787 171.138 310.746 171.231 310.663 171.264L284.055 181.735C283.972 181.768 283.879 181.727 283.846 181.645L281.191 174.98C281.158 174.897 281.199 174.803 281.282 174.77L350.618 147.48C350.753 147.427 350.884 147.565 350.824 147.697L349.953 149.612Z" fill="#D6D6D6"/>
<path opacity="0.1" d="M349.953 149.612L349.268 151.15C349.257 151.175 349.252 151.203 349.255 151.23L349.638 155.419C349.652 155.572 349.639 155.724 349.603 155.867C349.591 155.916 349.553 155.955 349.506 155.974L340.913 159.356C340.867 159.374 340.814 159.372 340.771 159.345C340.688 159.293 340.609 159.23 340.539 159.158L335.624 154.22C335.579 154.174 335.511 154.16 335.451 154.184L328.475 156.93C328.392 156.963 328.351 157.056 328.384 157.139L329.214 159.244C329.247 159.327 329.206 159.42 329.123 159.453L323.174 161.795C323.091 161.828 323.051 161.921 323.083 162.004L324.516 165.638C324.549 165.721 324.508 165.814 324.425 165.847L320.06 167.565C320.016 167.583 319.965 167.581 319.923 167.557C319.831 167.504 319.745 167.44 319.666 167.366L316.475 164.425C316.429 164.383 316.364 164.371 316.307 164.394L309.377 167.122C309.294 167.155 309.253 167.248 309.286 167.331L310.754 171.055C310.787 171.138 310.746 171.231 310.663 171.264L284.055 181.735C283.972 181.768 283.879 181.727 283.846 181.645L281.191 174.98C281.158 174.897 281.199 174.803 281.282 174.77L350.618 147.48C350.753 147.427 350.884 147.565 350.824 147.697L349.953 149.612Z" fill="black"/>
<path opacity="0.3" d="M248.066 178.97C242.474 181.159 239.717 187.466 241.909 193.058C244.102 198.65 250.413 201.407 256.005 199.218C261.598 197.029 264.354 190.722 262.162 185.13C259.969 179.538 253.659 176.781 248.066 178.97ZM254.924 197.274C250.466 199.019 245.434 196.82 243.686 192.363C241.938 187.906 244.137 182.878 248.595 181.133C253.053 179.388 258.083 181.586 259.831 186.043C261.579 190.5 259.382 195.529 254.924 197.274Z" fill="white"/>
<path opacity="0.1" d="M287.209 204.701C286.432 205.753 285.508 206.696 284.447 207.502L248.521 159.908L248.492 159.869C248.492 159.869 251.657 158.277 252.374 157.805C252.374 157.844 252.394 157.894 252.423 157.952C253.995 161.323 282.235 197.987 287.209 204.701Z" fill="white"/>
<path opacity="0.1" d="M282.019 209.006C281.793 209.114 271.325 212.299 271.325 212.299L259.658 196.847C262.675 193.888 263.806 189.308 262.164 185.13C259.972 179.537 253.662 176.775 248.069 178.967C247.577 179.154 247.115 179.38 246.673 179.635L236.352 165.962C236.352 165.962 245.425 161.637 246.427 161.008C246.692 162.926 282.019 208.603 282.019 209.006Z" fill="white"/>
<path d="M239.185 133.936C238.016 135.326 237.539 137.272 237.933 139.045C238.327 140.818 239.581 142.379 241.229 143.145C242.083 143.542 243.023 143.732 243.867 144.148C244.712 144.564 245.495 145.297 245.585 146.234C245.684 147.269 244.921 148.236 244.993 149.273C245.059 150.223 245.802 150.977 246.552 151.564C247.302 152.151 248.14 152.705 248.553 153.563C248.966 154.421 248.698 155.692 247.779 155.942C247.585 156.239 247.511 156.947 247.758 157.202C248.005 157.456 248.433 157.51 248.735 157.324C250.146 156.456 251.115 154.819 251.126 153.162C251.137 151.505 250.097 149.888 248.585 149.21C248.313 148.659 248.524 147.96 248.752 147.389C249.21 146.244 249.667 145.099 250.125 143.954C250.305 143.504 250.145 142.685 249.838 142.311C249.531 141.937 249.068 141.733 248.623 141.542L245.675 140.278C244.562 139.801 241.26 135.375 245.18 134.083C244.668 132.946 243.783 132.589 242.556 132.365C241.329 132.141 239.988 132.981 239.185 133.936Z" fill="#263238"/>
<path d="M244.536 129.175C244.438 130.339 244.34 131.502 244.242 132.666C245.219 131.062 247.029 127.953 246.967 128.074C246.199 128.491 245.305 128.757 244.536 129.175Z" fill="#263238"/>
<path d="M245.859 131.087C247.225 129.824 248.59 128.561 249.956 127.299C248.902 126.904 247.626 127.198 246.851 128.015C246.874 127.929 246.242 129.869 245.859 131.087Z" fill="#263238"/>
<path d="M237.529 225.697C232.195 232.315 233.97 237.391 226.609 249.108C235.893 255.99 246.072 257.13 258.726 256.147C260.221 253.498 260.977 250.733 262.473 248.083C264.618 250.744 266.34 252.982 268.484 255.643C275.114 254.604 282.991 252.74 288.234 249.361C283.604 244.051 280.729 237.418 277.764 231.563C276.374 228.818 276.956 227.662 273.268 224.062C261.52 224.604 249.869 224.892 238.121 225.434C238.432 225.451 237.219 225.681 237.529 225.697Z" fill="#263238"/>
<path d="M238.993 224.595L238.257 227.684C238.15 227.927 238.437 228.157 238.832 228.135L271.215 226.702C271.525 226.707 271.772 226.523 271.785 226.335L271.957 223.265C271.96 223.059 271.691 222.885 271.352 222.908L239.534 224.313C239.316 224.303 239.11 224.411 238.993 224.595Z" fill="#407BFF"/>
<path d="M238.993 224.595L238.257 227.684C238.15 227.927 238.437 228.157 238.832 228.135L271.215 226.702C271.525 226.707 271.772 226.523 271.785 226.335L271.957 223.265C271.96 223.059 271.691 222.885 271.352 222.908L239.534 224.313C239.316 224.303 239.11 224.411 238.993 224.595Z" fill="#407BFF"/>
<path d="M246.124 228.14L245.184 228.181C245.005 228.178 244.856 228.101 244.868 227.988L245.121 223.998C245.123 223.885 245.284 223.784 245.472 223.778L246.413 223.727C246.592 223.73 246.741 223.808 246.729 223.93L246.476 227.91C246.465 228.023 246.303 228.134 246.124 228.14Z" fill="#263238"/>
<path d="M269.507 227.13L268.567 227.171C268.388 227.168 268.239 227.09 268.251 226.978L268.504 222.997C268.506 222.875 268.667 222.774 268.846 222.768L269.786 222.727C269.965 222.73 270.114 222.808 270.102 222.92L269.849 226.9C269.847 227.023 269.695 227.124 269.507 227.13Z" fill="#263238"/>
<path d="M250.305 208.716C250.366 209.011 252.881 213.012 254.852 212.735C254.868 212.733 254.885 212.73 254.901 212.728C255.476 212.647 256.049 212.88 256.403 213.34C257.195 214.371 257.673 214.962 258.208 215.639C259.076 216.738 260.583 217.09 261.853 216.5C262.229 216.325 262.601 216.133 262.971 215.937C264.192 215.289 264.815 213.89 264.483 212.548C264.119 211.077 263.553 209.656 262.801 208.341C262.544 207.891 262.249 207.437 261.802 207.177C261.355 206.916 257.016 205.605 255.331 205.658C253.576 205.713 251.911 208.01 250.305 208.716Z" fill="#E8BFBF"/>
<path d="M255.377 205.523C255.377 205.523 228.795 197.474 223.061 202.833C219.69 205.984 221.282 208.959 223.166 210.877C224.568 212.304 227.622 211.953 229.62 211.86L250.559 209.806L255.377 205.523Z" fill="#E8BFBF"/>
<path d="M240.099 201.848C239.955 200.409 238.841 199.214 237.547 198.569C236.253 197.924 234.787 197.733 233.353 197.551C230.013 197.128 226.673 196.704 223.333 196.281C221.637 198.426 220.417 201.372 220.47 204.106C220.523 206.84 221.552 209.545 223.329 211.623C224.927 208.533 227.035 205.352 230.156 203.817C233.278 202.283 236.676 201.228 240.099 201.848Z" fill="#263238"/>
<path opacity="0.1" d="M233.249 153.299C233.219 153.239 233.219 153.209 233.249 153.199C233.459 153.139 233.429 153.179 233.249 153.299Z" fill="white"/>
<path d="M299.289 110.265L306.695 123.997L336.913 98.3366C337.179 98.1106 336.871 97.7016 336.58 97.8936L308.252 116.592L303.885 108.075L299.289 110.265Z" fill="#407BFF"/>
<path d="M346.964 110.328C346.964 122.566 334.117 132.483 318.272 132.483C312.188 132.483 306.555 131.028 301.916 128.522L285.07 135.845L295.704 124C291.871 120.245 289.58 115.498 289.58 110.327C289.58 98.0889 302.427 88.1719 318.272 88.1719C334.117 88.1729 346.964 98.0909 346.964 110.328Z" stroke="white" stroke-opacity="0.22" stroke-width="1.3" stroke-miterlimit="10"/>
</svg>
