<svg width="78" height="78" viewBox="0 0 78 78" fill="none" xmlns="http://www.w3.org/2000/svg">
<rect width="78" height="78" rx="39" fill="black" fill-opacity="0.18"/>
<path d="M52.9375 36.4375H40.5625V24.0625C40.5625 23.5155 40.3452 22.9909 39.9584 22.6041C39.5716 22.2173 39.047 22 38.5 22C37.953 22 37.4284 22.2173 37.0416 22.6041C36.6548 22.9909 36.4375 23.5155 36.4375 24.0625V36.4375H24.0625C23.5155 36.4375 22.9909 36.6548 22.6041 37.0416C22.2173 37.4284 22 37.953 22 38.5C22 39.047 22.2173 39.5716 22.6041 39.9584C22.9909 40.3452 23.5155 40.5625 24.0625 40.5625H36.4375V52.9375C36.4375 53.4845 36.6548 54.0091 37.0416 54.3959C37.4284 54.7827 37.953 55 38.5 55C39.047 55 39.5716 54.7827 39.9584 54.3959C40.3452 54.0091 40.5625 53.4845 40.5625 52.9375V40.5625H52.9375C53.4845 40.5625 54.0091 40.3452 54.3959 39.9584C54.7827 39.5716 55 39.047 55 38.5C55 37.953 54.7827 37.4284 54.3959 37.0416C54.0091 36.6548 53.4845 36.4375 52.9375 36.4375Z" fill="black" fill-opacity="0.41"/>
</svg>
