<svg width="425" height="425" viewBox="0 0 425 425" fill="none" xmlns="http://www.w3.org/2000/svg">
<path d="M56.0084 336.697C59.4883 334.902 63.5853 334.668 67.4485 335.307C69.5242 335.651 71.6875 336.271 73.0993 337.83C74.5112 339.389 74.7789 342.132 73.158 343.472C72.1924 344.269 70.8468 344.39 69.5948 344.376C66.5705 344.34 63.2155 343.808 60.799 345.628C59.4211 346.666 58.5031 348.391 56.855 348.902C55.2425 349.402 53.4235 348.45 52.5684 346.995C51.7133 345.54 51.6853 343.721 52.0839 342.081C52.0839 342.081 52.5038 338.505 56.0084 336.697Z" fill="#EBEBEB"/>
<path d="M48.0322 321.311C50.1598 324.349 54.295 323.343 56.2126 321.488C58.1302 319.634 58.9403 316.945 59.6781 314.381C61.3636 308.524 63.0628 302.379 61.8099 296.414C61.435 294.631 60.7686 292.853 59.5149 291.529C58.262 290.207 56.335 289.42 54.573 289.884C52.4879 290.435 51.1917 292.478 50.2558 294.42C47.5027 300.13 46.0449 306.461 46.0237 312.801C46.0126 315.761 46.362 318.866 48.0322 321.311Z" fill="#EBEBEB"/>
<path d="M42.1919 325.673C44.5022 322.931 44.9408 318.933 43.9123 315.498C42.8838 312.063 40.5616 309.141 37.8858 306.756C34.7476 303.959 31.0586 301.782 27.0933 300.388C25.5327 299.839 23.8863 299.407 22.2398 299.564C20.5934 299.721 18.935 300.563 18.1666 302.028C17.031 304.194 18.1199 306.822 19.298 308.965C21.3728 312.741 23.7452 316.354 26.3861 319.759C28.5111 322.499 30.9447 325.2 34.1823 326.438C37.42 327.676 40.7834 327.531 42.5004 325.285" fill="#EBEBEB"/>
<path d="M47.8912 367.155C47.9312 367.157 47.9958 366.665 48.0833 365.774C48.1811 364.77 48.3043 363.507 48.4497 362.005C48.6256 360.419 48.8568 358.532 49.2971 356.478C49.7366 354.428 50.4234 352.207 51.3065 349.954C52.2203 347.714 53.3355 345.679 54.6377 344.051C55.9314 342.415 57.435 341.232 58.8494 340.55C60.2587 339.854 61.5227 339.57 62.3965 339.446C63.2779 339.355 63.7709 339.286 63.7718 339.247C63.7726 339.208 63.2779 339.201 62.3727 339.225C61.4759 339.285 60.1593 339.512 58.6743 340.188C57.1843 340.848 55.588 342.05 54.2314 343.719C52.8637 345.381 51.7086 347.462 50.7778 349.742C49.8802 352.034 49.2028 354.278 48.7829 356.372C48.3647 358.463 48.1734 360.371 48.0476 361.97C47.9278 363.57 47.8827 364.866 47.8606 365.762C47.8419 366.656 47.8521 367.152 47.8912 367.155Z" fill="#E0E0E0"/>
<path d="M48.1503 364.252C48.1698 364.252 48.1826 364.031 48.1877 363.612C48.186 363.13 48.1851 362.524 48.1826 361.779C48.1783 360.189 48.1792 357.888 48.2642 355.046C48.4053 349.363 48.894 343.247 49.8392 334.624C50.7343 326.516 51.9353 317.08 53.2035 310.945C53.4755 309.55 53.7492 308.294 54.0068 307.194C54.2524 306.092 54.4624 305.143 54.6647 304.374C54.8389 303.651 54.98 303.061 55.0931 302.593C55.1849 302.185 55.224 301.967 55.2053 301.961C55.1866 301.956 55.1101 302.162 54.9826 302.562C54.8432 303.024 54.6672 303.604 54.4505 304.318C54.2142 305.08 53.9728 306.024 53.6965 307.121C53.4084 308.216 53.1066 309.469 52.8091 310.862C51.5545 316.421 50.2268 324.191 49.2723 332.834C48.3254 341.475 47.8987 349.343 47.8613 355.039C47.8273 357.888 47.8876 360.194 47.9607 361.785C48.0066 362.529 48.0432 363.135 48.0729 363.616C48.1044 364.034 48.1307 364.253 48.1503 364.252Z" fill="#E0E0E0"/>
<path d="M48.1895 349.078C48.2294 349.076 48.2227 348.396 48.1759 347.164C48.1054 345.934 47.9362 344.156 47.5902 341.979C47.223 339.806 46.7097 337.227 45.9038 334.423C45.5545 333.141 44.7334 330.071 42.7444 325.484C40.1238 319.267 36.564 314.185 33.4666 311.037C32.7399 310.202 31.9307 309.599 31.2838 309.008C30.9489 308.725 30.6531 308.443 30.3514 308.219C30.0479 308.01 29.7666 307.817 29.5048 307.636C28.4856 306.939 27.9144 306.57 27.8932 306.604C27.8014 306.728 30.1763 308.125 33.1751 311.315C36.1611 314.498 39.6223 319.546 42.2216 325.71C43.6709 329.053 44.6815 332.036 45.3989 334.568C46.2277 337.344 46.7776 339.897 47.1933 342.048C47.5885 344.203 47.8172 345.964 47.9549 347.183C48.0688 348.403 48.1504 349.08 48.1895 349.078Z" fill="#E0E0E0"/>
<path d="M33.5234 375.844L35.0441 396.676H61.8055L63.3261 375.844H33.5234Z" fill="#E0E0E0"/>
<path d="M66.5185 367.633H30.9375V375.844H66.5185V367.633Z" fill="#E0E0E0"/>
<path d="M30.9375 395.883V398.158H32.6095H65.9303V395.883H30.9375Z" fill="#EBEBEB"/>
<path d="M34.2482 402.162L32.6094 398.156H64.6552L62.7436 402.162H34.2482Z" fill="#E0E0E0"/>
<path d="M62.8297 382.653C62.8357 382.658 62.7932 382.723 62.7048 382.844C62.5985 382.985 62.4668 383.16 62.3053 383.375C61.9253 383.861 61.4034 384.529 60.7464 385.37L60.6775 385.458L60.6104 385.365C59.6303 384.011 58.3213 382.2 56.7803 380.068H57.0004C55.8614 381.682 54.5924 383.478 53.2298 385.408L53.1117 385.575L52.9791 385.418C51.5876 383.762 50.0763 381.964 48.5072 380.097L48.7648 380.094C48.6874 380.192 48.6033 380.297 48.5191 380.403C47.1319 382.142 45.7898 383.824 44.5207 385.416L44.3873 385.584L44.264 385.41C42.9066 383.489 41.6384 381.694 40.4917 380.072L40.711 380.082C38.8521 382.2 37.2753 383.997 36.0649 385.376L35.9825 385.47L35.9196 385.364C35.3067 384.335 34.8188 383.514 34.4644 382.92C34.3122 382.655 34.189 382.441 34.0912 382.269C34.0088 382.12 33.9705 382.041 33.9773 382.037C33.9841 382.033 34.0377 382.103 34.1329 382.243C34.2417 382.408 34.3777 382.614 34.546 382.87C34.9174 383.454 35.43 384.26 36.0734 385.269L35.9281 385.258C37.1189 383.862 38.6702 382.044 40.5002 379.899L40.6158 379.764L40.7204 379.909C41.8772 381.524 43.1573 383.311 44.5267 385.223L44.2708 385.217C45.5373 383.623 46.8761 381.937 48.2599 380.196C48.344 380.09 48.4282 379.984 48.5055 379.886L48.633 379.727L48.7639 379.883C50.3288 381.754 51.8358 383.555 53.2239 385.214L52.974 385.224C54.3501 383.305 55.6319 381.517 56.782 379.912L56.8933 379.756L57.0021 379.912C58.5109 382.067 59.7918 383.897 60.7515 385.267L60.6155 385.263C61.2989 384.443 61.842 383.792 62.2373 383.319C62.4132 383.115 62.556 382.95 62.6716 382.816C62.7694 382.703 62.8238 382.648 62.8297 382.653Z" fill="#F5F5F5"/>
<path d="M63.6945 375.706C63.6945 375.797 56.9888 375.872 48.7192 375.872C40.4461 375.872 33.7422 375.797 33.7422 375.706C33.7422 375.614 40.4461 375.539 48.7192 375.539C56.9888 375.539 63.6945 375.614 63.6945 375.706Z" fill="#F5F5F5"/>
<path d="M65.0516 398.378C65.0516 398.469 57.7637 398.544 48.7766 398.544C39.7853 398.544 32.5 398.469 32.5 398.378C32.5 398.286 39.7862 398.211 48.7766 398.211C57.7637 398.212 65.0516 398.286 65.0516 398.378Z" fill="#F5F5F5"/>
<path d="M358.501 47.0703H24.625V246.89H358.501V47.0703Z" fill="#F5F5F5"/>
<path d="M371.777 328.195H296.602V400.926H371.777V328.195Z" fill="#F5F5F5"/>
<path d="M302.43 394.701L323.226 357.273L340.235 381.196L350.571 368.492L365.948 394.701H302.43Z" fill="#E0E0E0"/>
<path d="M347.485 349.996C347.485 352.984 345.062 355.406 342.074 355.406C339.087 355.406 336.664 352.984 336.664 349.996C336.664 347.008 339.086 344.586 342.074 344.586C345.063 344.586 347.485 347.008 347.485 349.996Z" fill="#E0E0E0"/>
<g opacity="0.3">
<path d="M365.949 394.903C365.944 394.897 365.938 394.796 365.932 394.604C365.928 394.386 365.921 394.11 365.915 393.757C365.906 392.983 365.894 391.891 365.879 390.484C365.86 387.6 365.833 383.428 365.799 378.131C365.761 367.508 365.706 352.38 365.641 334.217L365.949 334.524C347.552 334.539 325.745 334.556 302.437 334.575C302.351 334.65 303.109 333.902 302.788 334.227V334.243V334.276V334.341V334.471V334.731V335.25V336.286V338.351C302.788 339.726 302.787 341.094 302.787 342.458C302.786 345.183 302.786 347.883 302.784 350.556C302.781 355.901 302.778 361.133 302.776 366.228C302.764 376.414 302.752 386.044 302.742 394.904L302.43 394.592C321.387 394.658 337.223 394.712 348.355 394.751C353.907 394.785 358.283 394.813 361.309 394.832C362.787 394.847 363.933 394.86 364.745 394.869C365.117 394.876 365.408 394.881 365.635 394.887C365.837 394.891 365.943 394.897 365.949 394.903C365.955 394.909 365.861 394.915 365.671 394.921C365.451 394.925 365.172 394.931 364.814 394.938C364.017 394.947 362.89 394.959 361.439 394.975C358.43 394.995 354.076 395.022 348.556 395.057C337.375 395.095 321.471 395.15 302.43 395.215L302.118 395.216V394.903C302.107 386.044 302.096 376.414 302.084 366.227C302.081 361.133 302.078 355.9 302.075 350.555C302.074 347.882 302.074 345.182 302.073 342.457C302.072 341.094 302.072 339.725 302.072 338.351V336.285L302.071 335.249V334.73V334.47V334.34V334.275V334.243V334.226C301.752 334.541 302.506 333.778 302.436 333.857C325.744 333.876 347.551 333.894 365.948 333.908L366.256 333.908L366.255 334.215C366.19 352.46 366.136 367.654 366.098 378.326C366.064 383.593 366.037 387.741 366.018 390.609C366.003 391.991 365.991 393.063 365.983 393.822C365.975 394.162 365.97 394.428 365.965 394.638C365.961 394.819 365.955 394.909 365.949 394.903Z" fill="#E0E0E0"/>
</g>
<path d="M375.632 67.625H38.0547V259.528H375.632V67.625Z" fill="#E0E0E0"/>
<path d="M414.903 401.276C414.903 401.398 326.181 401.497 216.762 401.497C107.305 401.497 18.6016 401.397 18.6016 401.276C18.6016 401.154 107.305 401.055 216.762 401.055C326.181 401.054 414.903 401.153 414.903 401.276Z" fill="#263238"/>
<path d="M369.326 330.516C371.782 331.547 373.605 333.782 374.537 336.277C375.468 338.772 375.582 341.507 375.315 344.156C374.796 349.282 371.949 354.484 368.867 358.612C364.511 354.902 363.441 348.351 363.107 344.995C362.577 339.688 364.845 329.777 369.326 330.516Z" fill="#5E5CEE"/>
<path d="M373.981 367.004C373.256 364.119 374.422 360.93 376.619 358.925C378.816 356.92 381.909 356.045 384.877 356.237C386.249 356.325 387.736 356.708 388.534 357.827C389.281 358.873 389.216 360.348 388.635 361.494C388.052 362.641 387.032 363.505 385.951 364.201C382.244 366.59 378.22 368.221 373.981 367.004Z" fill="#5E5CEE"/>
<path d="M366.77 369.973C365.535 363.825 361.132 358.402 355.369 355.929C353.901 355.299 352.003 354.927 350.864 356.046C349.724 357.167 350.069 359.082 350.711 360.547C353.38 366.644 360.04 370.751 366.686 370.398" fill="#5E5CEE"/>
<path d="M368.091 383.064C368.068 383.059 368.125 382.679 368.251 381.997C368.377 381.314 368.569 380.329 368.841 379.117C369.393 376.706 370.225 373.33 371.996 369.943C373.771 366.555 376.319 364.047 378.473 362.781C379.545 362.135 380.485 361.745 381.151 361.542C381.479 361.424 381.749 361.378 381.925 361.331C382.103 361.29 382.198 361.274 382.201 361.285C382.232 361.365 380.684 361.655 378.599 362.985C376.514 364.282 374.045 366.765 372.296 370.101C370.549 373.44 369.685 376.78 369.074 379.171C368.791 380.331 368.557 381.293 368.379 382.023C368.215 382.699 368.114 383.069 368.091 383.064Z" fill="#263238"/>
<path d="M368.265 338.219C368.277 338.218 368.295 338.376 368.319 338.678C368.342 339.013 368.373 339.451 368.41 339.996C368.483 341.142 368.568 342.8 368.658 344.85C368.837 348.95 369.007 354.618 369.055 360.88C369.102 367.143 369.019 372.814 368.902 376.917C368.845 378.968 368.785 380.628 368.729 381.774C368.7 382.319 368.676 382.757 368.658 383.093C368.639 383.395 368.623 383.553 368.611 383.552C368.599 383.551 368.592 383.393 368.59 383.09C368.592 382.754 368.595 382.315 368.597 381.769C368.613 380.583 368.635 378.933 368.663 376.912C368.717 372.81 368.763 367.143 368.715 360.882C368.666 354.624 368.534 348.959 368.417 344.858C368.359 342.837 368.312 341.188 368.278 340.001C368.266 339.455 368.257 339.016 368.25 338.68C368.249 338.379 368.253 338.22 368.265 338.219Z" fill="#263238"/>
<path d="M356.329 360.682C356.339 360.66 356.674 360.808 357.275 361.096C357.578 361.234 357.943 361.416 358.342 361.669C358.745 361.917 359.223 362.172 359.697 362.536C359.94 362.711 360.194 362.893 360.456 363.082C360.719 363.275 360.967 363.505 361.238 363.729C361.79 364.165 362.31 364.706 362.872 365.26C363.95 366.412 365.029 367.781 365.97 369.344C366.889 370.92 367.57 372.526 368.062 374.024C368.278 374.783 368.502 375.5 368.62 376.193C368.685 376.538 368.768 376.867 368.811 377.19C368.851 377.511 368.888 377.821 368.925 378.119C369.016 378.709 369.01 379.25 369.034 379.723C369.064 380.195 369.048 380.602 369.024 380.935C368.987 381.599 368.956 381.965 368.932 381.963C368.851 381.961 368.991 380.488 368.686 378.148C368.643 377.855 368.599 377.55 368.552 377.233C368.503 376.915 368.414 376.591 368.344 376.253C368.216 375.571 367.984 374.867 367.764 374.121C367.262 372.648 366.582 371.07 365.676 369.517C364.75 367.977 363.694 366.623 362.643 365.475C362.095 364.922 361.59 364.382 361.052 363.941C360.789 363.717 360.547 363.483 360.292 363.288C360.037 363.095 359.791 362.909 359.555 362.73C357.651 361.339 356.292 360.753 356.329 360.682Z" fill="#263238"/>
<path d="M376.913 401.279H361.304L358.109 378.398H379.891L376.913 401.279Z" fill="#263238"/>
<path d="M378.489 388.948C378.489 389.07 374.271 389.169 369.069 389.169C363.865 389.169 359.648 389.069 359.648 388.948C359.648 388.826 363.865 388.727 369.069 388.727C374.271 388.726 378.489 388.825 378.489 388.948Z" fill="#FAFAFA"/>
<path d="M378.489 390.299C378.489 390.422 374.271 390.52 369.069 390.52C363.865 390.52 359.648 390.421 359.648 390.299C359.648 390.177 363.865 390.078 369.069 390.078C374.271 390.077 378.489 390.177 378.489 390.299Z" fill="#FAFAFA"/>
<path d="M330.299 401.223L211.232 401.276C210.229 401.276 209.416 400.464 209.415 399.461L209.383 327.55C209.382 326.547 210.195 325.734 211.198 325.733L330.265 325.68C331.268 325.679 332.08 326.491 332.081 327.494L332.113 399.407C332.114 400.409 331.302 401.222 330.299 401.223Z" fill="#263238"/>
<path d="M272.025 355.868L282.096 361.283L272.43 367.655L262.764 374.028L262.359 362.241L261.953 350.453L272.025 355.868Z" fill="white"/>
<path d="M323.248 393.684C323.248 393.806 299.747 393.916 270.764 393.928C241.77 393.941 218.273 393.853 218.273 393.73C218.273 393.608 241.77 393.498 270.764 393.486C299.747 393.473 323.248 393.561 323.248 393.684Z" fill="white"/>
<path d="M220.107 393.729C220.107 394.46 219.515 395.052 218.784 395.052C218.053 395.052 217.461 394.461 217.461 393.73C217.461 392.999 218.053 392.406 218.784 392.406C219.515 392.406 220.107 392.998 220.107 393.729Z" fill="white"/>
<path d="M311.7 401.011L185.249 401.068C184.246 401.069 183.433 400.257 183.432 399.254L183.398 322.795C183.398 321.792 184.21 320.98 185.213 320.979L311.664 320.922C312.667 320.921 313.48 321.734 313.481 322.737L313.515 399.195C313.515 400.198 312.702 401.011 311.7 401.011Z" fill="#455A64"/>
<path d="M249.811 352.928L260.489 358.668L250.241 365.424L239.993 372.18L239.563 359.683L239.133 347.188L249.811 352.928Z" fill="white"/>
<path d="M304.121 393.018C304.121 393.14 279.206 393.25 248.478 393.265C217.739 393.278 192.828 393.191 192.828 393.068C192.828 392.946 217.738 392.836 248.477 392.822C279.205 392.808 304.121 392.896 304.121 393.018Z" fill="white"/>
<path d="M194.767 393.067C194.767 393.841 194.139 394.47 193.364 394.47C192.59 394.47 191.961 393.843 191.961 393.067C191.961 392.293 192.588 391.664 193.363 391.664C194.138 391.664 194.766 392.291 194.767 393.067Z" fill="white"/>
<path d="M263.2 401.242L192.195 401.273C191.192 401.273 190.379 400.461 190.378 399.458L190.359 357.137C190.359 356.134 191.171 355.321 192.174 355.321L263.18 355.289C264.183 355.288 264.995 356.101 264.996 357.104L265.015 399.425C265.016 400.428 264.203 401.242 263.2 401.242Z" fill="#5E5CEE"/>
<path d="M228.463 373.653L234.59 376.947L228.709 380.823L222.83 384.7L222.582 377.529L222.336 370.359L228.463 373.653Z" fill="white"/>
<path d="M259.621 396.653C259.621 396.776 245.326 396.881 227.695 396.889C210.058 396.896 195.766 396.804 195.766 396.681C195.766 396.559 210.058 396.453 227.695 396.446C245.326 396.438 259.621 396.531 259.621 396.653Z" fill="white"/>
<path d="M196.882 396.679C196.882 397.124 196.523 397.484 196.078 397.484C195.634 397.484 195.273 397.124 195.273 396.68C195.273 396.235 195.633 395.875 196.078 395.875C196.522 395.874 196.882 396.235 196.882 396.679Z" fill="white"/>
<path d="M385.236 88.7109H50.9922V301.636H385.236V88.7109Z" fill="white"/>
<path d="M385.47 300.823C385.468 299.177 385.398 218.563 385.284 87.898L385.47 88.102C295.807 88.1182 178.812 88.1394 51.2513 88.1624H51.2258L51.4663 87.8972C51.4604 163.256 51.4544 235.26 51.4493 300.822L51.2258 300.576C247.149 300.721 383.436 300.821 385.47 300.823C383.436 300.825 247.15 300.925 51.2258 301.07H51.0014V300.823C50.9963 235.261 50.9903 163.258 50.9844 87.898V87.6328H51.2249H51.2504C178.811 87.6558 295.806 87.677 385.469 87.6932H385.655V87.898C385.541 218.563 385.471 299.179 385.47 300.823Z" fill="#263238"/>
<path d="M385.66 100.662C385.66 100.795 310.745 100.903 218.354 100.903C125.931 100.903 51.0312 100.795 51.0312 100.662C51.0312 100.53 125.931 100.422 218.354 100.422C310.745 100.422 385.66 100.53 385.66 100.662Z" fill="#263238"/>
<path d="M62.0853 92.7692C62.0853 93.9618 61.118 94.9291 59.9255 94.9291C58.7329 94.9291 57.7656 93.9618 57.7656 92.7692C57.7656 91.5767 58.7329 90.6094 59.9255 90.6094C61.1189 90.6094 62.0853 91.5758 62.0853 92.7692Z" fill="#263238"/>
<path d="M68.6713 92.7692C68.6713 93.9618 67.704 94.9291 66.5114 94.9291C65.3189 94.9291 64.3516 93.9618 64.3516 92.7692C64.3516 91.5767 65.3189 90.6094 66.5114 90.6094C67.704 90.6094 68.6713 91.5758 68.6713 92.7692Z" fill="#263238"/>
<path d="M75.2572 92.7692C75.2572 93.9618 74.2899 94.9291 73.0974 94.9291C71.9048 94.9291 70.9375 93.9618 70.9375 92.7692C70.9375 91.5767 71.9048 90.6094 73.0974 90.6094C74.2899 90.6094 75.2572 91.5758 75.2572 92.7692Z" fill="#263238"/>
<path d="M142.343 215.391H73.4141V282.078H142.343V215.391Z" fill="#5E5CEE"/>
<g opacity="0.3">
<path d="M78.7578 276.372L97.8259 242.055L113.422 263.989L122.899 252.341L136.998 276.372H78.7578Z" fill="black"/>
</g>
<g opacity="0.3">
<path d="M120.07 235.382C120.07 238.122 117.849 240.343 115.109 240.343C112.369 240.343 110.148 238.122 110.148 235.382C110.148 232.643 112.369 230.422 115.109 230.422C117.849 230.422 120.07 232.643 120.07 235.382Z" fill="black"/>
</g>
<g opacity="0.3">
<path d="M137 276.554C136.995 276.549 136.99 276.456 136.984 276.28C136.981 276.08 136.975 275.826 136.969 275.502C136.961 274.792 136.95 273.791 136.936 272.501C136.919 269.856 136.894 266.031 136.863 261.175C136.828 251.435 136.778 237.564 136.718 220.91L137 221.191C120.133 221.205 100.137 221.221 78.7659 221.238C78.6868 221.307 79.3821 220.62 79.088 220.919V220.934V220.964V221.023V221.142V221.38V221.855V222.806V224.699C79.088 225.96 79.0872 227.214 79.0872 228.464C79.0863 230.963 79.0863 233.439 79.0846 235.889C79.0821 240.79 79.0795 245.588 79.0761 250.259C79.0651 259.598 79.0549 268.428 79.0447 276.551L78.7582 276.265C96.1407 276.326 110.66 276.376 120.867 276.412C125.957 276.444 129.971 276.469 132.744 276.486C134.1 276.501 135.152 276.512 135.895 276.52C136.236 276.526 136.503 276.531 136.711 276.536C136.898 276.543 136.995 276.548 137 276.554C137.006 276.559 136.92 276.565 136.746 276.57C136.545 276.574 136.289 276.579 135.961 276.586C135.23 276.594 134.197 276.605 132.866 276.619C130.107 276.637 126.115 276.662 121.053 276.694C110.802 276.73 96.2189 276.78 78.7608 276.839L78.4752 276.841V276.553C78.4658 268.43 78.4548 259.599 78.4437 250.261C78.4412 245.59 78.4378 240.792 78.4352 235.89C78.4344 233.44 78.4344 230.964 78.4335 228.466C78.4327 227.216 78.4327 225.961 78.4327 224.701V222.807L78.4318 221.857V221.382V221.144V221.025V220.965V220.936V220.921C78.1394 221.209 78.8305 220.51 78.7667 220.584C100.138 220.601 120.134 220.617 137.001 220.63L137.284 220.63L137.283 220.912C137.224 237.64 137.174 251.572 137.139 261.356C137.107 266.185 137.083 269.989 137.066 272.618C137.051 273.885 137.041 274.869 137.033 275.565C137.027 275.876 137.021 276.12 137.017 276.312C137.011 276.477 137.006 276.559 137 276.554Z" fill="black"/>
</g>
<path d="M198.557 228.078H151.898V230.422H198.557V228.078Z" fill="#5E5CEE"/>
<path d="M214.77 238.147C214.77 238.279 200.758 238.387 183.477 238.387C166.189 238.387 152.18 238.279 152.18 238.147C152.18 238.014 166.189 237.906 183.477 237.906C200.758 237.906 214.77 238.014 214.77 238.147Z" fill="#263238"/>
<path d="M214.77 244.694C214.77 244.826 200.758 244.934 183.477 244.934C166.189 244.934 152.18 244.826 152.18 244.694C152.18 244.561 166.189 244.453 183.477 244.453C200.758 244.453 214.77 244.561 214.77 244.694Z" fill="#263238"/>
<path d="M214.77 251.233C214.77 251.365 200.758 251.473 183.477 251.473C166.189 251.473 152.18 251.365 152.18 251.233C152.18 251.1 166.189 250.992 183.477 250.992C200.758 250.992 214.77 251.1 214.77 251.233Z" fill="#263238"/>
<path d="M214.77 257.78C214.77 257.912 200.758 258.02 183.477 258.02C166.189 258.02 152.18 257.912 152.18 257.78C152.18 257.647 166.189 257.539 183.477 257.539C200.758 257.539 214.77 257.647 214.77 257.78Z" fill="#263238"/>
<path d="M214.77 264.319C214.77 264.451 200.758 264.559 183.477 264.559C166.189 264.559 152.18 264.451 152.18 264.319C152.18 264.186 166.189 264.078 183.477 264.078C200.758 264.078 214.77 264.185 214.77 264.319Z" fill="#263238"/>
<path d="M184.322 270.334C184.322 270.467 177.125 270.575 168.251 270.575C159.374 270.575 152.18 270.467 152.18 270.334C152.18 270.202 159.374 270.094 168.251 270.094C177.126 270.094 184.322 270.202 184.322 270.334Z" fill="#263238"/>
<path d="M349.275 224.133H302.617V226.477H349.275V224.133Z" fill="#5E5CEE"/>
<path d="M365.489 234.202C365.489 234.334 351.477 234.442 334.195 234.442C316.908 234.442 302.898 234.334 302.898 234.202C302.898 234.069 316.908 233.961 334.195 233.961C351.477 233.961 365.489 234.068 365.489 234.202Z" fill="#263238"/>
<path d="M365.489 240.748C365.489 240.881 351.477 240.989 334.195 240.989C316.908 240.989 302.898 240.881 302.898 240.748C302.898 240.616 316.908 240.508 334.195 240.508C351.477 240.508 365.489 240.616 365.489 240.748Z" fill="#263238"/>
<path d="M365.489 247.287C365.489 247.42 351.477 247.528 334.195 247.528C316.908 247.528 302.898 247.42 302.898 247.287C302.898 247.155 316.908 247.047 334.195 247.047C351.477 247.047 365.489 247.155 365.489 247.287Z" fill="#263238"/>
<path d="M365.489 253.834C365.489 253.967 351.477 254.075 334.195 254.075C316.908 254.075 302.898 253.967 302.898 253.834C302.898 253.702 316.908 253.594 334.195 253.594C351.477 253.593 365.489 253.701 365.489 253.834Z" fill="#263238"/>
<path d="M365.489 260.373C365.489 260.506 351.477 260.614 334.195 260.614C316.908 260.614 302.898 260.506 302.898 260.373C302.898 260.241 316.908 260.133 334.195 260.133C351.477 260.133 365.489 260.241 365.489 260.373Z" fill="#263238"/>
<path d="M335.04 266.389C335.04 266.522 327.844 266.63 318.97 266.63C310.093 266.63 302.898 266.522 302.898 266.389C302.898 266.256 310.093 266.148 318.97 266.148C327.844 266.148 335.04 266.256 335.04 266.389Z" fill="#263238"/>
<path d="M292.977 284.335C292.977 284.201 294.011 284.094 295.288 284.094C294.807 284.575 295.154 284.227 295.047 284.334V284.333V284.331V284.327V284.319V284.304V284.274V284.215L295.048 284.097L295.051 283.868C295.056 283.73 295.061 283.589 295.065 283.434C295.077 283.158 295.095 282.909 295.117 282.7C295.16 282.282 295.221 282.023 295.287 282.023C295.353 282.023 295.414 282.282 295.457 282.7C295.479 282.909 295.496 283.158 295.509 283.434C295.514 283.589 295.518 283.731 295.522 283.868L295.526 284.097L295.527 284.215V284.274V284.304V284.319V284.327V284.331V284.333V284.334C295.419 284.442 295.767 284.094 295.286 284.575C294.012 284.575 292.977 284.467 292.977 284.335Z" fill="#263238"/>
<path d="M283.078 284.334C283.078 284.201 284.186 284.094 285.552 284.094C286.918 284.094 288.025 284.202 288.025 284.334C288.025 284.467 286.918 284.575 285.552 284.575C284.186 284.575 283.078 284.467 283.078 284.334Z" fill="#263238"/>
<path d="M273.188 284.334C273.188 284.201 274.295 284.094 275.661 284.094C277.027 284.094 278.135 284.202 278.135 284.334C278.135 284.467 277.027 284.575 275.661 284.575C274.295 284.575 273.188 284.467 273.188 284.334Z" fill="#263238"/>
<path d="M263.297 284.334C263.297 284.201 264.404 284.094 265.77 284.094C267.136 284.094 268.244 284.202 268.244 284.334C268.244 284.467 267.137 284.575 265.77 284.575C264.404 284.575 263.297 284.467 263.297 284.334Z" fill="#263238"/>
<path d="M253.398 284.334C253.398 284.201 254.506 284.094 255.872 284.094C257.238 284.094 258.345 284.202 258.345 284.334C258.345 284.467 257.238 284.575 255.872 284.575C254.506 284.575 253.398 284.467 253.398 284.334Z" fill="#263238"/>
<path d="M243.508 284.334C243.508 284.201 244.615 284.094 245.981 284.094C247.347 284.094 248.455 284.202 248.455 284.334C248.455 284.467 247.347 284.575 245.981 284.575C244.615 284.575 243.508 284.467 243.508 284.334Z" fill="#263238"/>
<path d="M233.617 284.334C233.617 284.201 234.725 284.094 236.091 284.094C237.457 284.094 238.564 284.202 238.564 284.334C238.564 284.467 237.457 284.575 236.091 284.575C234.725 284.575 233.617 284.467 233.617 284.334Z" fill="#263238"/>
<path d="M226.358 282.023C226.49 282.023 226.598 283.058 226.598 284.335C226.117 283.854 226.466 284.201 226.359 284.094H226.359H226.361H226.365H226.372H226.388H226.417H226.477L226.594 284.095L226.824 284.098C226.961 284.103 227.102 284.107 227.257 284.113C227.533 284.125 227.782 284.142 227.991 284.165C228.41 284.208 228.668 284.268 228.668 284.335C228.668 284.401 228.41 284.461 227.991 284.505C227.782 284.527 227.533 284.544 227.257 284.556C227.102 284.562 226.96 284.566 226.824 284.571L226.594 284.574L226.477 284.575H226.417H226.388H226.372H226.365H226.361H226.359H226.359C226.251 284.468 226.598 284.816 226.117 284.335C226.117 283.058 226.225 282.023 226.358 282.023Z" fill="#263238"/>
<path d="M226.358 272.469C226.49 272.469 226.598 273.537 226.598 274.856C226.598 276.174 226.49 277.243 226.358 277.243C226.225 277.243 226.117 276.175 226.117 274.856C226.117 273.537 226.225 272.469 226.358 272.469Z" fill="#263238"/>
<path d="M226.358 262.922C226.49 262.922 226.598 263.99 226.598 265.309C226.598 266.627 226.49 267.696 226.358 267.696C226.225 267.696 226.117 266.628 226.117 265.309C226.117 263.99 226.225 262.922 226.358 262.922Z" fill="#263238"/>
<path d="M226.358 253.375C226.49 253.375 226.598 254.444 226.598 255.762C226.598 257.08 226.49 258.149 226.358 258.149C226.225 258.149 226.117 257.081 226.117 255.762C226.117 254.444 226.225 253.375 226.358 253.375Z" fill="#263238"/>
<path d="M226.358 243.828C226.49 243.828 226.598 244.897 226.598 246.215C226.598 247.533 226.49 248.603 226.358 248.603C226.225 248.603 226.117 247.534 226.117 246.215C226.117 244.897 226.225 243.828 226.358 243.828Z" fill="#263238"/>
<path d="M226.358 234.281C226.49 234.281 226.598 235.35 226.598 236.668C226.598 237.986 226.49 239.056 226.358 239.056C226.225 239.056 226.117 237.987 226.117 236.668C226.117 235.35 226.225 234.281 226.358 234.281Z" fill="#263238"/>
<path d="M226.358 224.727C226.49 224.727 226.598 225.795 226.598 227.113C226.598 228.432 226.49 229.501 226.358 229.501C226.225 229.501 226.117 228.433 226.117 227.113C226.117 225.796 226.225 224.727 226.358 224.727Z" fill="#263238"/>
<path d="M228.668 217.647C228.668 217.779 227.634 217.887 226.357 217.887C226.838 217.406 226.49 217.755 226.597 217.648V217.649V217.65V217.654V217.661V217.677V217.706V217.766L226.596 217.883L226.593 218.113C226.589 218.249 226.584 218.391 226.579 218.546C226.567 218.822 226.549 219.071 226.527 219.28C226.483 219.699 226.423 219.957 226.357 219.957C226.291 219.957 226.23 219.699 226.187 219.28C226.165 219.071 226.148 218.822 226.135 218.546C226.13 218.391 226.126 218.249 226.12 218.113L226.117 217.883L226.116 217.766V217.706V217.677V217.661V217.654V217.65V217.649V217.648C226.223 217.54 225.876 217.887 226.357 217.406C227.634 217.406 228.668 217.513 228.668 217.647Z" fill="#263238"/>
<path d="M238.564 217.647C238.564 217.779 237.457 217.887 236.091 217.887C234.725 217.887 233.617 217.779 233.617 217.647C233.617 217.514 234.724 217.406 236.091 217.406C237.457 217.406 238.564 217.513 238.564 217.647Z" fill="#263238"/>
<path d="M248.455 217.647C248.455 217.779 247.347 217.887 245.981 217.887C244.615 217.887 243.508 217.779 243.508 217.647C243.508 217.514 244.615 217.406 245.981 217.406C247.347 217.406 248.455 217.513 248.455 217.647Z" fill="#263238"/>
<path d="M258.345 217.647C258.345 217.779 257.238 217.887 255.872 217.887C254.506 217.887 253.398 217.779 253.398 217.647C253.398 217.514 254.506 217.406 255.872 217.406C257.238 217.406 258.345 217.513 258.345 217.647Z" fill="#263238"/>
<path d="M268.244 217.647C268.244 217.779 267.136 217.887 265.77 217.887C264.404 217.887 263.297 217.779 263.297 217.647C263.297 217.514 264.404 217.406 265.77 217.406C267.136 217.406 268.244 217.513 268.244 217.647Z" fill="#263238"/>
<path d="M278.135 217.647C278.135 217.779 277.027 217.887 275.661 217.887C274.295 217.887 273.188 217.779 273.188 217.647C273.188 217.514 274.295 217.406 275.661 217.406C277.027 217.406 278.135 217.513 278.135 217.647Z" fill="#263238"/>
<path d="M288.025 217.647C288.025 217.779 286.918 217.887 285.552 217.887C284.186 217.887 283.078 217.779 283.078 217.647C283.078 217.514 284.186 217.406 285.552 217.406C286.918 217.406 288.025 217.513 288.025 217.647Z" fill="#263238"/>
<path d="M295.288 219.955C295.155 219.955 295.047 218.921 295.047 217.645C295.528 218.126 295.18 217.778 295.287 217.886H295.284H295.28H295.272H295.257H295.227H295.168L295.051 217.885L294.821 217.881C294.684 217.877 294.542 217.873 294.388 217.868C294.111 217.856 293.862 217.838 293.653 217.816C293.235 217.772 292.977 217.712 292.977 217.646C292.977 217.58 293.235 217.519 293.653 217.476C293.862 217.454 294.111 217.437 294.388 217.424C294.542 217.419 294.684 217.415 294.821 217.41L295.051 217.406L295.168 217.405H295.227H295.257H295.272H295.28H295.284H295.286C295.394 217.512 295.047 217.165 295.528 217.646C295.528 218.92 295.421 219.955 295.288 219.955Z" fill="#263238"/>
<path d="M295.287 229.501C295.155 229.501 295.047 228.433 295.047 227.114C295.047 225.796 295.155 224.727 295.287 224.727C295.42 224.727 295.528 225.795 295.528 227.114C295.528 228.433 295.421 229.501 295.287 229.501Z" fill="#263238"/>
<path d="M295.287 239.056C295.155 239.056 295.047 237.987 295.047 236.669C295.047 235.351 295.155 234.281 295.287 234.281C295.42 234.281 295.528 235.35 295.528 236.669C295.528 237.986 295.421 239.056 295.287 239.056Z" fill="#263238"/>
<path d="M295.287 248.603C295.155 248.603 295.047 247.533 295.047 246.216C295.047 244.897 295.155 243.828 295.287 243.828C295.42 243.828 295.528 244.897 295.528 246.216C295.528 247.533 295.421 248.603 295.287 248.603Z" fill="#263238"/>
<path d="M295.287 258.149C295.155 258.149 295.047 257.081 295.047 255.763C295.047 254.444 295.155 253.375 295.287 253.375C295.42 253.375 295.528 254.443 295.528 255.763C295.528 257.081 295.421 258.149 295.287 258.149Z" fill="#263238"/>
<path d="M295.287 267.696C295.155 267.696 295.047 266.628 295.047 265.31C295.047 263.991 295.155 262.922 295.287 262.922C295.42 262.922 295.528 263.99 295.528 265.31C295.528 266.627 295.421 267.696 295.287 267.696Z" fill="#263238"/>
<path d="M295.287 277.243C295.155 277.243 295.047 276.174 295.047 274.856C295.047 273.538 295.155 272.469 295.287 272.469C295.42 272.469 295.528 273.537 295.528 274.856C295.528 276.174 295.421 277.243 295.287 277.243Z" fill="#263238"/>
<path d="M274.138 154.145C274.138 154.145 274.126 153.972 274.119 153.651C274.115 153.311 274.108 152.843 274.099 152.241C274.089 150.989 274.075 149.185 274.055 146.882C274.033 142.247 274.002 135.606 273.963 127.483L274.137 127.657C262.382 127.669 247.27 127.686 230.834 127.704C230.783 127.752 231.249 127.286 231.053 127.487V127.493V127.507V127.535V127.59V127.701V127.922V128.364V129.246C231.053 129.833 231.053 130.419 231.053 131.002C231.053 132.169 231.052 133.329 231.052 134.48C231.051 136.781 231.05 139.051 231.049 141.281C231.044 145.74 231.04 150.044 231.037 154.144L230.832 153.939C243.505 153.98 254.301 154.015 261.954 154.04C265.77 154.064 268.801 154.082 270.902 154.095C271.93 154.106 272.73 154.114 273.296 154.12C273.556 154.125 273.76 154.129 273.918 154.132C274.059 154.138 274.133 154.141 274.138 154.145C274.142 154.149 274.076 154.154 273.943 154.157C273.79 154.16 273.594 154.164 273.344 154.169C272.788 154.175 272.002 154.183 270.992 154.194C268.901 154.206 265.886 154.225 262.089 154.249C254.403 154.274 243.561 154.308 230.833 154.349L230.628 154.35V154.144C230.624 150.043 230.62 145.74 230.616 141.281C230.615 139.051 230.613 136.782 230.613 134.48C230.613 133.329 230.612 132.169 230.612 131.002C230.612 130.418 230.612 129.833 230.612 129.246V128.364V127.922V127.701V127.59V127.535V127.507V127.493V127.487C230.414 127.681 230.881 127.213 230.836 127.261C247.272 127.279 262.384 127.296 274.138 127.31H274.313L274.312 127.483C274.274 135.652 274.242 142.329 274.22 146.989C274.201 149.276 274.187 151.066 274.176 152.309C274.167 152.897 274.161 153.355 274.156 153.687C274.149 153.996 274.138 154.145 274.138 154.145Z" fill="#5E5CEE"/>
<path d="M252.749 138.6L256.304 140.512L252.891 142.76L249.478 145.008L249.337 140.847L249.195 136.688L252.749 138.6Z" fill="#5E5CEE"/>
<path d="M271.011 151.479C271.011 151.601 262.716 151.7 252.487 151.7C242.254 151.7 233.961 151.6 233.961 151.479C233.961 151.356 242.254 151.258 252.487 151.258C262.716 151.258 271.011 151.357 271.011 151.479Z" fill="#5E5CEE"/>
<path d="M234.139 151.949C234.396 151.949 234.605 151.74 234.605 151.482C234.605 151.225 234.396 151.016 234.139 151.016C233.881 151.016 233.672 151.225 233.672 151.482C233.672 151.74 233.881 151.949 234.139 151.949Z" fill="#5E5CEE"/>
<path d="M330.525 130.602H283.867V132.946H330.525V130.602Z" fill="#5E5CEE"/>
<path d="M346.747 140.67C346.747 140.803 332.735 140.911 315.453 140.911C298.166 140.911 284.156 140.803 284.156 140.67C284.156 140.538 298.166 140.43 315.453 140.43C332.734 140.43 346.747 140.538 346.747 140.67Z" fill="#263238"/>
<path d="M346.747 147.217C346.747 147.351 332.735 147.458 315.453 147.458C298.166 147.458 284.156 147.35 284.156 147.217C284.156 147.085 298.166 146.977 315.453 146.977C332.734 146.976 346.747 147.084 346.747 147.217Z" fill="#263238"/>
<path d="M274.138 193.318C274.138 193.318 274.126 193.144 274.119 192.824C274.115 192.484 274.108 192.016 274.099 191.414C274.089 190.162 274.075 188.358 274.055 186.055C274.033 181.42 274.002 174.779 273.963 166.657L274.137 166.83C262.382 166.843 247.27 166.86 230.834 166.878C230.783 166.925 231.249 166.46 231.053 166.66V166.667V166.681V166.709V166.764V166.874V167.095V167.537V168.42C231.053 169.007 231.053 169.593 231.053 170.176C231.053 171.343 231.052 172.502 231.052 173.653C231.051 175.956 231.05 178.224 231.049 180.455C231.044 184.914 231.04 189.217 231.037 193.319L230.832 193.114C243.505 193.155 254.301 193.19 261.954 193.214C265.77 193.238 268.801 193.257 270.902 193.269C271.93 193.28 272.73 193.288 273.296 193.294C273.556 193.299 273.76 193.303 273.918 193.306C274.059 193.309 274.133 193.314 274.138 193.318C274.142 193.322 274.076 193.326 273.943 193.33C273.79 193.333 273.594 193.337 273.344 193.342C272.788 193.348 272.002 193.356 270.992 193.366C268.901 193.379 265.886 193.398 262.089 193.422C254.403 193.446 243.561 193.481 230.833 193.522L230.628 193.523V193.317C230.624 189.217 230.62 184.913 230.616 180.453C230.615 178.223 230.613 175.954 230.613 173.651C230.613 172.501 230.612 171.341 230.612 170.174C230.612 169.591 230.612 169.005 230.612 168.418V167.536V167.094V166.873V166.762V166.707V166.679V166.665V166.658C230.414 166.853 230.881 166.385 230.836 166.433C247.272 166.451 262.384 166.468 274.138 166.482H274.313L274.312 166.655C274.274 174.824 274.242 181.501 274.22 186.162C274.201 188.448 274.187 190.238 274.176 191.482C274.167 192.07 274.161 192.528 274.156 192.861C274.149 193.168 274.138 193.318 274.138 193.318Z" fill="#5E5CEE"/>
<path d="M252.749 177.772L256.304 179.684L252.891 181.933L249.478 184.18L249.337 180.019L249.195 175.859L252.749 177.772Z" fill="#5E5CEE"/>
<path d="M271.011 190.651C271.011 190.773 262.716 190.872 252.487 190.872C242.254 190.872 233.961 190.772 233.961 190.651C233.961 190.529 242.254 190.43 252.487 190.43C262.716 190.43 271.011 190.528 271.011 190.651Z" fill="#5E5CEE"/>
<path d="M234.139 191.121C234.396 191.121 234.605 190.912 234.605 190.654C234.605 190.396 234.396 190.188 234.139 190.188C233.881 190.188 233.672 190.396 233.672 190.654C233.672 190.912 233.881 191.121 234.139 191.121Z" fill="#5E5CEE"/>
<path d="M330.525 169.773H283.867V172.118H330.525V169.773Z" fill="#5E5CEE"/>
<path d="M346.747 179.842C346.747 179.975 332.735 180.083 315.453 180.083C298.166 180.083 284.156 179.975 284.156 179.842C284.156 179.71 298.166 179.602 315.453 179.602C332.734 179.602 346.747 179.709 346.747 179.842Z" fill="#263238"/>
<path d="M346.747 186.389C346.747 186.522 332.735 186.63 315.453 186.63C298.166 186.63 284.156 186.522 284.156 186.389C284.156 186.256 298.166 186.148 315.453 186.148C332.734 186.148 346.747 186.256 346.747 186.389Z" fill="#263238"/>
<path d="M208.047 202.702C208.047 202.58 208.998 202.481 210.172 202.481C209.73 202.923 210.049 202.604 209.951 202.701V202.699V202.695V202.689V202.675V202.648V202.593L209.952 202.486L209.955 202.275C209.959 202.148 209.964 202.018 209.968 201.876C209.979 201.622 209.995 201.393 210.015 201.2C210.055 200.816 210.111 200.578 210.172 200.578C210.233 200.578 210.288 200.816 210.328 201.2C210.349 201.392 210.365 201.622 210.376 201.876C210.38 202.018 210.384 202.149 210.389 202.275L210.392 202.486L210.393 202.593V202.648V202.675V202.689V202.695V202.699V202.701C210.294 202.799 210.614 202.481 210.172 202.923C208.999 202.924 208.047 202.825 208.047 202.702Z" fill="#E0E0E0"/>
<path d="M199.57 202.705C199.57 202.583 200.52 202.484 201.69 202.484C202.861 202.484 203.81 202.584 203.81 202.705C203.81 202.828 202.862 202.926 201.69 202.926C200.519 202.927 199.57 202.828 199.57 202.705Z" fill="#E0E0E0"/>
<path d="M191.094 202.705C191.094 202.583 192.043 202.484 193.213 202.484C194.383 202.484 195.333 202.584 195.333 202.705C195.333 202.828 194.384 202.926 193.213 202.926C192.043 202.927 191.094 202.828 191.094 202.705Z" fill="#E0E0E0"/>
<path d="M182.609 202.705C182.609 202.583 183.559 202.484 184.728 202.484C185.9 202.484 186.848 202.584 186.848 202.705C186.848 202.828 185.9 202.926 184.728 202.926C183.558 202.927 182.609 202.828 182.609 202.705Z" fill="#E0E0E0"/>
<path d="M174.133 202.705C174.133 202.583 175.082 202.484 176.253 202.484C177.423 202.484 178.373 202.584 178.373 202.705C178.373 202.828 177.424 202.926 176.253 202.926C175.082 202.927 174.133 202.828 174.133 202.705Z" fill="#E0E0E0"/>
<path d="M165.656 202.705C165.656 202.583 166.606 202.484 167.775 202.484C168.947 202.484 169.895 202.584 169.895 202.705C169.895 202.828 168.947 202.926 167.775 202.926C166.606 202.927 165.656 202.828 165.656 202.705Z" fill="#E0E0E0"/>
<path d="M157.18 202.705C157.18 202.583 158.129 202.484 159.299 202.484C160.469 202.484 161.419 202.584 161.419 202.705C161.419 202.828 160.47 202.926 159.299 202.926C158.128 202.927 157.18 202.828 157.18 202.705Z" fill="#E0E0E0"/>
<path d="M148.695 202.705C148.695 202.583 149.645 202.484 150.815 202.484C151.986 202.484 152.935 202.584 152.935 202.705C152.935 202.828 151.987 202.926 150.815 202.926C149.645 202.927 148.695 202.828 148.695 202.705Z" fill="#E0E0E0"/>
<path d="M140.219 202.705C140.219 202.583 141.168 202.484 142.338 202.484C143.509 202.484 144.458 202.584 144.458 202.705C144.458 202.828 143.509 202.926 142.338 202.926C141.167 202.927 140.219 202.828 140.219 202.705Z" fill="#E0E0E0"/>
<path d="M131.742 202.705C131.742 202.583 132.692 202.484 133.861 202.484C135.033 202.484 135.981 202.584 135.981 202.705C135.981 202.828 135.033 202.926 133.861 202.926C132.692 202.927 131.742 202.828 131.742 202.705Z" fill="#E0E0E0"/>
<path d="M123.266 202.705C123.266 202.583 124.215 202.484 125.386 202.484C126.556 202.484 127.505 202.584 127.505 202.705C127.505 202.828 126.557 202.926 125.386 202.926C124.214 202.927 123.266 202.828 123.266 202.705Z" fill="#E0E0E0"/>
<path d="M114.789 202.705C114.789 202.583 115.739 202.484 116.908 202.484C118.079 202.484 119.028 202.584 119.028 202.705C119.028 202.828 118.079 202.926 116.908 202.926C115.739 202.927 114.789 202.828 114.789 202.705Z" fill="#E0E0E0"/>
<path d="M106.305 202.705C106.305 202.583 107.254 202.484 108.425 202.484C109.595 202.484 110.544 202.584 110.544 202.705C110.544 202.828 109.596 202.926 108.425 202.926C107.254 202.927 106.305 202.828 106.305 202.705Z" fill="#E0E0E0"/>
<path d="M97.8281 202.705C97.8281 202.583 98.7776 202.484 99.948 202.484C101.118 202.484 102.068 202.584 102.068 202.705C102.068 202.828 101.119 202.926 99.948 202.926C98.7767 202.927 97.8281 202.828 97.8281 202.705Z" fill="#E0E0E0"/>
<path d="M89.3516 202.705C89.3516 202.583 90.301 202.484 91.4706 202.484C92.6411 202.484 93.5905 202.584 93.5905 202.705C93.5905 202.828 92.6419 202.926 91.4706 202.926C90.301 202.927 89.3516 202.828 89.3516 202.705Z" fill="#E0E0E0"/>
<path d="M80.875 202.705C80.875 202.583 81.8244 202.484 82.994 202.484C84.1653 202.484 85.1139 202.584 85.1139 202.705C85.1139 202.828 84.1653 202.926 82.994 202.926C81.8236 202.927 80.875 202.828 80.875 202.705Z" fill="#E0E0E0"/>
<path d="M74.5101 200.578C74.6325 200.578 74.7311 201.529 74.7311 202.703C74.2891 202.261 74.6087 202.581 74.5109 202.482H74.5135H74.5169H74.5237H74.5373H74.5645H74.6189L74.7268 202.483L74.9376 202.486C75.0643 202.491 75.1943 202.495 75.3363 202.499C75.5904 202.51 75.8191 202.526 76.012 202.547C76.3962 202.587 76.6342 202.642 76.6342 202.703C76.6342 202.764 76.3962 202.82 76.012 202.86C75.8199 202.879 75.5913 202.896 75.3363 202.907C75.1943 202.911 75.0634 202.916 74.9376 202.92L74.7268 202.923L74.6189 202.924H74.5645H74.5373H74.5237H74.5169H74.5135H74.5118C74.4132 202.826 74.7311 203.145 74.2891 202.703C74.2891 201.53 74.3885 200.578 74.5101 200.578Z" fill="#E0E0E0"/>
<path d="M74.5101 192.234C74.6325 192.234 74.7311 193.169 74.7311 194.32C74.7311 195.473 74.6316 196.406 74.5101 196.406C74.3877 196.406 74.2891 195.472 74.2891 194.32C74.2891 193.169 74.3885 192.234 74.5101 192.234Z" fill="#E0E0E0"/>
<path d="M74.5101 183.891C74.6325 183.891 74.7311 184.825 74.7311 185.977C74.7311 187.129 74.6316 188.062 74.5101 188.062C74.3877 188.062 74.2891 187.128 74.2891 185.977C74.2891 184.825 74.3885 183.891 74.5101 183.891Z" fill="#E0E0E0"/>
<path d="M74.5101 175.547C74.6325 175.547 74.7311 176.481 74.7311 177.633C74.7311 178.785 74.6316 179.719 74.5101 179.719C74.3877 179.719 74.2891 178.785 74.2891 177.633C74.2891 176.481 74.3885 175.547 74.5101 175.547Z" fill="#E0E0E0"/>
<path d="M74.5101 167.203C74.6325 167.203 74.7311 168.137 74.7311 169.289C74.7311 170.442 74.6316 171.375 74.5101 171.375C74.3877 171.375 74.2891 170.441 74.2891 169.289C74.2891 168.137 74.3885 167.203 74.5101 167.203Z" fill="#E0E0E0"/>
<path d="M74.5101 158.859C74.6325 158.859 74.7311 159.794 74.7311 160.945C74.7311 162.098 74.6316 163.032 74.5101 163.032C74.3877 163.032 74.2891 162.098 74.2891 160.945C74.2891 159.793 74.3885 158.859 74.5101 158.859Z" fill="#E0E0E0"/>
<path d="M74.5101 150.508C74.6325 150.508 74.7311 151.442 74.7311 152.594C74.7311 153.746 74.6316 154.68 74.5101 154.68C74.3877 154.68 74.2891 153.745 74.2891 152.594C74.2891 151.442 74.3885 150.508 74.5101 150.508Z" fill="#E0E0E0"/>
<path d="M74.5101 142.164C74.6325 142.164 74.7311 143.098 74.7311 144.25C74.7311 145.403 74.6316 146.336 74.5101 146.336C74.3877 146.336 74.2891 145.402 74.2891 144.25C74.2891 143.098 74.3885 142.164 74.5101 142.164Z" fill="#E0E0E0"/>
<path d="M74.5101 133.82C74.6325 133.82 74.7311 134.754 74.7311 135.906C74.7311 137.059 74.6316 137.992 74.5101 137.992C74.3877 137.992 74.2891 137.058 74.2891 135.906C74.2891 134.754 74.3885 133.82 74.5101 133.82Z" fill="#E0E0E0"/>
<path d="M74.5101 125.477C74.6325 125.477 74.7311 126.411 74.7311 127.562C74.7311 128.715 74.6316 129.648 74.5101 129.648C74.3877 129.648 74.2891 128.714 74.2891 127.562C74.2891 126.41 74.3885 125.477 74.5101 125.477Z" fill="#E0E0E0"/>
<path d="M76.6321 119.182C76.6321 119.304 75.6809 119.403 74.5071 119.403C74.9491 118.961 74.6295 119.281 74.7281 119.183V119.185V119.189V119.196V119.209V119.236V119.291L74.7272 119.399L74.7238 119.609C74.7196 119.736 74.7153 119.866 74.7111 120.008C74.7 120.262 74.6839 120.491 74.6635 120.684C74.6235 121.068 74.5683 121.306 74.5071 121.306C74.4459 121.306 74.3906 121.068 74.3507 120.684C74.3303 120.492 74.3141 120.262 74.3031 120.008C74.2988 119.866 74.2946 119.735 74.2903 119.609L74.2869 119.399L74.2861 119.291V119.236V119.209V119.196V119.189V119.185V119.184C74.3847 119.085 74.0651 119.403 74.5079 118.961C75.6809 118.96 76.6321 119.06 76.6321 119.182Z" fill="#E0E0E0"/>
<path d="M85.1139 119.182C85.1139 119.304 84.1645 119.403 82.9949 119.403C81.8244 119.403 80.875 119.303 80.875 119.182C80.875 119.06 81.8236 118.961 82.9949 118.961C84.1653 118.96 85.1139 119.06 85.1139 119.182Z" fill="#E0E0E0"/>
<path d="M93.5905 119.182C93.5905 119.304 92.6411 119.403 91.4715 119.403C90.301 119.403 89.3516 119.303 89.3516 119.182C89.3516 119.06 90.3002 118.961 91.4715 118.961C92.6411 118.96 93.5905 119.06 93.5905 119.182Z" fill="#E0E0E0"/>
<path d="M102.067 119.182C102.067 119.304 101.118 119.403 99.948 119.403C98.7767 119.403 97.8281 119.303 97.8281 119.182C97.8281 119.06 98.7767 118.961 99.948 118.961C101.118 118.96 102.067 119.06 102.067 119.182Z" fill="#E0E0E0"/>
<path d="M110.544 119.182C110.544 119.304 109.594 119.403 108.425 119.403C107.254 119.403 106.305 119.303 106.305 119.182C106.305 119.06 107.253 118.961 108.425 118.961C109.594 118.96 110.544 119.06 110.544 119.182Z" fill="#E0E0E0"/>
<path d="M119.021 119.182C119.021 119.304 118.072 119.403 116.901 119.403C115.731 119.403 114.781 119.303 114.781 119.182C114.781 119.06 115.73 118.961 116.901 118.961C118.072 118.96 119.021 119.06 119.021 119.182Z" fill="#E0E0E0"/>
<path d="M127.505 119.182C127.505 119.304 126.555 119.403 125.386 119.403C124.215 119.403 123.266 119.303 123.266 119.182C123.266 119.06 124.214 118.961 125.386 118.961C126.555 118.96 127.505 119.06 127.505 119.182Z" fill="#E0E0E0"/>
<path d="M135.981 119.182C135.981 119.304 135.032 119.403 133.862 119.403C132.691 119.403 131.742 119.303 131.742 119.182C131.742 119.06 132.691 118.961 133.862 118.961C135.033 118.96 135.981 119.06 135.981 119.182Z" fill="#E0E0E0"/>
<path d="M144.459 119.182C144.459 119.304 143.509 119.403 142.339 119.403C141.168 119.403 140.219 119.303 140.219 119.182C140.219 119.06 141.167 118.961 142.339 118.961C143.509 118.96 144.459 119.06 144.459 119.182Z" fill="#E0E0E0"/>
<path d="M152.942 119.182C152.942 119.304 151.993 119.403 150.823 119.403C149.652 119.403 148.703 119.303 148.703 119.182C148.703 119.06 149.652 118.961 150.823 118.961C151.993 118.96 152.942 119.06 152.942 119.182Z" fill="#E0E0E0"/>
<path d="M161.419 119.182C161.419 119.304 160.469 119.403 159.3 119.403C158.128 119.403 157.18 119.303 157.18 119.182C157.18 119.06 158.128 118.961 159.3 118.961C160.47 118.96 161.419 119.06 161.419 119.182Z" fill="#E0E0E0"/>
<path d="M169.896 119.182C169.896 119.304 168.947 119.403 167.776 119.403C166.606 119.403 165.656 119.303 165.656 119.182C165.656 119.06 166.605 118.961 167.776 118.961C168.947 118.96 169.896 119.06 169.896 119.182Z" fill="#E0E0E0"/>
<path d="M178.372 119.182C178.372 119.304 177.422 119.403 176.253 119.403C175.081 119.403 174.133 119.303 174.133 119.182C174.133 119.06 175.081 118.961 176.253 118.961C177.423 118.96 178.372 119.06 178.372 119.182Z" fill="#E0E0E0"/>
<path d="M186.848 119.182C186.848 119.304 185.899 119.403 184.729 119.403C183.558 119.403 182.609 119.303 182.609 119.182C182.609 119.06 183.558 118.961 184.729 118.961C185.899 118.96 186.848 119.06 186.848 119.182Z" fill="#E0E0E0"/>
<path d="M195.326 119.182C195.326 119.304 194.376 119.403 193.206 119.403C192.035 119.403 191.086 119.303 191.086 119.182C191.086 119.06 192.035 118.961 193.206 118.961C194.377 118.96 195.326 119.06 195.326 119.182Z" fill="#E0E0E0"/>
<path d="M203.81 119.182C203.81 119.304 202.861 119.403 201.69 119.403C200.52 119.403 199.57 119.303 199.57 119.182C199.57 119.06 200.519 118.961 201.69 118.961C202.861 118.96 203.81 119.06 203.81 119.182Z" fill="#E0E0E0"/>
<path d="M210.17 121.304C210.048 121.304 209.949 120.353 209.949 119.179C210.391 119.621 210.072 119.302 210.17 119.4H210.169H210.168H210.164H210.157H210.144H210.117H210.062L209.954 119.399L209.743 119.396C209.617 119.392 209.487 119.387 209.345 119.383C209.091 119.372 208.861 119.356 208.669 119.336C208.285 119.296 208.047 119.24 208.047 119.179C208.047 119.118 208.285 119.063 208.669 119.023C208.861 119.002 209.091 118.986 209.345 118.975C209.487 118.971 209.618 118.967 209.743 118.962L209.954 118.959L210.062 118.958H210.117H210.144H210.157H210.164H210.168H210.169H210.17C210.27 119.057 209.95 118.737 210.392 119.179C210.392 120.352 210.293 121.304 210.17 121.304Z" fill="#E0E0E0"/>
<path d="M210.174 129.648C210.052 129.648 209.953 128.714 209.953 127.562C209.953 126.41 210.053 125.477 210.174 125.477C210.296 125.477 210.395 126.411 210.395 127.562C210.396 128.714 210.297 129.648 210.174 129.648Z" fill="#E0E0E0"/>
<path d="M210.174 137.992C210.052 137.992 209.953 137.058 209.953 135.906C209.953 134.754 210.053 133.82 210.174 133.82C210.296 133.82 210.395 134.754 210.395 135.906C210.396 137.058 210.297 137.992 210.174 137.992Z" fill="#E0E0E0"/>
<path d="M210.174 146.336C210.052 146.336 209.953 145.402 209.953 144.25C209.953 143.097 210.053 142.164 210.174 142.164C210.296 142.164 210.395 143.098 210.395 144.25C210.396 145.402 210.297 146.336 210.174 146.336Z" fill="#E0E0E0"/>
<path d="M210.174 154.687C210.052 154.687 209.953 153.753 209.953 152.602C209.953 151.449 210.053 150.516 210.174 150.516C210.296 150.516 210.395 151.45 210.395 152.602C210.396 153.753 210.297 154.687 210.174 154.687Z" fill="#E0E0E0"/>
<path d="M210.174 163.031C210.052 163.031 209.953 162.097 209.953 160.945C209.953 159.793 210.053 158.859 210.174 158.859C210.296 158.859 210.395 159.794 210.395 160.945C210.396 162.097 210.297 163.031 210.174 163.031Z" fill="#E0E0E0"/>
<path d="M210.174 171.375C210.052 171.375 209.953 170.441 209.953 169.289C209.953 168.136 210.053 167.203 210.174 167.203C210.296 167.203 210.395 168.137 210.395 169.289C210.396 170.441 210.297 171.375 210.174 171.375Z" fill="#E0E0E0"/>
<path d="M210.174 179.719C210.052 179.719 209.953 178.785 209.953 177.633C209.953 176.48 210.053 175.547 210.174 175.547C210.296 175.547 210.395 176.481 210.395 177.633C210.396 178.785 210.297 179.719 210.174 179.719Z" fill="#E0E0E0"/>
<path d="M210.174 188.062C210.052 188.062 209.953 187.128 209.953 185.977C209.953 184.824 210.053 183.891 210.174 183.891C210.296 183.891 210.395 184.825 210.395 185.977C210.396 187.128 210.297 188.062 210.174 188.062Z" fill="#E0E0E0"/>
<path d="M210.174 196.406C210.052 196.406 209.953 195.472 209.953 194.32C209.953 193.168 210.053 192.234 210.174 192.234C210.296 192.234 210.395 193.169 210.395 194.32C210.396 195.472 210.297 196.406 210.174 196.406Z" fill="#E0E0E0"/>
<path d="M200.385 202.053L68.5489 209.285C67.5476 209.34 66.6917 208.573 66.6364 207.571L62.2606 127.796C62.2054 126.794 62.9729 125.938 63.9742 125.883L195.81 118.651C196.811 118.596 197.667 119.364 197.723 120.365L202.098 200.141C202.153 201.142 201.386 201.998 200.385 202.053Z" fill="#5E5CEE"/>
<path d="M133.133 155.49L144.578 160.863L134.289 168.479L124 176.096L122.844 163.106L121.688 150.117L133.133 155.49Z" fill="white"/>
<path d="M191.957 194.156C191.964 194.279 166.023 195.8 134.025 197.555C102.015 199.311 76.0685 200.635 76.0625 200.513C76.0557 200.392 101.991 198.869 134.001 197.113C165.999 195.359 191.951 194.035 191.957 194.156Z" fill="white"/>
<path d="M78.0799 200.406C78.1241 201.213 77.5062 201.903 76.6995 201.947C75.8929 201.991 75.2027 201.373 75.1585 200.567C75.1143 199.76 75.7322 199.07 76.5389 199.026C77.3464 198.981 78.0357 199.599 78.0799 200.406Z" fill="white"/>
<g opacity="0.3">
<path d="M188.767 119.159C186.664 123.203 184.503 127.823 185.951 132.145C186.617 134.132 187.982 135.793 189.013 137.617C192.168 143.198 192.062 149.975 191.871 156.383C191.816 158.199 191.663 160.238 190.29 161.428C189.166 162.404 187.553 162.508 186.065 162.565C180.088 162.794 174.11 163.021 168.133 163.25V194.827L201.404 187.47L199.818 140.227L199.013 132.256L195.652 118.664L188.767 119.159Z" fill="black"/>
</g>
<path d="M160.25 374.486L161.381 401.127L175.766 400.805L174.689 374.109L160.25 374.486Z" fill="#5E5CEE"/>
<path d="M168.44 399.966C168.56 399.959 168.338 394.125 167.942 386.936C167.547 379.745 167.13 373.923 167.009 373.93C166.889 373.936 167.112 379.769 167.507 386.96C167.902 394.15 168.321 399.973 168.44 399.966Z" fill="#263238"/>
<path d="M161.305 399.292L175.693 398.922L175.768 400.806L161.383 401.128L161.305 399.292Z" fill="#E0E0E0"/>
<path d="M175.42 392.276C175.441 392.258 175.308 392.052 175.025 391.711C174.742 391.37 174.297 390.904 173.68 390.4C173.064 389.898 172.268 389.36 171.287 388.951C170.314 388.533 169.14 388.262 167.901 388.331C165.416 388.451 163.383 389.765 162.41 391.026C161.904 391.65 161.6 392.228 161.431 392.638C161.265 393.051 161.207 393.29 161.232 393.299C161.313 393.339 161.615 392.381 162.643 391.227C163.636 390.07 165.568 388.881 167.927 388.765C170.277 388.643 172.269 389.74 173.492 390.643C174.74 391.569 175.362 392.329 175.42 392.276Z" fill="#263238"/>
<g opacity="0.3">
<path d="M174.991 381.711L175.11 384.646L160.688 384.904L160.594 382.694L174.991 381.711Z" fill="black"/>
</g>
<path d="M125.456 375.186L126.177 391.853C126.177 391.853 109.479 398.183 109.312 401.277L141.679 401.039L141.619 375.023L125.456 375.186Z" fill="#5E5CEE"/>
<path d="M135.967 390.436C136.599 390.604 137.04 391.31 136.898 391.948C136.756 392.586 136.042 393.041 135.407 392.885C134.772 392.728 134.216 391.896 134.429 391.278C134.641 390.659 135.509 390.172 136.088 390.476" fill="#E0E0E0"/>
<path d="M141.682 401.034L141.676 398.43L110.359 399.611C110.359 399.611 108.913 400.253 109.084 401.275L141.682 401.034Z" fill="#E0E0E0"/>
<path d="M125.884 391.963C125.891 392.122 126.687 392.189 127.473 392.695C128.274 393.18 128.682 393.867 128.828 393.803C128.975 393.77 128.73 392.821 127.767 392.225C126.809 391.621 125.848 391.818 125.884 391.963Z" fill="#263238"/>
<path d="M122.478 393.401C122.442 393.556 123.134 393.821 123.68 394.491C124.245 395.144 124.387 395.872 124.545 395.863C124.695 395.887 124.798 394.954 124.104 394.135C123.417 393.31 122.48 393.25 122.478 393.401Z" fill="#263238"/>
<path d="M120.567 397.504C120.712 397.537 120.927 396.739 120.512 395.871C120.104 394.999 119.35 394.66 119.284 394.794C119.195 394.926 119.682 395.39 120.012 396.108C120.358 396.818 120.409 397.489 120.567 397.504Z" fill="#263238"/>
<path d="M126.146 388.115C126.214 388.26 126.943 388.035 127.843 388.089C128.745 388.126 129.447 388.422 129.529 388.285C129.619 388.169 128.932 387.585 127.871 387.536C126.81 387.479 126.067 387.991 126.146 388.115Z" fill="#263238"/>
<path d="M125.539 384.531C125.538 384.596 126.167 384.691 127.172 384.51C127.672 384.42 128.26 384.252 128.876 383.973C129.184 383.833 129.498 383.666 129.809 383.469C129.959 383.371 130.137 383.273 130.3 383.082C130.475 382.914 130.572 382.492 130.366 382.234C130.197 381.985 129.901 381.879 129.666 381.875C129.425 381.87 129.231 381.92 129.055 381.965C128.693 382.056 128.353 382.178 128.042 382.321C127.422 382.609 126.919 382.971 126.544 383.32C125.793 384.026 125.539 384.622 125.593 384.652C125.666 384.704 126.03 384.204 126.795 383.62C127.177 383.329 127.665 383.028 128.245 382.788C128.536 382.67 128.849 382.568 129.18 382.493C129.526 382.399 129.819 382.395 129.909 382.548C129.941 382.606 129.945 382.629 129.874 382.731C129.8 382.825 129.661 382.918 129.514 383.014C129.227 383.205 128.937 383.371 128.655 383.513C128.088 383.8 127.546 383.996 127.081 384.13C126.149 384.397 125.536 384.444 125.539 384.531Z" fill="#263238"/>
<path d="M125.745 384.757C125.802 384.781 126.113 384.208 126.164 383.177C126.188 382.665 126.13 382.046 125.929 381.391C125.826 381.064 125.687 380.73 125.505 380.403C125.312 380.083 125.076 379.652 124.458 379.586C124.136 379.577 123.87 379.83 123.78 380.047C123.674 380.268 123.653 380.457 123.617 380.646C123.56 381.028 123.569 381.401 123.623 381.746C123.731 382.439 124.02 383.014 124.333 383.427C124.977 384.267 125.642 384.452 125.655 384.399C125.708 384.319 125.15 384.016 124.657 383.207C124.414 382.809 124.196 382.282 124.129 381.677C124.095 381.375 124.098 381.055 124.152 380.734C124.201 380.387 124.328 380.106 124.458 380.141C124.621 380.137 124.898 380.396 125.033 380.672C125.203 380.962 125.338 381.261 125.443 381.554C125.652 382.141 125.745 382.705 125.771 383.181C125.824 384.136 125.658 384.734 125.745 384.757Z" fill="#263238"/>
<g opacity="0.3">
<path d="M141.689 385.016L141.656 388.713H126.047V386.682L141.689 385.016Z" fill="black"/>
</g>
<path d="M190.142 121.746C189.781 121.787 188.831 125.433 188.37 127.291C188.201 127.971 188.298 128.687 188.643 129.297L192.392 135.929C193.087 137.16 194.103 138.179 195.331 138.879L197.21 139.949L197.452 143.893L208.002 144.059L204.787 131.756L203.446 124.247C203.088 123.495 202.38 122.969 201.557 122.845L200.567 122.696L200.19 121.748C199.965 121.184 199.453 120.786 198.851 120.711L198.236 120.633L197.37 118.499C197.083 117.793 196.392 117.334 195.63 117.344L190.519 117.411C190.519 117.411 189.397 118.927 191.969 119.634C193.23 119.98 194.161 119.91 194.161 119.91L195.351 124.508C195.351 124.508 196.191 129.338 193.933 129.333C191.946 129.329 191.755 126.74 191.755 126.74C191.755 126.74 192.742 121.454 190.142 121.746Z" fill="#FFBE9D"/>
<path d="M200.617 126.356C200.582 126.357 200.609 125.97 200.418 125.397C200.235 124.809 199.783 124.129 198.983 123.569C198.543 122.684 198.34 121.887 198.191 121.279C198.059 120.675 198.06 120.29 198.08 120.289C198.109 120.287 198.151 120.663 198.312 121.25C198.477 121.818 198.738 122.671 199.119 123.457C199.277 123.596 199.462 123.727 199.635 123.884C199.8 124.038 199.943 124.204 200.064 124.373C200.304 124.712 200.452 125.061 200.537 125.361C200.622 125.662 200.643 125.915 200.643 126.089C200.644 126.261 200.627 126.356 200.617 126.356Z" fill="#EB996E"/>
<path d="M202.228 125.469C202.209 125.465 202.228 125.265 202.072 124.987C201.933 124.709 201.582 124.398 201.092 124.35L201.039 124.345L201.019 124.293C200.999 124.239 200.979 124.183 200.958 124.127C200.58 123.09 200.31 122.236 200.357 122.219C200.403 122.202 200.746 123.029 201.124 124.067C201.145 124.124 201.165 124.179 201.185 124.233L201.112 124.176C201.662 124.231 202.062 124.616 202.179 124.935C202.321 125.252 202.253 125.481 202.228 125.469Z" fill="#EB996E"/>
<path d="M194.158 119.907C194.12 119.941 193.927 119.68 193.977 119.321C194.021 118.972 194.198 118.742 194.239 118.768C194.283 118.791 194.19 119.036 194.153 119.341C194.109 119.646 194.201 119.88 194.158 119.907Z" fill="#EB996E"/>
<path d="M140.128 167.741L159.26 167.495L157.124 151.206C157.124 151.206 158.431 150.926 158.519 143.84C158.606 136.753 158.932 124.712 158.932 124.712C150.728 121.187 141.259 122.377 134.183 127.823L133.133 128.632L140.128 167.741Z" fill="#FFBE9D"/>
<path d="M135.351 137.348C135.231 137.296 130.482 135.908 130.637 140.753C130.791 145.598 135.623 144.443 135.628 144.305C135.632 144.165 135.351 137.348 135.351 137.348Z" fill="#FFBE9D"/>
<path d="M158.105 136.331C158.225 136.279 162.544 135.114 162.39 139.96C162.235 144.805 157.403 143.65 157.398 143.511C157.395 143.371 158.105 136.331 158.105 136.331Z" fill="#FFBE9D"/>
<path d="M163.545 122.338C163.621 121.46 163.294 120.517 162.578 120.001C161.864 119.485 160.755 119.517 160.174 120.181C160.507 118.998 159.539 117.632 158.312 117.554C157.156 117.481 156.171 118.354 155.054 118.66C153.964 118.959 152.794 118.701 151.745 118.278C150.696 117.856 149.716 117.273 148.655 116.885C146.439 116.076 143.907 116.178 141.764 117.162C139.622 118.145 137.894 120 137.064 122.206C135.514 121.722 133.753 122.509 132.797 123.821C131.842 125.134 131.596 126.858 131.786 128.471C131.915 129.561 132.23 130.614 132.596 131.651C132.596 131.742 132.587 131.831 132.589 131.923C132.662 135.82 134.694 148.135 136.357 148.16C139.254 148.204 136.973 135.006 136.973 135.006C140.529 133.632 139.204 128.304 140.093 127.496C140.982 126.688 142.842 124.809 150.288 128.614C153.179 130.092 157.024 130.046 159.122 129.57C159.184 129.556 159.246 129.547 159.308 129.532C159.32 129.529 159.337 129.527 159.351 129.524C159.374 129.518 159.39 129.505 159.412 129.499C160.081 129.325 160.726 129.066 161.321 128.689C161.995 128.263 162.609 127.685 162.895 126.94C163.18 126.195 163.073 125.265 162.488 124.721C163.038 124.032 163.469 123.216 163.545 122.338Z" fill="#263238"/>
<path d="M133.781 136.808C134.505 140.867 134.363 143.001 135.032 145.712C136.092 150.003 138.223 153.293 142.089 155.436C145.955 157.579 151.184 157.541 154.504 154.624C156.809 152.599 158.441 150.312 158.783 147.263C159.125 144.215 159.467 138.818 159.489 135.75C159.529 130.218 159.899 124.931 159.899 124.931L144.095 122.07L135.101 127.418L133.781 136.808Z" fill="#263238"/>
<path d="M150.084 157.88C150.108 157.992 148.865 158.3 147.315 158.124C145.764 157.958 144.617 157.387 144.666 157.282C144.711 157.161 145.88 157.527 147.363 157.684C148.846 157.853 150.066 157.75 150.084 157.88Z" fill="#263238"/>
<path d="M154.193 121.359C154.193 121.359 153.938 121.473 153.443 121.497C152.95 121.519 152.22 121.409 151.42 121.025C150.609 120.662 149.778 120.003 148.86 119.308C147.948 118.613 146.845 117.926 145.521 117.769C144.213 117.594 142.924 117.855 141.922 118.398C140.909 118.934 140.19 119.722 139.729 120.451C138.807 121.945 138.843 123.105 138.79 123.082C138.79 123.082 138.778 122.809 138.867 122.323C138.961 121.842 139.164 121.144 139.623 120.385C140.08 119.634 140.806 118.815 141.844 118.254C142.872 117.688 144.198 117.414 145.545 117.594C146.909 117.755 148.05 118.474 148.957 119.178C149.876 119.886 150.685 120.543 151.474 120.913C152.252 121.303 152.958 121.429 153.442 121.429C153.927 121.426 154.189 121.339 154.193 121.359Z" fill="#455A64"/>
<path d="M139.013 123.355C138.995 123.388 138.609 123.098 137.877 122.93C137.163 122.758 136.056 122.77 135.084 123.368C134.116 123.974 133.614 124.96 133.449 125.676C133.274 126.405 133.364 126.881 133.325 126.882C133.315 126.883 133.286 126.768 133.268 126.554C133.248 126.341 133.253 126.027 133.327 125.648C133.464 124.902 133.969 123.857 134.991 123.217C136.017 122.587 137.178 122.599 137.907 122.809C138.279 122.911 138.562 123.046 138.745 123.158C138.928 123.27 139.019 123.347 139.013 123.355Z" fill="#455A64"/>
<path d="M138.545 140.63C138.432 140.679 137.839 139.567 137.219 138.146C136.6 136.725 136.187 135.534 136.3 135.486C136.412 135.437 137.005 136.549 137.625 137.97C138.244 139.39 138.657 140.581 138.545 140.63Z" fill="#455A64"/>
<path d="M142.68 143.41C142.617 143.503 141.41 142.669 140.442 141.175C139.463 139.688 139.185 138.248 139.296 138.227C139.422 138.188 139.876 139.513 140.813 140.934C141.736 142.362 142.767 143.31 142.68 143.41Z" fill="#455A64"/>
<path d="M146.774 144.311C146.712 144.412 145.811 143.958 144.882 143.145C143.951 142.335 143.379 141.504 143.471 141.429C143.567 141.347 144.27 142.026 145.174 142.811C146.073 143.599 146.842 144.205 146.774 144.311Z" fill="#455A64"/>
<path d="M153.985 137.742C154.099 137.748 154.089 138.883 153.557 140.156C153.033 141.433 152.238 142.243 152.152 142.166C152.05 142.086 152.654 141.196 153.147 139.987C153.653 138.783 153.856 137.727 153.985 137.742Z" fill="#455A64"/>
<path d="M156.431 133.914C156.544 133.906 156.661 135.283 156.152 136.884C155.654 138.489 154.771 139.553 154.684 139.481C154.574 139.408 155.257 138.281 155.73 136.751C156.217 135.226 156.3 133.911 156.431 133.914Z" fill="#455A64"/>
<path d="M158.307 124.121C158.307 124.121 158.117 124.34 157.674 124.611C157.236 124.883 156.52 125.171 155.593 125.252C154.669 125.341 153.547 125.194 152.402 124.762C151.25 124.343 150.081 123.675 148.86 122.996C147.64 122.318 146.436 121.731 145.265 121.447C144.098 121.146 142.985 121.196 142.117 121.462C141.244 121.72 140.625 122.157 140.271 122.519C139.913 122.88 139.775 123.134 139.758 123.122C139.758 123.122 139.872 122.854 140.222 122.471C140.567 122.088 141.191 121.622 142.081 121.343C142.963 121.055 144.112 120.99 145.303 121.289C146.501 121.57 147.721 122.162 148.946 122.842C150.171 123.523 151.327 124.19 152.459 124.61C153.585 125.045 154.678 125.199 155.585 125.129C157.437 124.997 158.298 124.062 158.307 124.121Z" fill="#455A64"/>
<path d="M159.716 126.416C159.722 126.427 159.631 126.487 159.46 126.587C159.29 126.69 159.032 126.819 158.706 126.958C158.055 127.239 157.103 127.526 156.019 127.627C154.934 127.725 153.947 127.614 153.256 127.456C152.91 127.378 152.633 127.298 152.447 127.228C152.261 127.161 152.16 127.118 152.164 127.107C152.174 127.077 152.59 127.21 153.28 127.334C153.969 127.459 154.939 127.546 156.004 127.451C157.067 127.351 158.005 127.09 158.66 126.842C159.316 126.596 159.702 126.389 159.716 126.416Z" fill="#455A64"/>
<path d="M150.906 272.86L155.559 317.708L158.899 385.249H176.722L177.204 241.5L126.176 245.139L115.602 320.559L124.759 386.57H144.315L139.736 323.805L150.906 272.86Z" fill="#263238"/>
<path d="M150.906 272.864C150.988 272.955 149.435 274.485 147.439 276.282C145.442 278.08 143.757 279.464 143.675 279.373C143.593 279.282 145.146 277.751 147.142 275.953C149.139 274.156 150.824 272.773 150.906 272.864Z" fill="#455A64"/>
<path d="M150.851 271.96C150.731 271.949 150.833 269.376 150.945 266.203C151.067 263.028 151.156 260.455 151.278 260.453C151.401 260.451 151.511 263.035 151.388 266.219C151.275 269.4 150.975 271.97 150.851 271.96Z" fill="#455A64"/>
<path d="M156.746 255.223C156.737 255.217 156.835 255.206 157.032 255.192C157.267 255.178 157.558 255.16 157.912 255.14C158.745 255.099 159.88 255.044 161.294 254.974C164.288 254.849 168.455 254.675 173.377 254.469L173.583 254.461V254.669C173.59 258.439 173.596 262.706 173.604 267.214V267.456V267.605L173.465 267.661C170.728 268.757 168.089 269.814 165.605 270.809L165.531 270.839L165.457 270.813C162.97 269.949 160.636 269.139 158.507 268.398L158.398 268.361L158.384 268.25C157.876 264.335 157.452 261.074 157.149 258.735C157.015 257.643 156.909 256.769 156.83 256.118C156.762 255.522 156.731 255.211 156.746 255.223C156.754 255.229 156.772 255.316 156.801 255.478C156.834 255.672 156.873 255.904 156.921 256.186C157.025 256.844 157.165 257.728 157.34 258.832C157.687 261.135 158.171 264.346 158.752 268.199L158.629 268.05C160.764 268.774 163.102 269.568 165.595 270.414L165.448 270.417C167.93 269.416 170.567 268.353 173.301 267.25L173.163 267.455V267.214C173.171 262.705 173.178 258.439 173.184 254.668L173.391 254.868C168.521 254.989 164.4 255.091 161.439 255.164C160.003 255.189 158.851 255.211 158.005 255.226C157.633 255.229 157.328 255.232 157.081 255.234C156.868 255.234 156.754 255.231 156.746 255.223Z" fill="#455A64"/>
<path d="M131.022 255.439C131.014 255.431 131.103 255.423 131.28 255.413C131.494 255.403 131.755 255.392 132.073 255.379C132.827 255.355 133.852 255.323 135.13 255.284C137.847 255.221 141.635 255.132 146.152 255.028L146.355 255.023L146.348 255.228C146.229 258.952 146.091 263.243 145.944 267.813L145.94 267.927L145.844 267.99C145.44 268.255 145.006 268.538 144.569 268.824C142.33 270.284 140.162 271.697 138.107 273.038L137.994 273.111L137.879 273.042C135.254 271.443 132.806 269.951 130.6 268.607L130.508 268.551L130.511 268.445C130.648 264.536 130.763 261.279 130.844 258.943C130.892 257.854 130.929 256.981 130.957 256.332C130.987 255.735 131.008 255.425 131.022 255.439C131.029 255.446 131.033 255.533 131.037 255.696C131.037 255.89 131.039 256.123 131.04 256.406C131.036 257.065 131.029 257.953 131.021 259.059C130.986 261.369 130.938 264.588 130.88 268.453L130.792 268.29C133.007 269.619 135.465 271.093 138.101 272.675L137.874 272.679C139.927 271.335 142.092 269.916 144.327 268.453C144.764 268.167 145.198 267.884 145.603 267.62L145.503 267.797C145.669 263.229 145.826 258.938 145.962 255.215L146.158 255.414C141.69 255.439 137.943 255.459 135.255 255.474C133.959 255.471 132.919 255.469 132.153 255.467C131.82 255.463 131.547 255.459 131.322 255.456C131.132 255.453 131.029 255.447 131.022 255.439Z" fill="#455A64"/>
<path d="M171.698 275.76C171.693 275.82 170.77 275.795 169.283 275.684C167.795 275.574 165.745 275.372 163.488 275.079C161.231 274.786 159.197 274.459 157.73 274.186C156.264 273.914 155.365 273.701 155.375 273.643C155.385 273.582 156.302 273.684 157.779 273.876C159.399 274.091 161.368 274.352 163.545 274.64C165.724 274.917 167.693 275.167 169.314 275.372C170.791 275.563 171.704 275.698 171.698 275.76Z" fill="#455A64"/>
<path d="M171.285 325.753C171.304 325.762 171.213 326.011 170.864 326.319C170.519 326.618 169.878 326.937 169.04 326.937C168.201 326.966 167.224 326.58 166.378 325.917C165.522 325.25 164.751 324.379 163.951 323.462C162.359 321.613 161.135 319.767 160.342 318.384C159.551 316.998 159.165 316.089 159.215 316.063C159.274 316.033 159.757 316.889 160.61 318.221C161.464 319.551 162.715 321.346 164.288 323.173C165.078 324.08 165.838 324.953 166.631 325.595C167.422 326.239 168.285 326.61 169.046 326.624C169.81 326.662 170.409 326.417 170.76 326.181C171.113 325.939 171.253 325.729 171.285 325.753Z" fill="#455A64"/>
<path d="M136.083 327.329C136.103 327.337 136.054 327.557 135.842 327.902C135.633 328.244 135.235 328.696 134.611 329.073C133.989 329.444 133.136 329.727 132.165 329.715C131.194 329.705 130.152 329.365 129.219 328.78C127.331 327.582 126.312 325.786 125.676 324.555C125.047 323.292 124.746 322.479 124.794 322.454C124.854 322.423 125.26 323.195 125.951 324.406C126.651 325.589 127.682 327.284 129.455 328.404C130.331 328.954 131.291 329.276 132.176 329.306C133.064 329.338 133.862 329.11 134.459 328.798C135.677 328.158 136.012 327.274 136.083 327.329Z" fill="#455A64"/>
<path d="M137.217 320.557C137.242 320.599 136.718 320.989 135.752 321.408C134.791 321.828 133.369 322.229 131.757 322.298C130.145 322.362 128.694 322.08 127.702 321.741C126.705 321.403 126.15 321.057 126.173 321.013C126.214 320.873 128.596 322.01 131.739 321.856C134.883 321.75 137.164 320.421 137.217 320.557Z" fill="#455A64"/>
<path d="M195.226 162.28H169.239C169.239 162.28 165.709 160.247 164.001 160.589C162.292 160.93 160.812 162.753 160.812 162.753L164.251 191.386L172.668 185.157L203.995 181.894C206.71 181.868 209.297 180.736 211.158 178.759C213.18 176.61 214.147 173.676 213.796 170.746L208.001 139.953L196.114 140.347L195.645 148.162L195.226 162.28Z" fill="#455A64"/>
<path d="M123.693 169.5C123.693 169.5 119.489 171.818 117.417 176.793C115.902 180.43 105.554 198.598 100.098 208.104C98.1154 211.561 98.6449 215.907 101.399 218.787C104.713 222.253 110.272 223.2 115.109 221.626C117.277 220.921 125.951 213.873 125.951 213.873L123.693 169.5Z" fill="#455A64"/>
<path d="M128.214 234.428L122.258 183.162L123.694 169.5L138.862 163.035L158.507 161.75L177.213 163.809L172.837 216.392L177.624 246.046L125.232 248.415L128.214 234.428Z" fill="#455A64"/>
<path d="M128.189 234.205C128.067 234.219 126.641 222.802 125.004 208.707C123.366 194.607 122.137 183.17 122.258 183.156C122.38 183.142 123.805 194.556 125.444 208.656C127.081 222.75 128.31 234.19 128.189 234.205Z" fill="#263238"/>
<path d="M176.828 175.313C176.843 175.314 176.838 175.474 176.816 175.775C176.784 176.125 176.745 176.56 176.698 177.092C176.575 178.297 176.409 179.932 176.205 181.926C175.79 186.065 175.227 191.675 174.605 197.874C174.011 204.107 173.529 209.754 173.224 213.844C173.08 215.841 172.962 217.481 172.874 218.689C172.832 219.22 172.797 219.655 172.769 220.006C172.74 220.307 172.717 220.465 172.702 220.465C172.686 220.464 172.68 220.305 172.68 220.002C172.686 219.65 172.693 219.213 172.702 218.68C172.725 217.532 172.803 215.873 172.911 213.823C173.136 209.724 173.57 204.069 174.164 197.832C174.757 191.598 175.395 185.964 175.894 181.891C176.147 179.854 176.362 178.208 176.526 177.071C176.607 176.544 176.673 176.112 176.727 175.764C176.778 175.466 176.812 175.311 176.828 175.313Z" fill="#263238"/>
<path d="M167.809 226.346C167.832 226.366 167.536 226.725 166.979 227.36C166.707 227.683 166.359 228.066 165.915 228.47C165.477 228.88 165.002 229.376 164.401 229.836C163.82 230.32 163.176 230.842 162.431 231.331C161.715 231.863 160.885 232.328 160.024 232.839C158.265 233.794 156.244 234.69 154.031 235.365C151.809 236.014 149.628 236.373 147.633 236.538C146.633 236.582 145.684 236.648 144.793 236.595C143.902 236.595 143.077 236.51 142.325 236.425C141.57 236.369 140.901 236.214 140.311 236.112C139.717 236.017 139.218 235.887 138.812 235.767C137.999 235.541 137.554 235.403 137.563 235.373C137.586 235.274 139.376 235.834 142.357 236.113C143.103 236.178 143.919 236.243 144.799 236.227C145.678 236.263 146.615 236.184 147.601 236.13C149.567 235.944 151.714 235.578 153.905 234.94C156.086 234.273 158.082 233.402 159.828 232.48C160.682 231.985 161.509 231.538 162.225 231.025C162.969 230.555 163.616 230.054 164.203 229.591C166.544 227.726 167.735 226.277 167.809 226.346Z" fill="#263238"/>
<g opacity="0.3">
<path d="M140.11 235.919C137.563 235.188 137.416 232.788 138.399 231.753C139.382 230.717 140.991 230.588 142.404 230.792C143.817 230.996 145.212 231.463 146.636 231.367C148.967 231.21 150.921 229.589 152.539 227.903C154.156 226.218 155.692 224.335 157.819 223.369C159.946 222.403 162.904 222.742 164.024 224.792C164.735 226.095 164.511 227.76 163.77 229.047C163.029 230.334 161.843 231.303 160.615 232.138C154.693 236.165 147.053 237.671 140.11 235.919Z" fill="black"/>
</g>
<g opacity="0.2">
<path d="M124.404 201.985C123.947 202.629 119.521 208.678 119.521 208.678C119.403 209.29 115.109 214.828 115.109 214.828C115.109 214.828 118.919 212.707 121.852 211.196C123.254 210.474 125.362 208.684 125.362 208.684C125.362 208.684 124.702 204.521 124.411 202.971C123.757 199.482 123.314 191.617 123.314 191.617" fill="black"/>
</g>
<path d="M171.096 163.322C171.116 163.214 173.057 164.003 174.505 166.035C175.976 168.05 176.114 170.14 176.004 170.125C175.869 170.16 175.546 168.203 174.145 166.294C172.775 164.363 171.02 163.44 171.096 163.322Z" fill="#263238"/>
<path d="M124.408 201.986C124.458 202.021 123.966 202.809 123.127 204.055C122.288 205.299 121.104 207 119.766 208.858C117.094 212.566 114.806 215.531 114.641 215.362C115.044 214.778 115.451 214.189 116.013 213.376C116.965 212.036 118.125 210.404 119.407 208.599C120.744 206.742 121.968 205.071 122.872 203.873C123.776 202.675 124.359 201.95 124.408 201.986Z" fill="#263238"/>
</svg>
