<svg width="30" height="30" viewBox="0 0 30 30" fill="none" xmlns="http://www.w3.org/2000/svg">
<path d="M24.5078 26.25L16.6328 18.375C16.0078 18.875 15.2891 19.2708 14.4766 19.5625C13.6641 19.8542 12.7995 20 11.8828 20C9.61198 20 7.69031 19.2133 6.11781 17.64C4.54531 16.0667 3.75865 14.145 3.75781 11.875C3.75781 9.60417 4.54448 7.6825 6.11781 6.11C7.69115 4.5375 9.61281 3.75083 11.8828 3.75C14.1536 3.75 16.0753 4.53667 17.6478 6.11C19.2203 7.68333 20.007 9.605 20.0078 11.875C20.0078 12.7917 19.862 13.6562 19.5703 14.4688C19.2786 15.2812 18.8828 16 18.3828 16.625L26.2578 24.5L24.5078 26.25ZM11.8828 17.5C13.4453 17.5 14.7736 16.9529 15.8678 15.8588C16.962 14.7646 17.5086 13.4367 17.5078 11.875C17.5078 10.3125 16.9607 8.98417 15.8666 7.89C14.7724 6.79583 13.4445 6.24917 11.8828 6.25C10.3203 6.25 8.99198 6.79708 7.89781 7.89125C6.80365 8.98542 6.25698 10.3133 6.25781 11.875C6.25781 13.4375 6.8049 14.7658 7.89906 15.86C8.99323 16.9542 10.3211 17.5008 11.8828 17.5Z" fill="white" fill-opacity="0.68"/>
</svg>
