<svg width="500" height="500" viewBox="0 0 500 500" fill="none" xmlns="http://www.w3.org/2000/svg">
<path d="M449.901 398.494H416.779V398.744H449.901V398.494Z" fill="#EBEBEB"/>
<path d="M331.22 401.208H322.527V401.458H331.22V401.208Z" fill="#EBEBEB"/>
<path d="M415.778 389.208H396.586V389.458H415.778V389.208Z" fill="#EBEBEB"/>
<path d="M95.652 390.888H52.459V391.138H95.652V390.888Z" fill="#EBEBEB"/>
<path d="M110.89 390.888H104.557V391.138H110.89V390.888Z" fill="#EBEBEB"/>
<path d="M225.147 395.111H131.471V395.361H225.147V395.111Z" fill="#EBEBEB"/>
<path d="M500 382.398H0V382.648H500V382.398Z" fill="#EBEBEB"/>
<path d="M350.075 376.592H445.252V249.947H350.075V376.592Z" fill="#F5F5F5"/>
<path d="M331.918 376.592H350.074V249.947H331.918V376.592Z" fill="#E6E6E6"/>
<path d="M356.251 290.1H438.584V259.345H356.251V290.1Z" fill="#FAFAFA"/>
<path d="M408.154 259.345L407.794 263.445C407.675 264.797 406.543 265.835 405.185 265.835H389.649C388.292 265.835 387.159 264.798 387.04 263.445L386.68 259.345H408.154Z" fill="#EBEBEB"/>
<path d="M356.251 324.215H438.584V293.46H356.251V324.215Z" fill="#FAFAFA"/>
<path d="M408.154 293.459L407.794 297.559C407.675 298.911 406.543 299.949 405.185 299.949H389.649C388.292 299.949 387.159 298.911 387.04 297.559L386.68 293.459H408.154Z" fill="#EBEBEB"/>
<path d="M356.251 358.329H438.584V327.574H356.251V358.329Z" fill="#FAFAFA"/>
<path d="M408.154 327.574L407.794 331.674C407.675 333.026 406.543 334.064 405.185 334.064H389.649C388.292 334.064 387.159 333.026 387.04 331.674L386.68 327.574H408.154Z" fill="#EBEBEB"/>
<path d="M356.252 382.915H437.585L438.585 376.582H356.252V382.915Z" fill="#E6E6E6"/>
<path d="M339.252 382.915H356.252V376.582H338.252L339.252 382.915Z" fill="#E0E0E0"/>
<path d="M394.483 250.084H426.983L423.377 208.868H390.877L394.483 250.084Z" fill="#FAFAFA"/>
<path d="M394.482 250.084H392.93L389.324 208.868H390.876L394.482 250.084Z" fill="#EBEBEB"/>
<path d="M397.427 245.882H423.3L420.43 213.07H394.557L397.427 245.882Z" fill="#F0F0F0"/>
<path d="M399.322 243.181H420.935L418.537 215.771H396.924L399.322 243.181Z" fill="#E6E6E6"/>
<path d="M385.351 250.084L387.583 224.573H355.23L352.998 250.084H385.351Z" fill="#F0F0F0"/>
<path d="M385.352 250.084L387.584 224.573H389.326L387.094 250.084H385.352Z" fill="#E0E0E0"/>
<path d="M382.279 247.483L384.056 227.174H358.3L356.523 247.483H382.279Z" fill="#EBEBEB"/>
<path d="M380.305 245.811L381.789 228.846H360.274L358.789 245.811H380.305Z" fill="#F5F5F5"/>
<path d="M310.645 365.77C310.645 372.53 309.584 376.903 307.797 379.708C306.453 381.819 304.041 383.005 301.538 383.005H291.75C289.248 383.005 286.836 381.818 285.491 379.708C283.704 376.902 282.643 372.53 282.643 365.77C282.643 355.965 286.918 348.115 288.314 341.847C288.817 339.59 287.143 332.673 287.143 332.673H306.143C306.143 332.673 304.469 339.591 304.972 341.847C306.37 348.115 310.645 355.965 310.645 365.77Z" fill="#EBEBEB"/>
<path d="M343.001 326.087C343.001 317.574 329.656 321.108 326.292 307.901C325.017 302.896 335.871 291.569 335.871 291.569H302.026C302.026 291.569 312.882 302.896 311.607 307.901C308.243 321.108 294.896 317.574 294.896 326.087C294.896 335.463 313.723 354.99 314.63 376.969C314.711 378.934 311.09 383.006 311.09 383.006H326.807C326.807 383.006 323.186 378.934 323.267 376.969C324.175 354.99 343.001 335.463 343.001 326.087Z" fill="#F5F5F5"/>
<path d="M332.771 348.21C334.738 344.072 330.671 330.005 330.671 330.005H345.338C345.338 330.005 341.27 344.073 343.237 348.21C344.626 351.131 347.785 352.996 347.785 356.452V377.224C347.785 382.603 343.384 383.005 338.004 383.005C332.624 383.005 328.223 382.604 328.223 377.224V356.452C328.223 352.996 331.382 351.131 332.771 348.21Z" fill="#F0F0F0"/>
<path d="M165.152 225.528C156.726 221.879 151.918 214.179 154.437 208.363C156.955 202.547 165.861 200.784 174.287 204.432C182.715 208.081 187.522 215.782 185.004 221.598C182.485 227.414 173.58 229.177 165.152 225.528ZM171.86 210.037C167.911 208.327 163.739 209.154 162.559 211.879C161.379 214.604 163.631 218.212 167.58 219.922C171.529 221.632 175.702 220.806 176.882 218.081C178.062 215.356 175.808 211.747 171.86 210.037Z" fill="#E6E6E6"/>
<path d="M175.066 210.36L171.062 208.626L195.26 152.691C195.739 151.585 197.023 151.076 198.129 151.555C199.234 152.034 199.743 153.317 199.264 154.423L175.066 210.36Z" fill="#E6E6E6"/>
<path d="M201.117 159.831L193.434 156.474L195.167 152.47L202.851 155.827L201.117 159.831Z" fill="#E6E6E6"/>
<path d="M197.33 164.308L191.828 161.918L193.562 157.914L199.063 160.304L197.33 164.308Z" fill="#E6E6E6"/>
<path d="M191.343 165.565L189.609 169.569L195.779 172.24L197.513 168.236L191.343 165.565Z" fill="#E6E6E6"/>
<path d="M176.623 204.389L174.423 203.437C173.327 202.962 172.823 201.689 173.298 200.593L173.313 200.559C173.788 199.463 175.061 198.959 176.157 199.434L178.357 200.386C179.453 200.861 179.957 202.134 179.482 203.23L179.467 203.264C178.992 204.359 177.719 204.863 176.623 204.389Z" fill="#E6E6E6"/>
<path d="M348.469 185.16C355.145 189.608 356.868 198.795 352.307 205.64C347.747 212.484 338.604 214.434 331.928 209.986C325.251 205.537 323.529 196.349 328.089 189.505C332.65 182.66 341.792 180.712 348.469 185.16ZM336.324 203.389C339.453 205.473 343.736 204.56 345.873 201.353C348.01 198.146 347.203 193.841 344.074 191.757C340.945 189.672 336.661 190.585 334.524 193.792C332.388 196.999 333.195 201.305 336.324 203.389Z" fill="#E6E6E6"/>
<path d="M334.708 201.614L338.847 204.372L309.233 249.692C308.472 250.835 306.927 251.145 305.784 250.383C304.641 249.622 304.332 248.078 305.093 246.936L334.708 201.614Z" fill="#E6E6E6"/>
<path d="M305.279 237.054L313.989 242.904L309.641 249.43L300.914 243.569C299.661 242.728 299.325 241.031 300.161 239.775L301.471 237.81C302.313 236.547 304.02 236.209 305.279 237.054Z" fill="#E6E6E6"/>
<path d="M227.539 98.556L222.942 110.464C222.528 111.537 221.322 112.071 220.249 111.657C219.176 111.243 218.642 110.037 219.056 108.963L223.653 97.055C225.138 93.21 223.218 88.871 219.372 87.386L215.112 85.741C211.267 84.256 206.929 86.179 205.445 90.025L203.568 94.887L199.682 93.387L201.559 88.525C203.871 82.535 210.626 79.544 216.613 81.855L220.873 83.5C226.859 85.812 229.851 92.566 227.539 98.556Z" fill="#F0F0F0"/>
<path d="M226.811 100.432C226.505 100.037 226.089 99.7151 225.59 99.5221L202.389 90.5651C201.872 90.3651 201.328 90.3241 200.823 90.4261C199.896 90.6081 199.075 91.2491 198.71 92.1941L189.753 115.395C189.186 116.863 189.914 118.507 191.383 119.074L214.584 128.031C216.052 128.598 217.696 127.87 218.263 126.401L227.22 103.2C227.592 102.238 227.407 101.195 226.811 100.432ZM209.195 118.36L201.837 115.519L205.727 108.728C205.237 107.743 205.147 106.561 205.575 105.451C206.387 103.349 208.749 102.297 210.852 103.109C212.954 103.921 214.003 106.289 213.192 108.391C212.764 109.501 211.903 110.315 210.872 110.714L209.195 118.36Z" fill="#E6E6E6"/>
<path d="M69.1562 369.456H254.285V269.824H69.1562V369.456Z" fill="#E6E6E6"/>
<path d="M239.445 382.384H251.08V373.593H239.445V382.384Z" fill="#E6E6E6"/>
<path d="M55.0252 382.384H66.6602L66.6602 262.412H55.0252L55.0252 382.384Z" fill="#E6E6E6"/>
<path d="M66.5215 262.412V382.384H72.7265V375.661H251.08V382.384H257.286V262.412H254.183H251.08H72.7275H69.6245H66.5215ZM72.7275 273.272H158.801V314.941H72.7275V273.272ZM251.08 364.802H165.006V273.272H251.08V364.802ZM72.7275 364.802V321.146H158.801V364.802H72.7275Z" fill="#F0F0F0"/>
<path d="M165.006 364.802H245.262V277.754H165.006V364.802Z" fill="#F5F5F5"/>
<path d="M168.641 318.669C168.641 320.728 170.31 322.398 172.37 322.398C174.429 322.398 176.099 320.729 176.099 318.669C176.099 316.609 174.43 314.94 172.37 314.94C170.311 314.941 168.641 316.61 168.641 318.669Z" fill="#FAFAFA"/>
<path d="M172.369 322.398C173.873 322.398 175.161 321.503 175.75 320.221C175.968 320.695 176.097 321.217 176.097 321.772C176.097 323.831 174.428 325.501 172.368 325.501C170.309 325.501 168.639 323.832 168.639 321.772C168.639 321.217 168.769 320.694 168.986 320.221C169.577 321.503 170.865 322.398 172.369 322.398Z" fill="#E0E0E0"/>
<path d="M214.138 364.802H194.991L185.842 277.754H204.989L214.138 364.802Z" fill="#FAFAFA"/>
<path d="M190.087 364.802H186.276L177.127 277.754H180.938L190.087 364.802Z" fill="#FAFAFA"/>
<path d="M139.404 314.9H146.988V277.668H139.404V314.9Z" fill="#FAFAFA"/>
<path d="M107.955 314.9H115.539V277.668H107.955V314.9Z" fill="#F5F5F5"/>
<path d="M131.818 314.9H139.402V280.284H131.818V314.9Z" fill="#F5F5F5"/>
<path d="M115.541 314.9H123.125V280.284H115.541V314.9Z" fill="#FAFAFA"/>
<path d="M123.124 314.9H128.025V277.668H123.124V314.9Z" fill="#EBEBEB"/>
<path d="M128.026 314.9H131.818V280.284H128.026V314.9Z" fill="#FAFAFA"/>
<path d="M100.373 314.9H107.957V277.668H100.373V314.9Z" fill="#EBEBEB"/>
<path d="M92.7871 314.9H100.371V280.284H92.7871V314.9Z" fill="#E6E6E6"/>
<path d="M76.5098 314.9H84.0938V280.284H76.5098V314.9Z" fill="#E6E6E6"/>
<path d="M84.0931 314.9H88.9941V277.668H84.0931V314.9Z" fill="#FAFAFA"/>
<path d="M88.9951 314.9H92.7871V280.284H88.9951V314.9Z" fill="#EBEBEB"/>
<path d="M72.7178 314.9H76.5098V278.549H72.7178V314.9Z" fill="#EBEBEB"/>
<path d="M80.3008 327.569H72.7168V364.801H80.3008V327.569Z" fill="#EBEBEB"/>
<path d="M111.748 327.569H104.164V364.801H111.748V327.569Z" fill="#FAFAFA"/>
<path d="M87.8848 330.186H80.3008V364.802H87.8848V330.186Z" fill="#FAFAFA"/>
<path d="M104.162 330.186H96.5781V364.802H104.162V330.186Z" fill="#EBEBEB"/>
<path d="M96.5787 327.569H91.6777V364.801H96.5787V327.569Z" fill="#FAFAFA"/>
<path d="M91.6787 330.186H87.8867V364.802H91.6787V330.186Z" fill="#F5F5F5"/>
<path d="M119.332 327.569H111.748V364.801H119.332V327.569Z" fill="#EBEBEB"/>
<path d="M126.916 330.186H119.332V364.802H126.916V330.186Z" fill="#F5F5F5"/>
<path d="M143.193 330.186H135.609V364.802H143.193V330.186Z" fill="#E6E6E6"/>
<path d="M135.61 327.569H130.709V364.801H135.61V327.569Z" fill="#FAFAFA"/>
<path d="M151.887 327.569H146.986V364.801H151.887V327.569Z" fill="#FAFAFA"/>
<path d="M130.71 330.186H126.918V364.802H130.71V330.186Z" fill="#EBEBEB"/>
<path d="M146.987 328.451H143.195V364.802H146.987V328.451Z" fill="#EBEBEB"/>
<path d="M81.1776 198.288C81.1776 198.288 79.9046 198.874 79.3226 200.058C78.7406 201.242 80.5456 203.428 80.5456 203.428C80.5456 203.428 82.0606 204.483 83.5666 203.799C85.0726 203.115 85.0726 203.115 85.0726 203.115C85.0726 203.115 82.4976 198.647 81.2476 198.602L81.1776 198.288Z" fill="#E6E6E6"/>
<path d="M87.6249 198.253C87.8089 200.372 86.4949 203.046 84.6029 203.21C82.7109 203.374 80.9569 200.967 80.7729 198.847C80.5889 196.728 82.1169 196.521 84.0089 196.357C85.8999 196.193 87.4409 196.134 87.6249 198.253Z" fill="#E6E6E6"/>
<path d="M82.0818 197.629C82.0818 197.629 83.5278 198.781 86.5068 198.108C86.5068 198.108 81.8078 201.243 82.0818 197.629Z" fill="#E6E6E6"/>
<path d="M83.3574 197.208C83.3574 197.208 85.0254 196.918 85.0494 197.614C85.0494 197.614 86.4644 197.535 86.2684 196.943C86.0734 196.351 83.3574 197.208 83.3574 197.208Z" fill="#E6E6E6"/>
<g opacity="0.2">
<path d="M82.0818 197.629C82.0818 197.629 83.5278 198.781 86.5068 198.108C86.5068 198.108 81.8078 201.243 82.0818 197.629Z" fill="#FAFAFA"/>
</g>
<g opacity="0.2">
<path d="M83.3574 197.208C83.3574 197.208 85.0254 196.918 85.0494 197.614C85.0494 197.614 86.4644 197.535 86.2684 196.943C86.0734 196.351 83.3574 197.208 83.3574 197.208Z" fill="#FAFAFA"/>
</g>
<path d="M81.4258 203.88C82.0278 204.856 83.2558 205.358 84.3938 205.222C85.5328 205.086 86.5578 204.375 87.2148 203.435C87.8718 202.495 88.1848 201.346 88.2578 200.202C88.2768 199.906 88.2998 199.165 87.9098 199.05C87.5518 198.945 87.3308 199.446 87.1648 199.679C86.6878 200.351 86.1818 200.98 85.5748 201.541C84.9858 202.084 84.3348 202.56 83.6378 202.954C83.4418 203.064 81.5318 204.052 81.4258 203.88Z" fill="#E6E6E6"/>
<path d="M89.5443 199.648C89.9023 200.507 89.7723 201.552 89.2133 202.296C88.8463 202.785 88.3263 203.134 87.8023 203.45C87.4383 203.67 86.9693 203.878 86.6123 203.647C86.2273 203.398 86.2623 202.832 86.3503 202.382C86.4863 201.689 86.6413 200.999 86.8153 200.314C86.9583 199.752 87.0443 198.812 87.3733 198.335C87.6833 197.886 88.1223 198.152 88.5903 198.478C89.0073 198.769 89.3483 199.176 89.5443 199.648Z" fill="#E6E6E6"/>
<g opacity="0.2">
<path d="M81.9107 202.706C81.1797 202.675 80.4887 202.18 80.2227 201.499C80.0267 200.995 80.0297 199.716 80.6827 199.554C80.9717 200.689 81.2217 201.721 81.9107 202.706Z" fill="#FAFAFA"/>
</g>
<g opacity="0.2">
<path d="M86.8418 202.655C87.5318 202.458 88.1058 201.894 88.3158 201.208C88.4318 200.829 88.2848 198.892 87.7098 199.706C87.5218 199.972 87.5568 200.822 87.4588 201.166C87.3118 201.683 87.1048 202.185 86.8418 202.655Z" fill="#FAFAFA"/>
</g>
<g opacity="0.2">
<path d="M84.1995 203.851C84.7335 204.305 85.5865 204.327 86.1425 203.901C86.0695 204.276 84.8895 204.589 84.5235 204.696C83.5705 204.976 83.0715 204.557 82.1465 204.171C82.1465 204.171 83.6115 204.394 84.1995 203.851Z" fill="#FAFAFA"/>
</g>
<path d="M82.5449 242.801L82.6349 213.949L84.1149 205.175L84.6769 205.27L83.2039 214.004L83.0999 243.349L82.5449 242.801Z" fill="#E0E0E0"/>
<path d="M83.1469 213.803L82.6949 214.15C82.2419 213.56 81.8339 212.79 81.3619 211.898C80.6319 210.52 79.8039 208.957 78.5469 207.575L78.9689 207.192C80.2739 208.628 81.1199 210.224 81.8659 211.632C82.3249 212.501 82.7229 213.251 83.1469 213.803Z" fill="#E0E0E0"/>
<path d="M83.495 209.933C84.263 209.731 84.951 209.242 85.394 208.583C85.897 207.835 86.072 206.92 86.236 206.034C85.24 206.332 84.17 205.848 83.138 205.967C82.315 206.062 81.548 206.563 81.132 207.28C80.593 208.208 80.374 209.261 80.85 209.686C81.242 210.035 82.468 210.203 83.495 209.933Z" fill="#E6E6E6"/>
<path d="M79.6612 207.941C78.7412 208.524 77.5582 208.672 76.5232 208.334C75.4882 207.997 75.1862 206.441 74.7852 205.428C75.7242 205.235 78.1092 205.37 78.6492 205.424C79.1892 205.478 79.7372 205.722 80.0282 206.18C80.3182 206.638 80.2651 207.326 79.8251 207.643C79.7951 207.625 79.6612 207.941 79.6612 207.941Z" fill="#E6E6E6"/>
<path d="M74.9274 209.626C75.5604 208.86 77.1204 208.305 78.0974 208.483C79.0744 208.661 79.9084 209.334 80.2584 210.133C80.0004 210.753 79.3084 211.104 78.6384 211.152C77.9684 211.2 77.3074 211.002 76.6644 210.806C76.0224 210.61 75.3614 210.411 74.6914 210.459L74.9274 209.626Z" fill="#E6E6E6"/>
<path d="M94.1762 204.666C94.1762 204.666 95.2202 205.601 95.4282 206.903C95.6362 208.206 93.2682 209.765 93.2682 209.765C93.2682 209.765 91.5092 210.328 90.2712 209.232C89.0332 208.135 89.0332 208.135 89.0332 208.135C89.0332 208.135 92.8082 204.621 94.0152 204.946L94.1762 204.666Z" fill="#E6E6E6"/>
<path d="M88.0231 202.737C87.2241 204.709 87.6941 207.65 89.4551 208.363C91.2151 209.076 93.6001 207.291 94.3981 205.319C95.1971 203.348 93.7971 202.701 92.0371 201.988C90.2771 201.275 88.8221 200.765 88.0231 202.737Z" fill="#E6E6E6"/>
<path d="M93.5058 203.77C93.5058 203.77 91.7848 204.446 89.1348 202.927C89.1348 202.927 92.7038 207.304 93.5058 203.77Z" fill="#E6E6E6"/>
<path d="M92.4097 202.992C92.4097 202.992 90.9017 202.224 90.6727 202.882C90.6727 202.882 89.3437 202.391 89.7047 201.882C90.0667 201.375 92.4097 202.992 92.4097 202.992Z" fill="#E6E6E6"/>
<g opacity="0.2">
<path d="M93.5058 203.77C93.5058 203.77 91.7848 204.446 89.1348 202.927C89.1348 202.927 92.7038 207.304 93.5058 203.77Z" fill="#FAFAFA"/>
</g>
<g opacity="0.2">
<path d="M92.4097 202.992C92.4097 202.992 90.9017 202.224 90.6727 202.882C90.6727 202.882 89.3437 202.391 89.7047 201.882C90.0667 201.375 92.4097 202.992 92.4097 202.992Z" fill="#FAFAFA"/>
</g>
<path d="M92.2929 209.937C91.4309 210.693 90.1099 210.812 89.0609 210.347C88.0129 209.882 87.2419 208.901 86.8899 207.809C86.5379 206.718 86.5769 205.527 86.8439 204.412C86.9129 204.123 87.1089 203.408 87.5159 203.414C87.8899 203.419 87.9529 203.962 88.0429 204.234C88.3019 205.017 88.5999 205.766 89.0159 206.481C89.4189 207.173 89.9019 207.819 90.4519 208.401C90.6069 208.565 92.1409 210.071 92.2929 209.937Z" fill="#E6E6E6"/>
<path d="M85.7786 203.505C85.1836 204.221 85.0016 205.258 85.3166 206.134C85.5236 206.709 85.9186 207.196 86.3256 207.652C86.6096 207.969 86.9966 208.306 87.4056 208.19C87.8476 208.065 87.9806 207.514 88.0276 207.058C88.1016 206.355 88.1566 205.651 88.1916 204.945C88.2206 204.366 88.4146 203.442 88.2396 202.89C88.0756 202.37 87.5776 202.495 87.0346 202.669C86.5496 202.823 86.1046 203.112 85.7786 203.505Z" fill="#E6E6E6"/>
<g opacity="0.2">
<path d="M92.1758 208.673C92.8838 208.858 93.6888 208.589 94.1438 208.015C94.4798 207.591 94.8518 206.368 94.2758 206.021C93.6648 207.021 93.1228 207.934 92.1758 208.673Z" fill="#FAFAFA"/>
</g>
<g opacity="0.2">
<path d="M87.4781 207.174C86.8761 206.783 86.4931 206.075 86.4941 205.357C86.4941 204.961 87.2051 203.152 87.5151 204.099C87.6161 204.408 87.3331 205.211 87.3251 205.568C87.3141 206.107 87.3651 206.648 87.4781 207.174Z" fill="#FAFAFA"/>
</g>
<g opacity="0.2">
<path d="M89.6505 209.094C89.0075 209.371 88.1855 209.141 87.7785 208.571C87.7375 208.95 88.7735 209.597 89.0925 209.807C89.9215 210.355 90.5205 210.101 91.5185 210.004C91.5185 210.004 90.0535 209.786 89.6505 209.094Z" fill="#FAFAFA"/>
</g>
<path d="M81.7266 238.493L82.0856 237.311L82.5706 235.719L83.1316 233.861L87.6176 219.09L88.1786 214.851L88.6766 211.09L88.7796 210.309L89.0586 210.345L89.0626 210.349L89.3456 210.385L89.3376 210.453L89.2376 211.189L88.7086 215.209L88.2746 218.485L88.1786 219.205L88.1436 219.321L83.1286 235.819L82.5626 237.67L82.3036 238.529L81.9456 239.704L81.7266 238.493Z" fill="#E0E0E0"/>
<path d="M87.7344 218.917L88.0644 219.382C88.6704 218.951 89.2874 218.335 90.0004 217.622C91.1034 216.519 92.3544 215.27 93.9624 214.317L93.6724 213.827C92.0024 214.815 90.7254 216.092 89.5984 217.219C88.9024 217.913 88.3024 218.514 87.7344 218.917Z" fill="#E0E0E0"/>
<path d="M88.539 215.115C87.865 214.696 87.351 214.026 87.12 213.267C86.859 212.404 86.961 211.478 87.065 210.583C87.93 211.16 89.094 211.013 90.046 211.43C90.805 211.762 91.39 212.467 91.577 213.274C91.819 214.32 91.719 215.39 91.139 215.657C90.663 215.875 89.441 215.675 88.539 215.115Z" fill="#E6E6E6"/>
<path d="M92.7886 214.339C93.4976 215.166 94.5836 215.656 95.6726 215.638C96.7616 215.62 97.5076 214.221 98.1886 213.371C97.3476 212.911 95.0286 212.338 94.4966 212.231C93.9646 212.124 93.3686 212.196 92.9566 212.548C92.5446 212.901 92.3936 213.574 92.7206 214.006C92.7526 213.997 92.7886 214.339 92.7886 214.339Z" fill="#E6E6E6"/>
<path d="M96.8182 217.341C96.4382 216.423 95.1112 215.433 94.1242 215.316C93.1382 215.199 92.1432 215.597 91.5742 216.258C91.6392 216.927 92.1972 217.465 92.8232 217.708C93.4492 217.951 94.1392 217.956 94.8112 217.957C95.4832 217.958 96.1722 217.963 96.7992 218.205L96.8182 217.341Z" fill="#E6E6E6"/>
<path d="M73.9223 203.513C73.9223 203.513 72.7753 204.319 72.4153 205.588C72.0553 206.857 74.2243 208.684 74.2243 208.684C74.2243 208.684 75.9043 209.45 77.2623 208.506C78.6203 207.562 78.6203 207.562 78.6203 207.562C78.6203 207.562 75.2843 203.629 74.0473 203.81L73.9223 203.513Z" fill="#E6E6E6"/>
<path d="M80.2596 202.32C80.8206 204.372 80.0086 207.238 78.1766 207.739C76.3446 208.24 74.1866 206.187 73.6256 204.135C73.0636 202.083 74.5296 201.606 76.3616 201.104C78.1936 200.602 79.6976 200.268 80.2596 202.32Z" fill="#E6E6E6"/>
<path d="M74.6953 202.702C74.6953 202.702 76.3253 203.575 79.1353 202.378C79.1353 202.378 75.0753 206.306 74.6953 202.702Z" fill="#E6E6E6"/>
<path d="M75.873 202.058C75.873 202.058 77.461 201.473 77.61 202.153C77.61 202.153 78.988 201.821 78.689 201.274C78.39 200.728 75.873 202.058 75.873 202.058Z" fill="#E6E6E6"/>
<g opacity="0.2">
<path d="M74.6953 202.702C74.6953 202.702 76.3253 203.575 79.1353 202.378C79.1353 202.378 75.0753 206.306 74.6953 202.702Z" fill="#FAFAFA"/>
</g>
<g opacity="0.2">
<path d="M75.873 202.058C75.873 202.058 77.461 201.473 77.61 202.153C77.61 202.153 78.988 201.821 78.689 201.274C78.39 200.728 75.873 202.058 75.873 202.058Z" fill="#FAFAFA"/>
</g>
<path d="M75.1719 208.969C75.9399 209.821 77.2369 210.094 78.3329 209.756C79.4289 209.418 80.3089 208.534 80.7869 207.491C81.2639 206.448 81.3659 205.262 81.2319 204.123C81.1969 203.828 81.0869 203.095 80.6819 203.053C80.3109 203.014 80.1839 203.546 80.0619 203.806C79.7129 204.553 79.3289 205.262 78.8319 205.923C78.3499 206.563 77.7949 207.148 77.1799 207.661C77.0079 207.804 75.3079 209.119 75.1719 208.969Z" fill="#E6E6E6"/>
<path d="M82.3984 203.347C82.9054 204.128 82.9644 205.179 82.5484 206.012C82.2754 206.559 81.8264 206.996 81.3674 207.4C81.0484 207.681 80.6244 207.971 80.2314 207.808C79.8074 207.632 79.7404 207.069 79.7464 206.61C79.7554 205.904 79.7844 205.197 79.8324 204.492C79.8714 203.914 79.7874 202.973 80.0254 202.445C80.2494 201.948 80.7294 202.131 81.2484 202.367C81.7124 202.579 82.1204 202.918 82.3984 203.347Z" fill="#E6E6E6"/>
<g opacity="0.2">
<path d="M75.4369 207.727C74.7119 207.828 73.9439 207.465 73.5599 206.843C73.2759 206.382 73.0499 205.124 73.6629 204.847C74.1509 205.912 74.5819 206.882 75.4369 207.727Z" fill="#FAFAFA"/>
</g>
<g opacity="0.2">
<path d="M80.2793 206.791C80.9233 206.473 81.3863 205.816 81.4693 205.102C81.5153 204.708 81.0223 202.829 80.6023 203.733C80.4653 204.029 80.6523 204.859 80.6183 205.215C80.5673 205.751 80.4533 206.281 80.2793 206.791Z" fill="#FAFAFA"/>
</g>
<g opacity="0.2">
<path d="M77.8946 208.442C78.5006 208.792 79.3446 208.661 79.8146 208.142C79.8106 208.523 78.7056 209.044 78.3646 209.215C77.4776 209.662 76.9116 209.339 75.9316 209.125C75.9316 209.125 77.4136 209.082 77.8946 208.442Z" fill="#FAFAFA"/>
</g>
<path d="M83.2648 247.056L78.1708 218.657L78.0488 209.76L78.6188 209.752L78.7398 218.609L83.9098 247.495L83.2648 247.056Z" fill="#E0E0E0"/>
<path d="M78.645 218.422L78.262 218.845C77.71 218.346 77.171 217.662 76.546 216.869C75.58 215.644 74.485 214.256 73 213.122L73.346 212.669C74.888 213.847 76.007 215.265 76.994 216.516C77.603 217.288 78.129 217.955 78.645 218.422Z" fill="#E0E0E0"/>
<path d="M78.2923 214.552C79.0113 214.215 79.6003 213.61 79.9183 212.883C80.2793 212.057 80.2863 211.126 80.2883 210.224C79.3623 210.696 78.2223 210.412 77.2283 210.714C76.4353 210.955 75.7713 211.586 75.4913 212.366C75.1283 213.376 75.1013 214.451 75.6463 214.784C76.0933 215.058 77.3303 215.003 78.2923 214.552Z" fill="#E6E6E6"/>
<path d="M74.1631 213.282C73.3621 214.02 72.2251 214.378 71.1461 214.233C70.0671 214.087 69.4901 212.611 68.9141 211.686C69.8031 211.328 72.1741 211.032 72.7151 210.988C73.2561 210.944 73.8391 211.085 74.2071 211.484C74.5751 211.883 74.6461 212.569 74.2701 212.96C74.2391 212.946 74.1631 213.282 74.1631 213.282Z" fill="#E6E6E6"/>
<path d="M69.8096 215.79C70.2946 214.923 71.7296 214.096 72.7226 214.096C73.7156 214.095 74.6566 214.607 75.1446 215.331C75.0016 215.987 74.3836 216.456 73.7336 216.624C73.0826 216.792 72.3976 216.716 71.7306 216.638C71.0636 216.56 70.3776 216.484 69.7266 216.651L69.8096 215.79Z" fill="#E6E6E6"/>
<path d="M85.3544 229.633H79.3754C78.9274 229.624 78.5274 229.912 78.3934 230.34C77.9024 231.891 76.8574 235.97 76.8574 242.395C76.8574 249.454 78.6984 258.824 79.2774 261.592C79.3744 262.058 79.7834 262.393 80.2594 262.397H84.4224C84.8984 262.393 85.3074 262.058 85.4044 261.592C85.9834 258.824 87.8244 249.453 87.8244 242.395C87.8244 235.97 86.7784 231.891 86.2884 230.34C86.1574 229.93 85.7834 229.647 85.3544 229.633Z" fill="#F0F0F0"/>
<path d="M250 427.016C357.082 427.016 443.889 421.947 443.889 415.693C443.889 409.439 357.082 404.37 250 404.37C142.918 404.37 56.1113 409.439 56.1113 415.693C56.1113 421.947 142.918 427.016 250 427.016Z" fill="#F5F5F5"/>
<path d="M120.783 376.773C120.443 376.751 120.178 376.463 120.186 376.119C120.926 346.729 122.442 298.517 122.521 298.253C122.622 297.915 122.978 297.731 123.315 297.823C123.652 297.924 123.846 298.279 123.747 298.617C123.728 298.682 122.197 347.061 121.464 376.152C121.456 376.504 121.162 376.783 120.809 376.775C120.8 376.774 120.792 376.773 120.783 376.773Z" fill="#263238"/>
<path d="M116.833 278.631C117.079 280.895 119.789 288.742 122.053 288.496C124.316 288.25 125.276 280.003 125.03 277.739C124.784 275.476 122.749 273.84 120.486 274.086C118.222 274.333 116.587 276.368 116.833 278.631Z" fill="#407BFF"/>
<path d="M127.82 303.385C127.574 301.121 124.864 293.274 122.6 293.52C120.336 293.766 119.376 302.013 119.622 304.277C119.868 306.54 121.903 308.176 124.166 307.93C126.431 307.684 128.067 305.65 127.82 303.385Z" fill="#407BFF"/>
<path d="M109.949 296.502C112.213 296.256 120.06 293.546 119.814 291.282C119.568 289.019 111.321 288.059 109.058 288.305C106.794 288.551 105.159 290.586 105.405 292.849C105.651 295.113 107.685 296.748 109.949 296.502Z" fill="#407BFF"/>
<path d="M134.703 285.515C132.439 285.761 124.592 288.471 124.838 290.735C125.085 292.999 133.331 293.959 135.595 293.712C137.859 293.466 139.494 291.431 139.248 289.168C139.002 286.905 136.966 285.269 134.703 285.515Z" fill="#407BFF"/>
<path d="M109.69 286.141C111.465 287.568 118.93 291.201 120.357 289.426C121.784 287.651 116.631 281.141 114.857 279.714C113.082 278.288 110.487 278.57 109.06 280.345C107.634 282.119 107.916 284.714 109.69 286.141Z" fill="#407BFF"/>
<path d="M134.962 295.876C133.187 294.449 125.722 290.817 124.295 292.592C122.869 294.366 128.021 300.876 129.796 302.303C131.571 303.729 134.166 303.447 135.592 301.673C137.02 299.898 136.737 297.302 134.962 295.876Z" fill="#407BFF"/>
<path d="M117.46 303.645C118.886 301.87 122.519 294.405 120.744 292.978C118.969 291.551 112.46 296.704 111.033 298.479C109.606 300.254 109.889 302.849 111.664 304.275C113.438 305.702 116.033 305.42 117.46 303.645Z" fill="#407BFF"/>
<path d="M127.194 278.372C125.768 280.147 122.135 287.612 123.91 289.039C125.685 290.465 132.195 285.313 133.621 283.538C135.048 281.763 134.765 279.168 132.99 277.742C131.216 276.315 128.62 276.598 127.194 278.372Z" fill="#407BFF"/>
<g opacity="0.6">
<path d="M116.833 278.631C117.079 280.895 119.789 288.742 122.053 288.496C124.316 288.25 125.276 280.003 125.03 277.739C124.784 275.476 122.749 273.84 120.486 274.086C118.222 274.333 116.587 276.368 116.833 278.631Z" fill="white"/>
<path d="M127.82 303.385C127.574 301.121 124.864 293.274 122.6 293.52C120.336 293.766 119.376 302.013 119.622 304.277C119.868 306.54 121.903 308.176 124.166 307.93C126.431 307.684 128.067 305.65 127.82 303.385Z" fill="white"/>
<path d="M109.949 296.502C112.213 296.256 120.06 293.546 119.814 291.282C119.568 289.019 111.321 288.059 109.058 288.305C106.794 288.551 105.159 290.586 105.405 292.849C105.651 295.113 107.685 296.748 109.949 296.502Z" fill="white"/>
<path d="M134.703 285.515C132.439 285.761 124.592 288.471 124.838 290.735C125.085 292.999 133.331 293.959 135.595 293.712C137.859 293.466 139.494 291.431 139.248 289.168C139.002 286.905 136.966 285.269 134.703 285.515Z" fill="white"/>
<path d="M109.69 286.141C111.465 287.568 118.93 291.201 120.357 289.426C121.784 287.651 116.631 281.141 114.857 279.714C113.082 278.288 110.487 278.57 109.06 280.345C107.634 282.119 107.916 284.714 109.69 286.141Z" fill="white"/>
<path d="M134.962 295.876C133.187 294.449 125.722 290.817 124.295 292.592C122.869 294.366 128.021 300.876 129.796 302.303C131.571 303.729 134.166 303.447 135.592 301.673C137.02 299.898 136.737 297.302 134.962 295.876Z" fill="white"/>
<path d="M117.46 303.645C118.886 301.87 122.519 294.405 120.744 292.978C118.969 291.551 112.46 296.704 111.033 298.479C109.606 300.254 109.889 302.849 111.664 304.275C113.438 305.702 116.033 305.42 117.46 303.645Z" fill="white"/>
<path d="M127.194 278.372C125.768 280.147 122.135 287.612 123.91 289.039C125.685 290.465 132.195 285.313 133.621 283.538C135.048 281.763 134.765 279.168 132.99 277.742C131.216 276.315 128.62 276.598 127.194 278.372Z" fill="white"/>
</g>
<path d="M117.472 291.536C117.763 294.217 120.173 296.154 122.854 295.862C125.535 295.571 127.472 293.161 127.18 290.48C126.888 287.799 124.478 285.862 121.798 286.154C119.117 286.446 117.181 288.855 117.472 291.536Z" fill="#407BFF"/>
<path d="M117.951 355.238C112.317 355.362 102.677 350.157 98.8845 345.077C95.0355 339.922 105.829 343.096 104.71 339.043C103.59 334.99 90.3025 338.027 87.8315 332.224C85.3605 326.421 94.9585 327.729 94.5685 324.76C94.1795 321.791 84.2415 322.424 81.0325 316.257C77.8235 310.09 86.5765 313.524 85.1965 310.969C83.8165 308.413 72.8265 297.672 77.4065 295.413C81.9855 293.154 92.2915 304.344 95.7365 305.587C99.1815 306.829 99.9635 299.076 104.452 302.77C108.941 306.465 105.637 322.676 110.915 324.798C114.846 326.379 113.154 318.965 117.68 320.824C125.604 324.078 120.239 355.188 117.951 355.238Z" fill="#407BFF"/>
<g opacity="0.2">
<path d="M117.951 355.238C112.317 355.362 102.677 350.157 98.8845 345.077C95.0355 339.922 105.829 343.096 104.71 339.043C103.59 334.99 90.3025 338.027 87.8315 332.224C85.3605 326.421 94.9585 327.729 94.5685 324.76C94.1795 321.791 84.2415 322.424 81.0325 316.257C77.8235 310.09 86.5765 313.524 85.1965 310.969C83.8165 308.413 72.8265 297.672 77.4065 295.413C81.9855 293.154 92.2915 304.344 95.7365 305.587C99.1815 306.829 99.9635 299.076 104.452 302.77C108.941 306.465 105.637 322.676 110.915 324.798C114.846 326.379 113.154 318.965 117.68 320.824C125.604 324.078 120.239 355.188 117.951 355.238Z" fill="white"/>
</g>
<path d="M126.049 348.089C126.143 348.247 125.3 349.046 128.082 349.161C134.933 349.443 147.046 348.981 151.595 342.752C158.09 333.859 143.11 334.675 144.567 329.771C146.024 324.867 162.116 328.872 165.257 321.871C168.398 314.87 156.694 316.237 157.236 312.635C157.779 309.033 170.059 313.7 174.106 306.274C178.153 298.848 167.426 302.821 169.164 299.744C170.902 296.668 184.52 283.859 179.003 281.004C173.486 278.149 160.689 291.52 156.469 292.951C152.249 294.381 151.273 281.267 145.726 285.656C140.179 290.045 143.819 309.841 137.35 312.299C132.531 314.13 135.16 307.035 129.214 307.307C121.136 307.678 118.48 335.436 126.049 348.089Z" fill="#407BFF"/>
<g opacity="0.3">
<path d="M126.049 348.089C126.143 348.247 125.3 349.046 128.082 349.161C134.933 349.443 147.046 348.981 151.595 342.752C158.09 333.859 143.11 334.675 144.567 329.771C146.024 324.867 162.116 328.872 165.257 321.871C168.398 314.87 156.694 316.237 157.236 312.635C157.779 309.033 170.059 313.7 174.106 306.274C178.153 298.848 167.426 302.821 169.164 299.744C170.902 296.668 184.52 283.859 179.003 281.004C173.486 278.149 160.689 291.52 156.469 292.951C152.249 294.381 151.273 281.267 145.726 285.656C140.179 290.045 143.819 309.841 137.35 312.299C132.531 314.13 135.16 307.035 129.214 307.307C121.136 307.678 118.48 335.436 126.049 348.089Z" fill="white"/>
</g>
<path d="M120.915 372.332C120.903 372.331 120.891 372.33 120.878 372.329C120.634 372.3 120.46 372.078 120.49 371.833C126.113 325.817 152.62 307.113 152.886 306.93C153.089 306.792 153.366 306.842 153.505 307.045C153.644 307.247 153.593 307.525 153.39 307.664C153.126 307.845 126.945 326.347 121.374 371.941C121.346 372.173 121.145 372.341 120.915 372.332Z" fill="#263238"/>
<path d="M146.856 313.323C146.675 313.316 146.509 313.197 146.45 313.016C146.374 312.782 146.502 312.531 146.736 312.455C146.901 312.401 150.848 311.153 157.315 312.526C157.556 312.577 157.71 312.814 157.659 313.054C157.608 313.295 157.371 313.45 157.131 313.398C150.916 312.08 147.05 313.291 147.012 313.303C146.96 313.318 146.907 313.325 146.856 313.323Z" fill="#263238"/>
<path d="M141.954 318.912C141.718 318.902 141.53 318.71 141.527 318.471C141.39 304.554 149.446 293.681 149.528 293.573C149.675 293.377 149.955 293.337 150.152 293.485C150.349 293.633 150.388 293.912 150.241 294.109C150.161 294.215 142.285 304.858 142.419 318.463C142.421 318.709 142.224 318.91 141.978 318.913C141.97 318.913 141.962 318.912 141.954 318.912Z" fill="#263238"/>
<path d="M134.06 330.691C133.948 330.686 133.837 330.64 133.754 330.551C133.585 330.373 133.593 330.091 133.772 329.921C133.832 329.865 139.796 324.351 147.606 327.149C147.837 327.232 147.959 327.487 147.876 327.719C147.793 327.95 147.537 328.072 147.305 327.988C140.004 325.369 134.439 330.516 134.384 330.569C134.294 330.655 134.176 330.695 134.06 330.691Z" fill="#263238"/>
<path d="M129.935 338.908C129.769 338.901 129.613 338.801 129.544 338.638C129.419 338.346 126.498 331.349 128.108 321.38C128.148 321.138 128.367 320.968 128.619 321.012C128.862 321.051 129.027 321.279 128.988 321.522C127.422 331.222 130.334 338.219 130.364 338.288C130.46 338.514 130.355 338.776 130.129 338.872C130.065 338.899 129.999 338.91 129.935 338.908Z" fill="#263238"/>
<path d="M121.094 388.769C120.863 388.76 120.675 388.572 120.668 388.338L120.09 376.15C118.385 335.625 90.5874 308.062 90.3064 307.789C90.1304 307.617 90.1264 307.335 90.2984 307.159C90.4714 306.983 90.7524 306.98 90.9284 307.151C91.2114 307.427 119.259 335.225 120.98 376.118L121.558 388.311C121.566 388.557 121.373 388.762 121.127 388.771C121.116 388.77 121.105 388.769 121.094 388.769Z" fill="#263238"/>
<path d="M101.771 323.012C101.747 323.011 101.722 323.008 101.698 323.003C101.659 322.995 101.611 322.976 101.568 322.953L101.424 322.895C97.7846 321.383 93.7186 320.599 89.9766 320.681C89.7266 320.693 89.5266 320.492 89.5216 320.245C89.5156 319.999 89.7106 319.796 89.9566 319.79C93.8206 319.707 98.0146 320.514 101.766 322.072L101.914 322.133C101.941 322.143 101.966 322.155 101.99 322.169C102.165 322.258 102.266 322.456 102.224 322.657C102.179 322.875 101.984 323.021 101.771 323.012Z" fill="#263238"/>
<path d="M105.702 328.231C105.695 328.231 105.687 328.23 105.68 328.229C105.435 328.208 105.254 327.99 105.276 327.746C106.352 315.785 100.158 305.944 100.095 305.846C99.9634 305.639 100.023 305.363 100.23 305.231C100.439 305.099 100.713 305.159 100.845 305.366C100.909 305.466 107.268 315.553 106.163 327.826C106.142 328.064 105.938 328.241 105.702 328.231Z" fill="#263238"/>
<path d="M109.757 335.16C109.649 335.156 109.541 335.111 109.459 335.029C109.414 334.983 104.9 330.528 98.2944 332.288C98.0554 332.353 97.8124 332.209 97.7494 331.972C97.6864 331.734 97.8274 331.49 98.0654 331.427C105.186 329.527 109.897 334.203 110.093 334.403C110.266 334.578 110.264 334.859 110.089 335.033C109.997 335.122 109.877 335.165 109.757 335.16Z" fill="#263238"/>
<path d="M114.907 346.58C114.843 346.577 114.779 346.561 114.719 346.53C114.501 346.416 114.417 346.147 114.531 345.929C114.562 345.869 117.621 339.89 116.924 331.264C116.904 331.019 117.086 330.804 117.332 330.785C117.579 330.755 117.792 330.947 117.812 331.193C118.532 340.089 115.452 346.091 115.321 346.343C115.238 346.499 115.074 346.586 114.907 346.58Z" fill="#263238"/>
<path d="M146.156 390.688C146.156 404.902 139.763 416.43 120.402 416.43C101.924 416.43 94.6484 404.902 94.6484 390.688C94.6484 385.327 96.2954 380.34 99.0984 376.217H141.706C144.509 380.34 146.156 385.327 146.156 390.688Z" fill="#407BFF"/>
<path opacity="0.7" d="M146.156 390.688C146.156 404.902 139.763 416.43 120.402 416.43C101.924 416.43 94.6484 404.902 94.6484 390.688C94.6484 385.327 96.2954 380.34 99.0984 376.217H141.706C144.509 380.34 146.156 385.327 146.156 390.688Z" fill="white"/>
<path d="M294.102 403.863L304.062 402.409L301.547 379.108L291.586 380.562L294.102 403.863Z" fill="#E8BFBF"/>
<path d="M311.718 402.758C312.583 402.694 313.401 402.339 314.038 401.75C314.31 401.407 314.396 400.952 314.268 400.534C314.211 400.272 314.022 400.058 313.768 399.97C312.437 399.495 308.794 402.179 308.387 402.482C308.308 402.546 308.274 402.649 308.299 402.747C308.333 402.841 308.422 402.904 308.522 402.905C309.589 402.953 310.659 402.904 311.718 402.758ZM313.119 400.422C313.269 400.385 313.426 400.39 313.573 400.434C313.678 400.467 313.756 400.554 313.779 400.662C313.861 400.938 313.806 401.237 313.631 401.466C313.119 402.104 311.493 402.464 309.225 402.463C310.406 401.559 311.733 400.864 313.149 400.407L313.119 400.422Z" fill="#407BFF"/>
<path d="M308.578 402.916L308.66 402.878C309.765 402.15 311.758 399.613 311.384 398.517C311.269 398.272 311.061 397.958 310.393 397.995C309.91 398.003 309.452 398.217 309.135 398.582C308.056 399.82 308.27 402.548 308.273 402.659C308.27 402.743 308.307 402.823 308.373 402.874C308.431 402.92 308.507 402.935 308.578 402.916ZM310.253 398.496L310.386 398.434C310.826 398.416 310.877 398.579 310.891 398.634C311.126 399.297 309.805 401.246 308.705 402.146C308.603 400.999 308.87 399.849 309.465 398.863C309.678 398.641 309.966 398.506 310.273 398.486L310.253 398.496Z" fill="#407BFF"/>
<path d="M303.044 398.284L294.211 400.389C293.813 400.471 293.542 400.841 293.585 401.245L293.87 414.026C293.993 414.922 294.819 415.548 295.714 415.425C295.776 415.416 295.838 415.404 295.898 415.389C299.724 414.436 301.53 413.786 306.395 412.664C309.376 411.978 318.823 411.266 322.693 409.542C326.562 407.819 325.055 403.897 323.29 404.267C317.614 405.488 310.321 403.058 306.178 399.359C305.616 399.084 303.65 398.127 303.044 398.284Z" fill="#263238"/>
<path opacity="0.2" d="M301.546 379.108L302.842 391.118L292.883 392.583L291.576 380.575L301.546 379.108Z" fill="black"/>
<path d="M306.867 386.175L288.438 389.616C288.438 389.616 279.489 376.84 277.8 367.767C276.042 358.32 277.921 326.158 277.8 325.731C272.587 308.134 258.425 262.53 251.586 245.75C247.799 236.45 245.141 230.189 245.141 230.189L247.056 229.759L262.099 223.597L273.061 225.663C273.061 225.663 306.374 293.025 309.866 318.366C312.472 337.287 306.867 386.175 306.867 386.175Z" fill="#407BFF"/>
<path opacity="0.3" d="M306.867 386.175L288.438 389.616C288.438 389.616 279.489 376.84 277.8 367.767C276.042 358.32 277.921 326.158 277.8 325.731C272.587 308.134 258.425 262.53 251.586 245.75C247.799 236.45 245.141 230.189 245.141 230.189L247.056 229.759L262.099 223.597L273.061 225.663C273.061 225.663 306.374 293.025 309.866 318.366C312.472 337.287 306.867 386.175 306.867 386.175Z" fill="white"/>
<path opacity="0.2" d="M273.459 310.491C268.246 292.894 257.732 266.199 250.892 249.418L246.361 233.428L245.49 230.352L247.076 233.258L264.93 272.804C272.808 287.946 273.579 310.918 273.459 310.491Z" fill="black"/>
<path d="M192.572 398.376L201.449 402.116L210.923 381.789L202.046 378.049L192.572 398.376Z" fill="#E8BFBF"/>
<path d="M207.232 406.371C207.936 406.811 208.768 406.999 209.593 406.904C209.997 406.793 210.32 406.49 210.458 406.095C210.563 405.86 210.537 405.588 210.391 405.377C209.632 404.258 205.302 404.272 204.817 404.275C204.72 404.28 204.635 404.34 204.599 404.43C204.572 404.522 204.605 404.621 204.682 404.678C205.478 405.319 206.332 405.886 207.232 406.371ZM209.634 405.359C209.77 405.415 209.889 405.507 209.978 405.625C210.04 405.71 210.052 405.822 210.008 405.917C209.915 406.177 209.704 406.376 209.439 406.454C208.683 406.657 207.224 406.016 205.474 404.734C206.897 404.704 208.315 404.917 209.666 405.364L209.634 405.359Z" fill="#407BFF"/>
<path d="M204.719 404.718L204.804 404.735C206.069 404.798 209.041 403.965 209.372 402.907C209.422 402.653 209.438 402.292 208.902 401.944C208.524 401.677 208.05 401.583 207.599 401.686C206.066 402.032 204.689 404.26 204.628 404.347C204.578 404.41 204.562 404.493 204.584 404.57C204.602 404.638 204.653 404.692 204.719 404.718ZM208.51 402.252L208.648 402.279C208.998 402.514 208.946 402.668 208.925 402.719C208.731 403.364 206.61 404.122 205.252 404.195C205.822 403.252 206.677 402.515 207.694 402.09C207.984 402.039 208.283 402.098 208.531 402.256L208.51 402.252Z" fill="#407BFF"/>
<path d="M203.063 398.013L195.053 394.646C194.7 394.485 194.281 394.617 194.086 394.953L187.083 404.982C186.672 405.743 186.955 406.693 187.716 407.105C187.769 407.134 187.823 407.159 187.879 407.181C191.372 408.607 193.133 409.126 197.524 411.01C200.214 412.165 207.911 416.955 211.872 417.811C215.833 418.668 216.887 414.787 215.314 414.075C210.241 411.809 205.983 405.811 204.875 400.614C204.596 400.085 203.619 398.235 203.063 398.013Z" fill="#263238"/>
<path opacity="0.2" d="M211.311 382.028L206.175 392.384L197.387 388.44L202.514 378.08L211.311 382.028Z" fill="black"/>
<path d="M213.159 393.314L195.479 383.889C195.479 383.889 192.089 371.302 195.479 363.273C202.003 347.821 218.976 325.102 219.091 324.674C223.62 306.888 231.565 258.182 234.278 240.265C235.785 230.337 236.67 228.195 236.67 228.195L238.535 228.806L265.588 228.86C265.588 228.86 270.692 269.827 251.132 333.257C246.265 349.039 238.112 362.161 224.697 379.912C219.602 386.652 213.159 393.314 213.159 393.314Z" fill="#407BFF"/>
<path opacity="0.3" d="M213.159 393.314L195.479 383.889C195.479 383.889 192.089 371.302 195.479 363.273C202.003 347.821 218.976 325.102 219.091 324.674C223.62 306.888 231.565 258.182 234.278 240.265C235.785 230.337 236.67 228.195 236.67 228.195L238.535 228.806L265.588 228.86C265.588 228.86 270.692 269.827 251.132 333.257C246.265 349.039 238.112 362.161 224.697 379.912C219.602 386.652 213.159 393.314 213.159 393.314Z" fill="white"/>
<path d="M289.557 195.386C289.755 192.348 291.77 188.435 293.508 186.626C294.066 186.048 296.175 185.168 297.37 184.39C303.244 180.536 315 175.729 315 175.729L318.628 178.892C318.628 178.892 311.467 185.814 307.207 189.133C306.37 189.785 305.4 190.577 304.378 191.414C302.526 192.96 293.803 198.713 292.138 200.155L289.557 195.386Z" fill="#E8BFBF"/>
<path d="M325.342 173.94L318.632 178.898L314.867 176.126C314.867 176.126 316.403 174.169 317.982 172.653C318.675 171.987 319.049 171.07 319.058 170.109C319.071 168.631 319.294 166.916 320.097 165.658C320.117 165.629 320.127 165.599 320.146 165.579C321.601 163.387 325.002 164.046 325.69 166.582L326.659 170.159C327.04 171.571 326.518 173.072 325.342 173.94Z" fill="#E8BFBF"/>
<path d="M291.702 196.727L289.933 198.349C289.382 197.907 288.508 197.199 287.407 196.285C278.787 189.129 257.177 171.771 265.792 166.817C273.176 162.571 281.018 175.565 284.93 179.467C285.726 180.273 287.908 182.789 289.668 185.945C291.505 189.256 292.872 193.267 291.702 196.727Z" fill="#263238"/>
<path d="M289.663 184.391C286.604 186.627 283.992 189.473 282.027 192.712C283.444 197.409 287.013 201.496 291.514 203.448C293.98 197.725 295.129 191.572 294.64 185.359C293.079 185.023 291.223 184.727 289.663 184.391Z" fill="#263238"/>
<path d="M242.209 165.805C239.125 166.796 235.595 166.003 233.616 168.567C231.637 171.131 231.042 174.515 231.045 177.754C231.049 182.259 232.079 186.692 233.104 191.078C234.346 196.397 235.588 201.715 236.83 207.034C237.679 210.67 236.786 227.576 237.692 227.859C237.692 227.859 265.961 227.305 273.049 226.312C273.049 226.312 273.665 208.933 274.234 203.014C274.36 201.701 276.354 196.125 276.588 194.724C277.692 188.122 275.528 183.466 273.242 177.174C273.242 177.174 268.236 167.095 265.792 166.82C261.441 166.329 250.802 163.044 242.209 165.805Z" fill="#263238"/>
<path d="M241.019 174.145C240.919 173.558 235.902 163.423 231.094 170.507C224.401 180.367 223.95 192.747 223.95 192.747C223.95 192.747 219.837 204.785 222.703 207.414C225.569 210.043 228.66 211.735 230.663 210.244C232.665 208.753 233.964 205.774 233.964 205.774C233.964 205.774 242.777 184.46 241.019 174.145Z" fill="#263238"/>
<path d="M240.695 162.046C238.584 163.693 238.862 167.51 241.189 168.833C240.604 170.877 241.288 173.229 242.878 174.641C244.468 176.053 246.884 176.454 248.845 175.631C247.997 177.15 248.953 179.155 250.416 180.095C251.879 181.035 253.687 181.206 255.41 181.437C257.134 181.668 258.955 182.039 260.206 183.247C261.988 180.683 263.769 178.12 265.551 175.556C266.245 174.558 266.964 173.487 267.018 172.273C267.072 171.058 266.148 169.719 264.936 169.808C266.169 168.523 266.194 166.27 264.99 164.958C263.786 163.646 261.539 163.478 260.154 164.596C260.402 163.569 259.8 162.478 258.933 161.874C258.065 161.27 256.985 161.064 255.933 160.961L240.695 162.046Z" fill="#263238"/>
<path d="M243.903 148.995C245.294 154.098 246.982 163.507 243.607 167.226C243.607 167.226 253.155 171.049 259.941 178.721C263.099 175.653 262.771 172.206 261.804 169.685C261.054 167.732 259.443 166.282 257.517 165.464C253.801 163.885 253.769 160.226 254.387 156.719L243.903 148.995Z" fill="#E8BFBF"/>
<path opacity="0.2" d="M245.982 157.685L249.493 158.638C250.997 159.046 252.569 159.139 254.11 158.912C254.096 159.668 253.96 161.274 254.436 162.121C252.42 163.094 249.009 162.426 247.502 160.65C246.878 159.957 246.322 158.554 245.982 157.685Z" fill="black"/>
<path d="M237.088 144.651C240.805 152.495 242.211 155.892 247.933 158.389C256.554 162.163 265.349 155.862 264.046 147.066C262.875 139.155 256.99 127.655 247.84 127.614C241.302 127.55 235.949 132.797 235.885 139.336C235.868 141.176 236.279 142.996 237.088 144.651Z" fill="#E8BFBF"/>
<path d="M241.172 129.671C238.464 128.406 235.098 129.438 232.843 131.422C230.548 133.441 229.151 136.265 227.812 139.012C227.084 140.505 226.349 142.018 226.012 143.645C225.675 145.272 225.772 147.051 226.632 148.473C227.474 149.867 229.042 150.782 230.663 150.877C231.595 150.931 232.686 151.605 232.988 152.489C233.268 153.31 233.135 154.199 233.004 155.052C232.877 155.878 232.756 156.74 233.015 157.533C233.447 158.853 234.859 159.654 236.241 159.788C237.623 159.922 238.996 159.522 240.327 159.126C241.171 158.875 242.02 159.02 242.676 159.608C242.84 159.755 242.974 159.931 243.076 160.125C243.49 160.912 244.689 160.788 245.034 159.968C246.244 157.093 244.483 152.496 241.86 148.988C240.468 147.126 240.544 147.601 239.997 145.341C239.542 143.461 240.231 141.499 241.073 139.757C242.197 137.434 243.641 135.168 243.195 132.395C243.006 131.222 242.248 130.173 241.172 129.671Z" fill="#263238"/>
<path d="M237.324 152.675C238.557 153.987 240.26 154.756 242.06 154.813C244.448 154.865 245.054 152.587 243.901 150.644C242.86 148.892 240.364 146.762 238.202 147.608C236.04 148.455 235.82 151.04 237.324 152.675Z" fill="#E8BFBF"/>
<path d="M252.036 143.255C252.312 143.942 252.858 144.305 253.29 144.128C253.722 143.951 253.828 143.299 253.589 142.633C253.349 141.967 252.769 141.59 252.335 141.76C251.902 141.929 251.778 142.602 252.036 143.255Z" fill="#263238"/>
<path d="M259.354 140.105C259.623 140.794 260.176 141.155 260.601 140.98C261.026 140.805 261.139 140.151 260.9 139.485C260.661 138.819 260.08 138.442 259.653 138.61C259.227 138.777 259.088 139.453 259.354 140.105Z" fill="#263238"/>
<path d="M259.465 138.728L260.855 137.64C260.855 137.64 260.554 139.189 259.465 138.728Z" fill="#263238"/>
<path d="M257.455 141.574C259.154 143.251 260.433 143.558 262.273 144.71C262.22 146.344 260.682 146.719 260.682 146.719L257.455 141.574Z" fill="#ED847E"/>
<path d="M259.904 149.921C260.221 149.802 260.528 149.657 260.822 149.487C260.918 149.436 260.954 149.316 260.903 149.221C260.901 149.218 260.899 149.215 260.898 149.211C260.841 149.116 260.721 149.079 260.62 149.126C259.069 150.027 257.18 150.127 255.543 149.394C255.441 149.34 255.314 149.378 255.259 149.481C255.204 149.583 255.243 149.711 255.346 149.765C256.782 150.425 258.424 150.481 259.904 149.921Z" fill="#263238"/>
<path d="M251.762 137.81C251.752 137.997 251.623 138.157 251.442 138.207C249.524 138.776 248.673 141.21 248.669 141.23C248.593 141.456 248.349 141.578 248.123 141.502C247.897 141.426 247.775 141.182 247.85 140.956C247.924 140.864 248.853 138.072 251.19 137.374C251.418 137.31 251.656 137.439 251.726 137.666C251.75 137.71 251.762 137.76 251.762 137.81Z" fill="#263238"/>
<path d="M260.611 136.633C260.451 136.731 260.247 136.716 260.103 136.596C258.542 135.344 256.057 136.032 256.039 136.04C255.81 136.107 255.57 135.975 255.504 135.746C255.437 135.517 255.569 135.277 255.798 135.211C255.916 135.219 258.739 134.391 260.645 135.915C260.828 136.066 260.857 136.335 260.711 136.522C260.686 136.566 260.652 136.604 260.611 136.633Z" fill="#263238"/>
<path d="M252.16 141.875L253.551 140.794C253.551 140.794 253.236 142.34 252.16 141.875Z" fill="#263238"/>
<path d="M241.769 128.361C239.585 128.536 237.512 129.779 236.327 131.622C235.532 132.859 235.252 134.739 236.428 135.622C236.978 136.035 237.703 136.11 238.389 136.17C241.433 136.437 245.185 134.086 245.185 134.086C244.012 129.116 254.439 125.27 259.579 132.969C261.089 135.231 260.681 136.874 263.192 137.919C264.374 138.411 265.932 138.275 266.689 139.308C267.945 141.021 265.531 143.922 267.064 145.393C268.113 146.399 270.491 146.015 270.637 147.461C270.706 148.141 270.261 149.125 270.915 149.324C271.277 149.434 271.61 149.103 271.844 148.806C272.409 148.088 272.991 147.337 273.185 146.445C273.379 145.552 273.061 144.477 272.23 144.099C271.591 143.808 269.902 144.133 270.017 144.825C270.155 145.658 269.44 141.57 269.76 140.025C270.039 138.68 271.324 137.514 270.934 136.196C270.519 134.79 268.848 134.229 267.399 134.014C265.949 133.799 264.304 133.623 263.413 132.459C262.418 131.159 262.87 129.302 262.551 127.696C262.144 125.654 260.441 124.063 258.53 123.235C252.733 120.72 243.765 121.077 241.769 128.361Z" fill="#263238"/>
<path d="M258.235 155.044L238.24 165.089C231.666 168.391 228.692 176.156 231.378 183.006L241.021 207.599C243.707 214.448 251.169 218.129 258.238 216.09L279.74 209.889C287.798 207.566 292.111 198.821 289.05 191.014L277.9 162.577C274.839 154.771 265.728 151.28 258.235 155.044ZM254.931 197.28C250.473 199.025 245.441 196.826 243.693 192.369C241.945 187.912 244.144 182.884 248.602 181.139C253.06 179.394 258.09 181.592 259.838 186.049C261.586 190.506 259.389 195.535 254.931 197.28Z" fill="#D6D6D6"/>
<path d="M258.235 155.044L238.24 165.089C231.666 168.391 228.692 176.156 231.378 183.006L241.021 207.599C243.707 214.448 251.169 218.129 258.238 216.09L279.74 209.889C287.798 207.566 292.111 198.821 289.05 191.014L277.9 162.577C274.839 154.771 265.728 151.28 258.235 155.044ZM254.931 197.28C250.473 199.025 245.441 196.826 243.693 192.369C241.945 187.912 244.144 182.884 248.602 181.139C253.06 179.394 258.09 181.592 259.838 186.049C261.586 190.506 259.389 195.535 254.931 197.28Z" fill="#D6D6D6"/>
<path opacity="0.1" d="M289.054 191.018L277.898 162.582C274.841 154.768 265.729 151.278 258.239 155.043L252.43 157.962L248.528 159.918L238.247 165.088C231.671 168.391 228.693 176.156 231.376 183.007L241.019 207.6C243.712 214.451 251.173 218.127 258.24 216.093L279.747 209.891C281.506 209.38 283.089 208.564 284.455 207.512C285.517 206.706 286.441 205.762 287.217 204.711C290.037 200.916 290.922 195.795 289.054 191.018ZM254.926 197.279C250.473 199.029 245.44 196.827 243.691 192.364C241.941 187.911 244.143 182.879 248.606 181.139C253.058 179.389 258.091 181.591 259.841 186.044C261.581 190.507 259.389 195.53 254.926 197.279Z" fill="white"/>
<path d="M258.442 156.915L239.689 166.335C233.524 169.432 230.735 176.715 233.254 183.14L242.298 206.204C244.817 212.628 251.815 216.08 258.446 214.169L278.612 208.353C286.169 206.174 290.215 197.973 287.344 190.651L276.886 163.98C274.015 156.659 265.469 153.384 258.442 156.915ZM243.693 192.369C241.945 187.912 244.144 182.884 248.602 181.139C253.06 179.394 258.09 181.592 259.838 186.049C261.586 190.506 259.389 195.535 254.931 197.28C250.473 199.025 245.441 196.826 243.693 192.369Z" fill="#D6D6D6"/>
<path opacity="0.1" d="M258.442 156.915L239.689 166.335C233.524 169.432 230.735 176.715 233.254 183.14L242.298 206.204C244.817 212.628 251.815 216.08 258.446 214.169L278.612 208.353C286.169 206.174 290.215 197.973 287.344 190.651L276.886 163.98C274.015 156.659 265.469 153.384 258.442 156.915ZM243.693 192.369C241.945 187.912 244.144 182.884 248.602 181.139C253.06 179.394 258.09 181.592 259.838 186.049C261.586 190.506 259.389 195.535 254.931 197.28C250.473 199.025 245.441 196.826 243.693 192.369Z" fill="#D6D6D6"/>
<path d="M351.618 148.021L351.045 149.068L350.727 149.649L349.822 151.302L350.201 155.533C350.217 155.714 350.196 155.893 350.143 156.058C350.022 156.424 349.744 156.729 349.37 156.876L341.466 159.97C341.093 160.116 340.683 160.083 340.345 159.894C340.236 159.834 340.135 159.759 340.045 159.666L335.578 155.123L335.566 155.11L329.212 157.597L330.133 159.945L323.779 162.432L325.295 166.299L320.617 168.13C320.234 168.28 319.811 168.254 319.456 168.069C319.339 168.011 319.231 167.933 319.133 167.842L316.437 165.306L310.083 167.793L311.599 171.66L304.918 174.275L306.441 178.158C306.69 178.792 306.377 179.508 305.743 179.756L287.446 186.919L279.506 166.671L345.691 140.763L346.726 141.294L350.082 143.017C351.911 143.956 352.606 146.219 351.618 148.021Z" fill="#D6D6D6"/>
<g opacity="0.1">
<path d="M351.618 148.021L351.045 149.068L350.727 149.649L349.822 151.302L350.201 155.533C350.217 155.714 350.196 155.893 350.143 156.058C350.022 156.424 349.744 156.729 349.37 156.876L341.466 159.97C341.093 160.116 340.683 160.083 340.345 159.894C340.236 159.834 340.135 159.759 340.045 159.666L335.578 155.123L335.566 155.11L329.212 157.597L330.133 159.945L323.779 162.432L325.295 166.299L320.617 168.13C320.234 168.28 319.811 168.254 319.456 168.069C319.339 168.011 319.231 167.933 319.133 167.842L316.437 165.306L310.083 167.793L311.599 171.66L304.918 174.275L306.441 178.158C306.69 178.792 306.377 179.508 305.743 179.756L287.446 186.919L279.506 166.671L345.691 140.763L346.726 141.294L350.082 143.017C351.911 143.956 352.606 146.219 351.618 148.021Z" fill="white"/>
</g>
<path d="M351.358 145.716L280.597 173.415L278.535 168.218L346.002 141.808L349.358 143.531C350.636 144.187 351.37 144.796 351.358 145.716Z" fill="#D6D6D6"/>
<path opacity="0.1" d="M351.358 145.716L280.597 173.415L278.535 168.218L346.002 141.808L349.358 143.531C350.636 144.187 351.37 144.796 351.358 145.716Z" fill="black"/>
<path d="M349.961 149.618L349.276 151.156C349.265 151.181 349.26 151.209 349.263 151.236L349.646 155.425C349.66 155.578 349.647 155.73 349.611 155.873C349.599 155.922 349.561 155.961 349.514 155.98L340.921 159.362C340.875 159.38 340.822 159.378 340.779 159.351C340.696 159.299 340.617 159.236 340.547 159.164L335.632 154.226C335.587 154.18 335.519 154.166 335.459 154.19L328.483 156.936C328.4 156.969 328.359 157.062 328.392 157.145L329.222 159.25C329.255 159.333 329.214 159.426 329.131 159.459L323.182 161.801C323.099 161.834 323.059 161.927 323.091 162.01L324.524 165.644C324.557 165.727 324.516 165.82 324.433 165.853L320.068 167.571C320.024 167.589 319.973 167.587 319.931 167.563C319.839 167.51 319.753 167.446 319.674 167.372L316.483 164.431C316.437 164.389 316.372 164.377 316.315 164.4L309.385 167.128C309.302 167.161 309.261 167.254 309.294 167.337L310.762 171.061C310.795 171.144 310.754 171.237 310.671 171.27L284.063 181.741C283.98 181.774 283.887 181.733 283.854 181.651L281.199 174.986C281.166 174.903 281.207 174.809 281.29 174.776L350.626 147.486C350.761 147.433 350.892 147.571 350.832 147.703L349.961 149.618Z" fill="#D6D6D6"/>
<path opacity="0.1" d="M349.961 149.618L349.276 151.156C349.265 151.181 349.26 151.209 349.263 151.236L349.646 155.425C349.66 155.578 349.647 155.73 349.611 155.873C349.599 155.922 349.561 155.961 349.514 155.98L340.921 159.362C340.875 159.38 340.822 159.378 340.779 159.351C340.696 159.299 340.617 159.236 340.547 159.164L335.632 154.226C335.587 154.18 335.519 154.166 335.459 154.19L328.483 156.936C328.4 156.969 328.359 157.062 328.392 157.145L329.222 159.25C329.255 159.333 329.214 159.426 329.131 159.459L323.182 161.801C323.099 161.834 323.059 161.927 323.091 162.01L324.524 165.644C324.557 165.727 324.516 165.82 324.433 165.853L320.068 167.571C320.024 167.589 319.973 167.587 319.931 167.563C319.839 167.51 319.753 167.446 319.674 167.372L316.483 164.431C316.437 164.389 316.372 164.377 316.315 164.4L309.385 167.128C309.302 167.161 309.261 167.254 309.294 167.337L310.762 171.061C310.795 171.144 310.754 171.237 310.671 171.27L284.063 181.741C283.98 181.774 283.887 181.733 283.854 181.651L281.199 174.986C281.166 174.903 281.207 174.809 281.29 174.776L350.626 147.486C350.761 147.433 350.892 147.571 350.832 147.703L349.961 149.618Z" fill="black"/>
<path opacity="0.3" d="M248.074 178.976C242.482 181.165 239.725 187.472 241.917 193.064C244.11 198.656 250.421 201.413 256.013 199.224C261.606 197.035 264.362 190.728 262.17 185.136C259.977 179.544 253.667 176.787 248.074 178.976ZM254.932 197.28C250.474 199.025 245.442 196.826 243.694 192.369C241.946 187.912 244.145 182.884 248.603 181.139C253.061 179.394 258.091 181.592 259.839 186.049C261.587 190.506 259.39 195.535 254.932 197.28Z" fill="white"/>
<path opacity="0.1" d="M287.215 204.701C286.438 205.753 285.514 206.696 284.453 207.502L248.527 159.908L248.498 159.869C248.498 159.869 251.663 158.277 252.38 157.805C252.38 157.844 252.4 157.894 252.429 157.952C254.001 161.323 282.241 197.987 287.215 204.701Z" fill="white"/>
<path opacity="0.1" d="M282.024 209.006C281.798 209.114 271.33 212.299 271.33 212.299L259.663 196.847C262.68 193.888 263.811 189.308 262.169 185.13C259.977 179.537 253.667 176.775 248.074 178.967C247.582 179.154 247.12 179.38 246.678 179.635L236.357 165.962C236.357 165.962 245.43 161.637 246.432 161.008C246.697 162.926 282.024 208.603 282.024 209.006Z" fill="white"/>
<path d="M239.189 133.941C238.02 135.331 237.543 137.277 237.937 139.05C238.331 140.823 239.585 142.384 241.233 143.15C242.087 143.547 243.027 143.737 243.871 144.153C244.716 144.569 245.499 145.302 245.589 146.239C245.688 147.274 244.925 148.241 244.997 149.278C245.063 150.228 245.806 150.982 246.556 151.569C247.306 152.156 248.144 152.71 248.557 153.568C248.97 154.426 248.702 155.697 247.783 155.947C247.589 156.244 247.515 156.952 247.762 157.207C248.009 157.461 248.437 157.515 248.739 157.329C250.15 156.461 251.119 154.824 251.13 153.167C251.141 151.51 250.101 149.893 248.589 149.215C248.317 148.664 248.528 147.965 248.756 147.394C249.214 146.249 249.671 145.104 250.129 143.959C250.309 143.509 250.149 142.69 249.842 142.316C249.535 141.942 249.072 141.738 248.627 141.547L245.679 140.283C244.566 139.806 241.264 135.38 245.184 134.088C244.672 132.951 243.787 132.594 242.56 132.37C241.333 132.146 239.992 132.986 239.189 133.941Z" fill="#263238"/>
<path d="M244.538 129.18C244.44 130.344 244.342 131.507 244.244 132.671C245.221 131.067 247.031 127.958 246.969 128.079C246.201 128.496 245.307 128.762 244.538 129.18Z" fill="#263238"/>
<path d="M245.861 131.092C247.227 129.829 248.592 128.566 249.958 127.304C248.904 126.909 247.628 127.203 246.853 128.02C246.876 127.934 246.244 129.874 245.861 131.092Z" fill="#263238"/>
<path d="M237.533 225.7C232.199 232.318 233.974 237.394 226.613 249.111C235.897 255.993 246.076 257.133 258.73 256.15C260.225 253.501 260.981 250.736 262.477 248.086C264.622 250.747 266.344 252.984 268.488 255.645C275.118 254.606 282.995 252.743 288.238 249.364C283.608 244.054 280.733 237.421 277.768 231.566C276.378 228.821 276.96 227.665 273.272 224.065C261.524 224.607 249.873 224.894 238.125 225.436C238.436 225.453 237.223 225.684 237.533 225.7Z" fill="#263238"/>
<path d="M238.995 224.594L238.259 227.683C238.152 227.926 238.439 228.156 238.834 228.134L271.217 226.701C271.527 226.706 271.774 226.522 271.787 226.334L271.959 223.264C271.962 223.058 271.693 222.884 271.354 222.907L239.536 224.312C239.318 224.302 239.112 224.41 238.995 224.594Z" fill="#407BFF"/>
<path d="M238.995 224.594L238.259 227.683C238.152 227.926 238.439 228.156 238.834 228.134L271.217 226.701C271.527 226.706 271.774 226.522 271.787 226.334L271.959 223.264C271.962 223.058 271.693 222.884 271.354 222.907L239.536 224.312C239.318 224.302 239.112 224.41 238.995 224.594Z" fill="#407BFF"/>
<path d="M246.128 228.138L245.188 228.179C245.009 228.176 244.86 228.099 244.872 227.986L245.125 223.996C245.127 223.883 245.288 223.782 245.476 223.776L246.417 223.725C246.596 223.728 246.745 223.806 246.733 223.928L246.48 227.908C246.469 228.021 246.307 228.132 246.128 228.138Z" fill="#263238"/>
<path d="M269.509 227.13L268.569 227.171C268.39 227.168 268.241 227.09 268.253 226.978L268.506 222.997C268.508 222.875 268.669 222.774 268.848 222.768L269.788 222.727C269.967 222.73 270.116 222.808 270.104 222.92L269.851 226.9C269.849 227.023 269.697 227.124 269.509 227.13Z" fill="#263238"/>
<path d="M250.311 208.719C250.372 209.014 252.887 213.015 254.858 212.738C254.874 212.736 254.891 212.733 254.907 212.731C255.482 212.65 256.055 212.883 256.409 213.343C257.201 214.374 257.679 214.965 258.214 215.642C259.082 216.741 260.589 217.093 261.859 216.503C262.235 216.328 262.607 216.136 262.977 215.94C264.198 215.292 264.821 213.893 264.489 212.551C264.125 211.08 263.559 209.659 262.807 208.344C262.55 207.894 262.255 207.44 261.808 207.18C261.361 206.919 257.022 205.608 255.337 205.661C253.582 205.716 251.917 208.013 250.311 208.719Z" fill="#E8BFBF"/>
<path d="M255.379 205.529C255.379 205.529 228.797 197.48 223.063 202.839C219.692 205.99 221.284 208.965 223.168 210.883C224.57 212.31 227.624 211.959 229.622 211.866L250.561 209.812L255.379 205.529Z" fill="#E8BFBF"/>
<path d="M240.103 201.852C239.959 200.413 238.845 199.218 237.551 198.573C236.257 197.928 234.791 197.737 233.357 197.555C230.017 197.132 226.677 196.708 223.337 196.285C221.641 198.43 220.421 201.376 220.474 204.11C220.527 206.844 221.556 209.549 223.333 211.627C224.931 208.537 227.039 205.356 230.16 203.821C233.282 202.287 236.68 201.232 240.103 201.852Z" fill="#263238"/>
<path opacity="0.1" d="M233.251 153.3C233.221 153.24 233.221 153.21 233.251 153.2C233.461 153.14 233.431 153.18 233.251 153.3Z" fill="white"/>
<path d="M299.289 110.264L306.695 123.996L336.913 98.336C337.179 98.11 336.871 97.701 336.58 97.893L308.252 116.591L303.885 108.074L299.289 110.264Z" fill="#407BFF"/>
<path d="M346.964 110.328C346.964 122.566 334.117 132.483 318.272 132.483C312.188 132.483 306.555 131.028 301.916 128.522L285.07 135.845L295.704 124C291.871 120.245 289.58 115.498 289.58 110.327C289.58 98.089 302.427 88.172 318.272 88.172C334.117 88.173 346.964 98.091 346.964 110.328Z" stroke="white" stroke-opacity="0.22" stroke-width="1.3" stroke-miterlimit="10"/>
</svg>
