<svg width="15" height="16" viewBox="0 0 15 16" fill="none" xmlns="http://www.w3.org/2000/svg">
<path d="M1.25 3.62495H3.46563C3.54175 4.0595 3.76867 4.4533 4.10648 4.73707C4.44428 5.02084 4.87132 5.17641 5.3125 5.17641C5.75368 5.17641 6.18072 5.02084 6.51852 4.73707C6.85633 4.4533 7.08325 4.0595 7.15938 3.62495H13.75C13.8329 3.62495 13.9124 3.59202 13.971 3.53342C14.0296 3.47481 14.0625 3.39533 14.0625 3.31245C14.0625 3.22957 14.0296 3.15008 13.971 3.09148C13.9124 3.03287 13.8329 2.99995 13.75 2.99995H7.15938C7.08325 2.56539 6.85633 2.17159 6.51852 1.88782C6.18072 1.60405 5.75368 1.44849 5.3125 1.44849C4.87132 1.44849 4.44428 1.60405 4.10648 1.88782C3.76867 2.17159 3.54175 2.56539 3.46563 2.99995H1.25C1.16712 2.99995 1.08763 3.03287 1.02903 3.09148C0.970424 3.15008 0.9375 3.22957 0.9375 3.31245C0.9375 3.39533 0.970424 3.47481 1.02903 3.53342C1.08763 3.59202 1.16712 3.62495 1.25 3.62495ZM5.3125 2.06245C5.55973 2.06245 5.8014 2.13576 6.00696 2.27311C6.21252 2.41046 6.37274 2.60569 6.46735 2.83409C6.56196 3.0625 6.58671 3.31383 6.53848 3.55631C6.49025 3.79879 6.3712 4.02151 6.19638 4.19633C6.02157 4.37115 5.79884 4.4902 5.55636 4.53843C5.31389 4.58666 5.06255 4.56191 4.83415 4.4673C4.60574 4.37269 4.41051 4.21247 4.27316 4.00691C4.13581 3.80135 4.0625 3.55967 4.0625 3.31245C4.0625 2.98093 4.1942 2.66298 4.42862 2.42856C4.66304 2.19414 4.98098 2.06245 5.3125 2.06245ZM13.75 7.68745H11.5344C11.4582 7.25289 11.2313 6.85909 10.8935 6.57532C10.5557 6.29155 10.1287 6.13599 9.6875 6.13599C9.24632 6.13599 8.81928 6.29155 8.48148 6.57532C8.14367 6.85909 7.91675 7.25289 7.84062 7.68745H1.25C1.16712 7.68745 1.08763 7.72037 1.02903 7.77898C0.970424 7.83758 0.9375 7.91707 0.9375 7.99995C0.9375 8.08283 0.970424 8.16231 1.02903 8.22092C1.08763 8.27952 1.16712 8.31245 1.25 8.31245H7.84062C7.91675 8.747 8.14367 9.1408 8.48148 9.42457C8.81928 9.70834 9.24632 9.86391 9.6875 9.86391C10.1287 9.86391 10.5557 9.70834 10.8935 9.42457C11.2313 9.1408 11.4582 8.747 11.5344 8.31245H13.75C13.8329 8.31245 13.9124 8.27952 13.971 8.22092C14.0296 8.16231 14.0625 8.08283 14.0625 7.99995C14.0625 7.91707 14.0296 7.83758 13.971 7.77898C13.9124 7.72037 13.8329 7.68745 13.75 7.68745ZM9.6875 9.24995C9.44027 9.24995 9.1986 9.17664 8.99304 9.03928C8.78748 8.90193 8.62726 8.70671 8.53265 8.4783C8.43804 8.24989 8.41329 7.99856 8.46152 7.75608C8.50975 7.51361 8.6288 7.29088 8.80362 7.11606C8.97843 6.94125 9.20116 6.8222 9.44364 6.77397C9.68611 6.72573 9.93745 6.75049 10.1659 6.8451C10.3943 6.93971 10.5895 7.09992 10.7268 7.30548C10.8642 7.51105 10.9375 7.75272 10.9375 7.99995C10.9375 8.33147 10.8058 8.64941 10.5714 8.88383C10.337 9.11825 10.019 9.24995 9.6875 9.24995ZM13.75 12.3749H7.15938C7.08325 11.9404 6.85633 11.5466 6.51852 11.2628C6.18072 10.9791 5.75368 10.8235 5.3125 10.8235C4.87132 10.8235 4.44428 10.9791 4.10648 11.2628C3.76867 11.5466 3.54175 11.9404 3.46563 12.3749H1.25C1.16712 12.3749 1.08763 12.4079 1.02903 12.4665C0.970424 12.5251 0.9375 12.6046 0.9375 12.6874C0.9375 12.7703 0.970424 12.8498 1.02903 12.9084C1.08763 12.967 1.16712 12.9999 1.25 12.9999H3.46563C3.54175 13.4345 3.76867 13.8283 4.10648 14.1121C4.44428 14.3958 4.87132 14.5514 5.3125 14.5514C5.75368 14.5514 6.18072 14.3958 6.51852 14.1121C6.85633 13.8283 7.08325 13.4345 7.15938 12.9999H13.75C13.8329 12.9999 13.9124 12.967 13.971 12.9084C14.0296 12.8498 14.0625 12.7703 14.0625 12.6874C14.0625 12.6046 14.0296 12.5251 13.971 12.4665C13.9124 12.4079 13.8329 12.3749 13.75 12.3749ZM5.3125 13.9374C5.06527 13.9374 4.8236 13.8641 4.61804 13.7268C4.41248 13.5894 4.25226 13.3942 4.15765 13.1658C4.06304 12.9374 4.03829 12.6861 4.08652 12.4436C4.13475 12.2011 4.2538 11.9784 4.42862 11.8036C4.60343 11.6287 4.82616 11.5097 5.06864 11.4615C5.31111 11.4132 5.56245 11.438 5.79085 11.5326C6.01926 11.6272 6.21449 11.7874 6.35184 11.993C6.48919 12.1985 6.5625 12.4402 6.5625 12.6874C6.5625 13.019 6.4308 13.3369 6.19638 13.5713C5.96196 13.8057 5.64402 13.9374 5.3125 13.9374Z" fill="black"/>
</svg>
