<svg width="16" height="18" viewBox="0 0 16 18" fill="none" xmlns="http://www.w3.org/2000/svg">
<path d="M13.3334 6.16661L9.3334 2.44078C8.96672 2.09231 8.49202 1.89966 8.00006 1.89966C7.50811 1.89966 7.03341 2.09231 6.66673 2.44078L2.66673 6.16661C2.45498 6.36783 2.286 6.61467 2.17104 6.8907C2.05609 7.16673 1.9978 7.46561 2.00006 7.76744V13.9583C2.00006 14.5219 2.21078 15.0624 2.58585 15.4609C2.96092 15.8594 3.46963 16.0833 4.00006 16.0833H12.0001C12.5305 16.0833 13.0392 15.8594 13.4143 15.4609C13.7894 15.0624 14.0001 14.5219 14.0001 13.9583V7.76036C14.0014 7.45972 13.9426 7.1622 13.8277 6.88747C13.7128 6.61273 13.5443 6.36704 13.3334 6.16661ZM9.3334 14.6666H6.66673V11.1249C6.66673 10.9371 6.73697 10.7569 6.86199 10.6241C6.98702 10.4912 7.15659 10.4166 7.3334 10.4166H8.66673C8.84354 10.4166 9.01311 10.4912 9.13813 10.6241C9.26316 10.7569 9.3334 10.9371 9.3334 11.1249V14.6666ZM12.6667 13.9583C12.6667 14.1461 12.5965 14.3263 12.4715 14.4591C12.3464 14.592 12.1769 14.6666 12.0001 14.6666H10.6667V11.1249C10.6667 10.5614 10.456 10.0209 10.0809 9.62234C9.70587 9.22383 9.19716 8.99994 8.66673 8.99994H7.3334C6.80296 8.99994 6.29426 9.22383 5.91918 9.62234C5.54411 10.0209 5.3334 10.5614 5.3334 11.1249V14.6666H4.00006C3.82325 14.6666 3.65368 14.592 3.52866 14.4591C3.40363 14.3263 3.3334 14.1461 3.3334 13.9583V7.76036C3.33352 7.65979 3.35379 7.56039 3.39287 7.46879C3.43196 7.37719 3.48895 7.29549 3.56006 7.22911L7.56006 3.51036C7.68172 3.3968 7.83812 3.33417 8.00006 3.33417C8.162 3.33417 8.3184 3.3968 8.44006 3.51036L12.4401 7.22911C12.5112 7.29549 12.5682 7.37719 12.6073 7.46879C12.6463 7.56039 12.6666 7.65979 12.6667 7.76036V13.9583Z" fill="white"/>
</svg>
