<svg width="40" height="35" viewBox="0 0 40 35" fill="none" xmlns="http://www.w3.org/2000/svg">
<path fill-rule="evenodd" clip-rule="evenodd" d="M0.657003 15.6C2.82569 6.8833 10.6532 0.764648 19.6356 0.764648C28.618 0.764648 36.4455 6.8833 38.6141 15.6H36.8999C34.008 15.5574 31.1754 16.4216 28.7999 18.0714C28.6628 18.1707 28.5196 18.2613 28.3713 18.3428H28.1713C28.0229 18.2613 27.8798 18.1707 27.7427 18.0714C22.8406 14.775 16.4306 14.775 11.5284 18.0714C11.3913 18.1707 11.2482 18.2613 11.0999 18.3428H10.8999C10.7515 18.2613 10.6084 18.1707 10.4713 18.0714C8.09576 16.4216 5.26317 15.5574 2.37129 15.6H0.657003ZM33.8141 24.5571C34.6942 23.8718 35.7848 23.5132 36.8999 23.5428H39.1999V18.9571H36.8999C34.9359 18.9333 33.0168 19.5446 31.4284 20.7C29.5937 22.0526 27.0918 22.0526 25.257 20.7C21.9213 18.3779 17.4927 18.3779 14.157 20.7C12.3222 22.0526 9.82036 22.0526 7.98557 20.7C6.37757 19.5299 4.431 18.9178 2.44272 18.9571H0.0712891V23.5428H2.37129C3.4863 23.5132 4.57699 23.8718 5.457 24.5571C8.78692 26.8808 13.2128 26.8808 16.5427 24.5571C17.4239 23.8739 18.5138 23.5156 19.6284 23.5428C20.7438 23.5108 21.8353 23.8696 22.7141 24.5571C26.0498 26.8791 30.4785 26.8791 33.8141 24.5571ZM36.8999 31.7428C35.7848 31.7132 34.6942 32.0718 33.8141 32.7571C30.4785 35.0791 26.0498 35.0791 22.7141 32.7571C21.8353 32.0696 20.7438 31.7108 19.6284 31.7428C18.5138 31.7156 17.4239 32.0739 16.5427 32.7571C13.2128 35.0808 8.78692 35.0808 5.457 32.7571C4.57699 32.0718 3.4863 31.7132 2.37129 31.7428H0.0712891V27.1571H2.44272C4.431 27.1178 6.37757 27.7299 7.98557 28.9C9.82036 30.2526 12.3222 30.2526 14.157 28.9C17.4927 26.5779 21.9213 26.5779 25.257 28.9C27.0918 30.2526 29.5937 30.2526 31.4284 28.9C33.0168 27.7446 34.9359 27.1333 36.8999 27.1571H39.1999V31.7428H36.8999Z" fill="white"/>
</svg>
