<svg width="30" height="30" viewBox="0 0 30 30" fill="none" xmlns="http://www.w3.org/2000/svg">
<path d="M24.5049 26.25L16.6299 18.375C16.0049 18.875 15.2861 19.2708 14.4736 19.5625C13.6611 19.8542 12.7965 20 11.8799 20C9.60905 20 7.68738 19.2133 6.11488 17.64C4.54238 16.0667 3.75572 14.145 3.75488 11.875C3.75488 9.60417 4.54155 7.6825 6.11488 6.11C7.68822 4.5375 9.60988 3.75083 11.8799 3.75C14.1507 3.75 16.0724 4.53667 17.6449 6.11C19.2174 7.68333 20.004 9.605 20.0049 11.875C20.0049 12.7917 19.859 13.6562 19.5674 14.4688C19.2757 15.2812 18.8799 16 18.3799 16.625L26.2549 24.5L24.5049 26.25ZM11.8799 17.5C13.4424 17.5 14.7707 16.9529 15.8649 15.8588C16.959 14.7646 17.5057 13.4367 17.5049 11.875C17.5049 10.3125 16.9578 8.98417 15.8636 7.89C14.7695 6.79583 13.4415 6.24917 11.8799 6.25C10.3174 6.25 8.98905 6.79708 7.89488 7.89125C6.80072 8.98542 6.25405 10.3133 6.25488 11.875C6.25488 13.4375 6.80197 14.7658 7.89613 15.86C8.9903 16.9542 10.3182 17.5008 11.8799 17.5Z" fill="white" fill-opacity="0.69"/>
</svg>
