<svg width="134" height="23" viewBox="0 0 134 23" fill="none" xmlns="http://www.w3.org/2000/svg">
<path d="M8.14971 4.79509H9.96139V1.63974C9.64884 1.59674 8.5739 1.5 7.32201 1.5C4.70992 1.5 2.92057 3.143 2.92057 6.16274V8.94186H0.0380859V12.4693H2.92057V21.345H6.45462V12.4701H9.22052L9.65958 8.94269H6.4538V6.51251C6.45462 5.49297 6.72915 4.79509 8.14971 4.79509Z" fill="white"/>
<path d="M72 4.61613C71.1819 4.975 70.3101 5.21288 69.4013 5.32838C70.3363 4.77013 71.0499 3.89287 71.3854 2.8355C70.5136 3.35525 69.5511 3.72238 68.5254 3.92725C67.6976 3.04588 66.5179 2.5 65.2309 2.5C62.7339 2.5 60.7236 4.52675 60.7236 7.01137C60.7236 7.36888 60.7539 7.71263 60.8281 8.03988C57.0785 7.857 53.7606 6.05988 51.5317 3.32225C51.1426 3.99738 50.9144 4.77012 50.9144 5.602C50.9144 7.164 51.7187 8.54862 52.9177 9.35025C52.1931 9.3365 51.4822 9.12613 50.88 8.79475C50.88 8.8085 50.88 8.82638 50.88 8.84425C50.88 11.036 52.4434 12.8565 54.4935 13.2759C54.1264 13.3763 53.7263 13.4244 53.311 13.4244C53.0223 13.4244 52.7307 13.4079 52.4571 13.3474C53.0415 15.1335 54.6997 16.4466 56.6715 16.4893C55.137 17.6896 53.1886 18.4129 51.0794 18.4129C50.7095 18.4129 50.3548 18.3964 50 18.351C51.9979 19.6394 54.3656 20.375 56.919 20.375C65.2185 20.375 69.756 13.5 69.756 7.54075C69.756 7.34137 69.7491 7.14887 69.7395 6.95775C70.6346 6.3225 71.3867 5.52913 72 4.61613Z" fill="white"/>
<path fill-rule="evenodd" clip-rule="evenodd" d="M118.875 0.5H127.125C130.921 0.5 134 3.57862 134 7.375V15.625C134 19.4214 130.921 22.5 127.125 22.5H118.875C115.079 22.5 112 19.4214 112 15.625V7.375C112 3.57862 115.079 0.5 118.875 0.5ZM127.125 20.4375C129.779 20.4375 131.938 18.2787 131.938 15.625V7.375C131.938 4.72125 129.779 2.5625 127.125 2.5625H118.875C116.221 2.5625 114.062 4.72125 114.062 7.375V15.625C114.062 18.2787 116.221 20.4375 118.875 20.4375H127.125Z" fill="white"/>
<path fill-rule="evenodd" clip-rule="evenodd" d="M117.5 11.5C117.5 8.46263 119.963 6 123 6C126.037 6 128.5 8.46263 128.5 11.5C128.5 14.5374 126.037 17 123 17C119.963 17 117.5 14.5374 117.5 11.5ZM119.562 11.5C119.562 13.3948 121.105 14.9375 123 14.9375C124.895 14.9375 126.438 13.3948 126.438 11.5C126.438 9.60388 124.895 8.0625 123 8.0625C121.105 8.0625 119.562 9.60388 119.562 11.5Z" fill="white"/>
<circle cx="128.913" cy="5.58761" r="0.732875" fill="white"/>
</svg>
