<svg width="57" height="57" viewBox="0 0 57 57" fill="none" xmlns="http://www.w3.org/2000/svg">
<circle cx="28.0601" cy="28.5666" r="27.0579" stroke="#767676" stroke-width="2.00429"/>
<path d="M28.7575 26.7096H40.8007C40.9336 27.4366 41 28.1311 41 28.793C41 31.1476 40.4961 33.2499 39.4884 35.0999C38.4806 36.95 37.0437 38.3958 35.1777 39.4375C33.3117 40.4792 31.1716 41 28.7575 41C27.0188 41 25.3632 40.6718 23.7907 40.0153C22.2182 39.3588 20.8616 38.4718 19.7209 37.3542C18.5803 36.2365 17.675 34.9073 17.005 33.3665C16.335 31.8257 16 30.2036 16 28.5C16 26.7964 16.335 25.1743 17.005 23.6335C17.675 22.0927 18.5803 20.7635 19.7209 19.6458C20.8616 18.5282 22.2182 17.6412 23.7907 16.9847C25.3632 16.3282 27.0188 16 28.7575 16C32.0797 16 34.9313 17.0905 37.3123 19.2715L33.8405 22.543C32.4784 21.2517 30.7841 20.6061 28.7575 20.6061C27.3289 20.6061 26.0083 20.9588 24.7957 21.6641C23.5831 22.3694 22.6224 23.3269 21.9136 24.5368C21.2049 25.7466 20.8505 27.0677 20.8505 28.5C20.8505 29.9323 21.2049 31.2534 21.9136 32.4632C22.6224 33.6731 23.5831 34.6306 24.7957 35.3359C26.0083 36.0412 27.3289 36.3939 28.7575 36.3939C29.7209 36.3939 30.6069 36.2637 31.4153 36.0033C32.2237 35.7428 32.8881 35.4173 33.4086 35.0267C33.9291 34.6361 34.3832 34.1912 34.7708 33.6921C35.1584 33.1929 35.4435 32.7209 35.6262 32.276C35.809 31.8312 35.9336 31.408 36 31.0065H28.7575V26.7096Z" fill="#767676"/>
</svg>
