<svg width="14" height="20" viewBox="0 0 14 20" fill="none" xmlns="http://www.w3.org/2000/svg">
<path d="M7 10.6333C8.00689 10.6333 8.99116 10.3362 9.82836 9.77945C10.6656 9.22272 11.3181 8.43141 11.7034 7.5056C12.0887 6.57979 12.1895 5.56105 11.9931 4.57821C11.7967 3.59537 11.3118 2.69258 10.5998 1.98399C9.88784 1.27541 8.98073 0.792855 7.99319 0.597357C7.00565 0.401858 5.98204 0.502195 5.05179 0.885679C4.12155 1.26916 3.32646 1.91857 2.76706 2.75178C2.20767 3.58499 1.90909 4.56458 1.90909 5.56667C1.90909 6.91043 2.44545 8.19916 3.40018 9.14934C4.35491 10.0995 5.64981 10.6333 7 10.6333ZM7 1.76667C7.75517 1.76667 8.49337 1.98953 9.12127 2.40708C9.74917 2.82463 10.2386 3.41811 10.5275 4.11247C10.8165 4.80683 10.8921 5.57088 10.7448 6.30801C10.5975 7.04514 10.2338 7.72223 9.69986 8.25367C9.16588 8.78511 8.48554 9.14703 7.74489 9.29365C7.00424 9.44028 6.23653 9.36502 5.53885 9.07741C4.84116 8.7898 4.24485 8.30274 3.8253 7.67784C3.40575 7.05293 3.18182 6.31824 3.18182 5.56667C3.18182 4.55885 3.58409 3.5923 4.30014 2.87966C5.01619 2.16702 5.98736 1.76667 7 1.76667ZM9.54545 11.9H4.45455C3.27313 11.9 2.1401 12.3671 1.30471 13.1985C0.469317 14.0299 0 15.1575 0 16.3333V17.6C0 18.1039 0.201136 18.5872 0.55916 18.9435C0.917184 19.2998 1.40277 19.5 1.90909 19.5H12.0909C12.5972 19.5 13.0828 19.2998 13.4408 18.9435C13.7989 18.5872 14 18.1039 14 17.6V16.3333C14 15.1575 13.5307 14.0299 12.6953 13.1985C11.8599 12.3671 10.7269 11.9 9.54545 11.9ZM12.7273 17.6C12.7273 17.768 12.6602 17.9291 12.5409 18.0478C12.4215 18.1666 12.2597 18.2333 12.0909 18.2333H1.90909C1.74032 18.2333 1.57846 18.1666 1.45911 18.0478C1.33977 17.9291 1.27273 17.768 1.27273 17.6V16.3333C1.27273 15.4935 1.60795 14.688 2.20466 14.0942C2.80137 13.5003 3.61067 13.1667 4.45455 13.1667H9.54545C10.3893 13.1667 11.1986 13.5003 11.7953 14.0942C12.392 14.688 12.7273 15.4935 12.7273 16.3333V17.6Z" fill="white"/>
</svg>
